STARTFONT 2.3
FONT -FontForge-Monoton-Book-R-Normal--24-240-72-72-P-162-ISO10646-1
SIZE 24 72 72  4
FONTBOUNDINGBOX 45 38 -4 -10
COMMENT "Generated by fontforge, http://fontforge.sourceforge.net"
COMMENT "Copyright (c) 2011 by vernon adams. All rights reserved."
STARTPROPERTIES 41
FOUNDRY "FontForge"
FAMILY_NAME "Monoton"
WEIGHT_NAME "Book"
SLANT "R"
SETWIDTH_NAME "Normal"
ADD_STYLE_NAME ""
PIXEL_SIZE 24
POINT_SIZE 240
RESOLUTION_X 72
RESOLUTION_Y 72
SPACING "P"
AVERAGE_WIDTH 162
CHARSET_REGISTRY "ISO10646"
CHARSET_ENCODING "1"
FONTNAME_REGISTRY ""
CHARSET_COLLECTIONS "ISO8859-2 ISO8859-9 ISO8859-4 ISO10646-1"
BITS_PER_PIXEL 4
FONT_NAME "Monoton-Regular"
FACE_NAME "Monoton"
COPYRIGHT "Copyright (c) 2011 by vernon adams. All rights reserved."
FONT_VERSION "1.000"
FONT_ASCENT 19
FONT_DESCENT 5
UNDERLINE_POSITION -1
UNDERLINE_THICKNESS 1
X_HEIGHT 16
CAP_HEIGHT 19
DEFAULT_CHAR 1
RAW_ASCENT 799
RAW_DESCENT 200
NORM_SPACE 3
RELATIVE_WEIGHT 40
RELATIVE_SETWIDTH 50
SUPERSCRIPT_X 0
SUPERSCRIPT_Y 8
SUPERSCRIPT_SIZE 14
SUBSCRIPT_X 0
SUBSCRIPT_Y 1
SUBSCRIPT_SIZE 14
AVG_LOWERCASE_WIDTH 174
AVG_UPPERCASE_WIDTH 189
ENDPROPERTIES
CHARS 372
STARTCHAR glyph1.dup1
ENCODING 0
SWIDTH 108 0
DWIDTH 3 0
BBX 1 1 0 0
BITMAP
00
ENDCHAR
STARTCHAR uni0002
ENCODING 2
SWIDTH 108 0
DWIDTH 3 0
BBX 1 1 0 0
BITMAP
00
ENDCHAR
STARTCHAR uni0009
ENCODING 9
SWIDTH 108 0
DWIDTH 3 0
BBX 1 1 0 0
BITMAP
00
ENDCHAR
STARTCHAR uni000A
ENCODING 10
SWIDTH 108 0
DWIDTH 3 0
BBX 1 1 0 0
BITMAP
00
ENDCHAR
STARTCHAR uni000D
ENCODING 13
SWIDTH 108 0
DWIDTH 3 0
BBX 1 1 0 0
BITMAP
00
ENDCHAR
STARTCHAR space
ENCODING 32
SWIDTH 108 0
DWIDTH 3 0
BBX 1 1 0 0
BITMAP
00
ENDCHAR
STARTCHAR exclam
ENCODING 33
SWIDTH 336 0
DWIDTH 8 0
BBX 6 21 1 -1
BITMAP
514325
D3A85C
D3A85C
D3A85C
D3A85C
D3A85C
D3A85C
D3A85C
D3A85C
D3A85C
D3A85C
D3A85C
D3A85C
D3A85C
C3975C
000000
566666
677777
9AAAAA
222222
BDDDDD
ENDCHAR
STARTCHAR quotedbl
ENCODING 34
SWIDTH 538 0
DWIDTH 13 0
BBX 11 9 1 11
BITMAP
523410234250
C58A304894D0
C58A304894D0
C58A304894D0
C58A304894D0
C58A304894D0
C58A304894D0
C58A304894D0
312210122130
ENDCHAR
STARTCHAR numbersign
ENCODING 35
SWIDTH 1014 0
DWIDTH 24 0
BBX 24 23 0 -2
BITMAP
000000002130300003122100
00000000B3D3A0003A77A300
00000000D3A7600076B3D000
00000003A76B2000B3D3A000
000078776B2D5884D3A77886
0000555B3D3A4555A76A4554
0005CC7D3A78CCC76B3D8CC4
0002224A76B3222B3D3A2220
000ABB86B2D7BB7D3A77BBA0
000000B3D3A0003A76A20000
000000D3A7600076B3D00000
000003A76B2000B3D3A00000
0000076B2D0000D3A7600000
00000B3D3A0003A76B200000
01332D3A7633376B3D233100
06AA7A76B5AA9B3D3A8AA200
077776B2D5774D3A77776000
0555B3D3A4555A76B4554000
5CC7D3A78CCC86B3D7CC4000
0114A76B2111B3D3A0110000
00076B2D0000D3A760000000
000B3D3A0003A76B20000000
000614330002341500000000
ENDCHAR
STARTCHAR dollar
ENCODING 36
SWIDTH 686 0
DWIDTH 16 0
BBX 16 27 0 -4
BITMAP
0000007319000000
000000941C000000
0000003132100000
00006CCA9ACC9300
001C835787634BA1
01C47D85457BC558
0877A39CDCA63940
0D2C3D523236B100
2B67A4ABAAC80000
3A75C2C000000000
2B67A3CAA9830000
0D3C3C33346BC200
095974BCDDB64D20
01D3AB64432994C0
004D53788AC4A5A3
00029DB9972C2B58
0000002449793D3A
0000152117794D3A
000237ABB82D2C58
0024CA7668D496A4
029B4357752A94C0
2C639CCBBCC54D20
018D8422225BB200
000159BCCB830000
0000007318000000
000000941C000000
0000004206000000
ENDCHAR
STARTCHAR percent
ENCODING 37
SWIDTH 1504 0
DWIDTH 36 0
BBX 36 23 0 -2
BITMAP
000000233000000000000000000000000000
00006CBAAD92000000425140000000000000
001B9268745D400000C2D490000000000000
00B56D756AB3C30001C59850000000000000
0686A3ADC55C3C0005985C10000000000000
0D2C3D523B787A40095C2C00000000000000
2B67A4ABC3D2C5800C2C5800000000000000
4994D3A05894D3A01C589400002676200000
4994D2B06894D3A05894C1003BB767BB3000
2B67967DC2D2C58094C2C005C35ACA63C500
0C2D2C734C596B30C2C5803C3C83238C2C30
05A4C27A937A4B02B58940C3C47DCD75C3B0
00A84C978C93D206894C03B687A363A795B2
0009B336527D30094D2B067B3D3D7D3D3A76
00004ADCDC71000D2B67085C2B76076C2C67
000000010000002B67A3076B2C4B2B3D2B76
0000000000000067A4D004985A56B66A67A3
00000000000000A3D3B000D2C2C969C2D2D0
00000000000000D3B670006A4C35753C4A60
00000000000003B67A30000A83BCBCB39A00
000000000000067A3D0000008C62236C8000
0000000000000A3D3A000000028BCB820000
000000000000092845000000000000000000
ENDCHAR
STARTCHAR ampersand
ENCODING 38
SWIDTH 1029 0
DWIDTH 25 0
BBX 25 20 0 0
BITMAP
00000145666663051432500000
00018D977777730D2A76C10000
002C738ABBBBB50D2A76C10000
01C48C522222210D2A76C10000
077893BDCCCCC60D2A76C10000
0C2C3C345555520D2A76C10000
1C67A4C98888840D2A76C10000
2A76C2C00000000D2A76C10000
0C5895BBAAAAAA8D2A76C6AA00
0A3C3C523333332D2A76C23300
058866FDDDDDDDAD2A76C7DD10
0C4B5B356666664D2A76C46600
1B66B3D87777775D2A76C47700
2A76C3C00000000C2B66B20000
1D49868DDDDDDD4B2D3A4DD400
0C3C3C84333333176A4A943100
05B3C36999999931C2C3599300
00A93CB8888888206A3BB88300
0019C4245555551007C4245200
000039DDDDDDDD400029CDD400
ENDCHAR
STARTCHAR quotesingle
ENCODING 39
SWIDTH 257 0
DWIDTH 6 0
BBX 5 9 1 11
BITMAP
523410
C58A30
C58A30
C58A30
C58A30
C58A30
C58A30
C58A30
312210
ENDCHAR
STARTCHAR parenleft
ENCODING 40
SWIDTH 410 0
DWIDTH 10 0
BBX 10 23 0 -2
BITMAP
0000001340
00004BCA91
0008B35791
00893C9540
03C3C38CD1
094B3B6230
0D3B686CA1
1C57A3D000
2B66B2C000
2B66B2C000
2B66B2C000
2B66B2C000
2B66B2C000
2B66B2C000
2B66B2C000
1B67B3C000
0D4985B630
0B2C3C2791
068784CA81
00C39A3450
002C55BDD1
0001AB6320
00000379A1
ENDCHAR
STARTCHAR parenright
ENCODING 41
SWIDTH 408 0
DWIDTH 10 0
BBX 9 23 0 -2
BITMAP
1431000000
29ACA30000
29744C7000
145AC3B600
3DC73C2C10
1328A49670
2AC4A4C2B0
001C5893D0
000D4984D0
000D4984D0
000D4984D0
000D4984D0
000D4984D0
000D4984D0
000D4984D0
000C4894D0
138976B2C0
2972D2C490
28AC3A5A40
1533B75A00
3DCA46C100
0237C91000
2A97200000
ENDCHAR
STARTCHAR asterisk
ENCODING 42
SWIDTH 664 0
DWIDTH 16 0
BBX 16 15 0 2
BITMAP
000002965A100000
000002B76B100000
005B22B76B13B500
0254CAB76BAC4620
02AB36A76A64C920
1D63C92762AB37D1
018C46DCCC54C810
001AD26FF52DA100
06D63BA88AB37D60
1929C337634C8291
03D64CB76BC36D30
002AB5B76B4B9200
004502B76B105400
000002B76B100000
0000015335100000
ENDCHAR
STARTCHAR plus
ENCODING 43
SWIDTH 601 0
DWIDTH 14 0
BBX 14 12 0 4
BITMAP
00002131221000
000094D4984000
000094D4984000
000094D4984000
1CCCE4D498DCC7
0222A4D4986221
1BBBD4D498CBB6
1777C4D4989774
1666B4D4989663
000094D4984000
000094D4984000
000073A3763000
ENDCHAR
STARTCHAR comma
ENCODING 44
SWIDTH 252 0
DWIDTH 6 0
BBX 6 9 0 -4
BITMAP
031220
1C67B2
1C67B2
1C67B2
0267B2
04C3C1
1943C0
18AC20
053000
ENDCHAR
STARTCHAR hyphen
ENCODING 45
SWIDTH 473 0
DWIDTH 11 0
BBX 10 5 1 7
BITMAP
BCCCCCCCC4
2222222221
ABBBBBBBB4
6777777772
6666666662
ENDCHAR
STARTCHAR period
ENCODING 46
SWIDTH 255 0
DWIDTH 6 0
BBX 6 5 0 0
BITMAP
033331
099992
088881
055551
1DDDD2
ENDCHAR
STARTCHAR slash
ENCODING 47
SWIDTH 447 0
DWIDTH 11 0
BBX 11 23 0 -3
BITMAP
000001423410
000005894C10
0000094D2C00
00000C2C5800
00002C589400
00005894C100
000094D2C000
0000C2C58000
0002C5894000
0005894C1000
00094D2B0000
000C2C580000
002C58940000
005894C10000
0094D2B00000
00C2C5800000
02C589400000
05894C100000
094C2B000000
0C2C58000000
2C5894000000
5894C1000000
223140000000
ENDCHAR
STARTCHAR zero
ENCODING 48
SWIDTH 843 0
DWIDTH 20 0
BBX 20 22 0 -1
BITMAP
00000000133200000000
0000018DCA9BD9300000
00005D73688635C80000
0006C2AC7556BC39A000
004C2C54ACCB63C49700
00C3C49B42238C2C2C20
05977794CBAD75B3B590
0A3C2C3C2001A695B2D0
0D3A76A300001D3B67A3
2B67B3D00000094D3A76
3A75C2B00000076B2B67
3985D2A00000067B2C57
3B66C2B00000075C2B67
1C5894D000000B3D4985
0D2B588700003C4975C2
085B3C3C7215D3C3D2C0
02C3B3C37BB82A777860
0096893CA769D65B3C00
001C47B3467529A2C300
0002D64ADBBCC64D4000
000019C733335BB20000
00000027ACCB83000000
ENDCHAR
STARTCHAR one
ENCODING 49
SWIDTH 426 0
DWIDTH 10 0
BBX 10 20 0 0
BITMAP
2666666661
2777777771
4BBBBBBBB2
1222222220
4CCEDEDEE3
000B2C57A3
000B2C57A3
000B2C57A3
000B2C57A3
000B2C57A3
000B2C57A3
000B2C57A3
000B2C57A3
000B2C57A3
000B2C57A3
000B2C57A3
000B2C57A3
000B2C57A3
000B2C57A3
000B2C57A3
ENDCHAR
STARTCHAR two
ENCODING 50
SWIDTH 583 0
DWIDTH 14 0
BBX 14 21 0 0
BITMAP
00023331000000
3BDBA9ACD82000
1347898636D500
0C975568CA3C40
038BCCC936C3C0
04423334C495B2
03DCBABB2C4994
000000093C4984
0000001C4986B2
000000A5C3D3C0
000007895B4B40
00003B5A796A00
0001C4C3C3D100
000A5B4C3B4000
00688796870000
03B5B5A4B00000
06574747433310
19999999999930
18888888888830
05555555555520
1DDDDDDDDDDD40
ENDCHAR
STARTCHAR three
ENCODING 51
SWIDTH 612 0
DWIDTH 15 0
BBX 14 22 0 -1
BITMAP
00012332000000
3BDCBA9BDA3000
1336788734C700
0CA76556AB3A70
037ACCCB53C3C2
056322339B3B58
03BCBAAC595C2C
00000001C5893D
00029998A66A3C
000133358D994A
0003DDDC936D84
000144324B84C0
0002999BC49686
000288863D3C3B
00014447B67A3D
02642115B68A3D
0169ABB93C3C3B
08C97769D57887
0434566429A3C1
09CDCBBCC64D20
396322225AB200
158ABCCB830000
ENDCHAR
STARTCHAR four
ENCODING 52
SWIDTH 622 0
DWIDTH 15 0
BBX 15 20 0 0
BITMAP
0000005152424000
00000697796A5000
00000C2D2D2D0000
00005A6877870000
0000C3C2D2D10000
0004B5A687800000
000A4C3D2D200000
002C4B5A5A000000
0095B4C3C3325000
02D3C4B3B085C000
087A5A4A5085C000
1D2D2C2C0085C000
2999999999999920
1444444444444410
3DDDDDDDDDDDDD40
1333333333333310
2999999999999930
000000000075C000
000000000085C000
000000000085C000
ENDCHAR
STARTCHAR five
ENCODING 53
SWIDTH 691 0
DWIDTH 17 0
BBX 16 21 0 -1
BITMAP
0466666666666610
0577777777777710
07BBBBBBBBBBBB10
0222222222222200
0ADFDECCCCCCCC20
0A2D580000000000
0A2D580000000000
0A2D58BCCCA61000
0A2D58333238D400
0A2D58AA9AC82C50
0A2D58799726B2D1
0A2D585335B85968
0A2C58ABBC4B4C2C
0000000002C5893D
0000152126B58A3D
000337ABA72C3C3B
0035CA767AC49786
02AA4367533B84C0
3C54ADCBBDA46C20
019C7422237C9100
000159BCCA620000
ENDCHAR
STARTCHAR six
ENCODING 54
SWIDTH 781 0
DWIDTH 19 0
BBX 19 22 0 -1
BITMAP
00000000233100000000
000005BCA9ABD9300000
0002C824787634BA1000
003C37D96557AC558000
00C3B838BDCB73A40000
067885D622236B100000
0C2D3C3ACAAC80000000
0C5885B5000000000000
2B66B2D4ACCCA6100000
2B76C2C3323237D50000
2B76C2C7CA9AC92B6000
2B76C2C2689844C2C300
2B76C2C67434AA3B4A00
2B76B2C5BCCC587A3D00
1B67B2D31001D3B76B10
0D4976993125C3A75C10
0B3C2C45ABB82B4B3D00
05A5B3AC8679C5796800
00A66C52566439A3D100
001B828CCBBDB54D3000
00007D8422236BB20000
00000059BCCA72000000
ENDCHAR
STARTCHAR seven
ENCODING 55
SWIDTH 631 0
DWIDTH 15 0
BBX 15 20 0 0
BITMAP
2666666632515240
27777775A3D3A760
4BBBBBB5D3A76B30
12222223A77A3D00
4CCCCCC77A3D3A00
0000000A3D3A7600
0000000D3B67A300
0000002B67A3D000
00000067A3D3A000
000000A3D3A67000
000000D3B67A3000
000002B67A3D0000
0000067A3D3B0000
00000A3D3B670000
00000D2B67A30000
00002B67A3D00000
000067A4D3B00000
000094D2B6700000
0000C2B67A300000
0002B6793D000000
ENDCHAR
STARTCHAR eight
ENCODING 56
SWIDTH 808 0
DWIDTH 19 0
BBX 19 22 0 -1
BITMAP
00000013444320000000
00005BCA999ABD810000
001B93588888626D4000
00B56D8544457C92D300
0686A28CDDDCA36B3C00
0C2C3D6233334B786A40
1C67A59CAAABC3D2C580
2A76C2C0000058A3D490
1C5895ABAAAA9792C580
0C2C3D52333358D87850
0686A28CDDDDC929B900
02C65D85444425C58900
094C93588889CB2C3C20
0D387CCA999855C4A770
2B66B3934444A6A3D490
2B66B3D3111187A3C490
0D3A693ACCCB83D3B670
0A4C48C766669C3A4C20
03C3C625777642B76A00
006B38DCAAABCB46C100
0004C942222226B91000
0000059CDDDCB8200000
ENDCHAR
STARTCHAR nine
ENCODING 57
SWIDTH 782 0
DWIDTH 19 0
BBX 18 22 0 -1
BITMAP
000000023320000000
00003ADB99BDA40000
0019B43688633AB200
00B74CA6556AC55C20
0785B26BCDB72994B0
0D2C3C733337C496A4
3A76B49CAACA2C2C4A
4893D3A00005976B2C
4985C2C53475C5893D
1C3A6B279851D4894D
0A5A65BA9AC4D4894D
02D39B523343D4894D
003D738BCB82D4894D
00018D965695D4894D
000000367633B67A3D
00000053124C5B3D2B
00001359BB938A5A66
00023BB8668D93D2C1
0025C62566527D3A60
00A927CCBBCC72B700
0006C95222259C4000
0000048ACCB8400000
ENDCHAR
STARTCHAR colon
ENCODING 58
SWIDTH 262 0
DWIDTH 6 0
BBX 5 12 1 3
BITMAP
555510
788820
9AAA30
333310
CDDD40
000000
000000
899920
444410
CDDD40
333310
999930
ENDCHAR
STARTCHAR semicolon
ENCODING 59
SWIDTH 261 0
DWIDTH 6 0
BBX 5 15 1 0
BITMAP
555510
788820
9AAA30
333310
CDDD40
000000
000000
825520
D49840
D49840
A49840
058940
8D3B20
417B00
CC8100
ENDCHAR
STARTCHAR less
ENCODING 60
SWIDTH 670 0
DWIDTH 16 0
BBX 16 18 0 1
BITMAP
0000000000000041
0000000000027DA1
0000000004AC6272
00000028D934AC71
00005BC627C944A2
028D934AC627CA40
2C627D934AC727C2
05BC627DA44AC710
2934AC727CA40000
17D944AC75100000
1627DA6527DA4000
1AC66627D944AC71
1BB638D934AC7272
0028D935BC627CA1
000005BC627D9341
000000028D934AC2
00000000005BC621
00000000000027D2
ENDCHAR
STARTCHAR equal
ENCODING 61
SWIDTH 473 0
DWIDTH 11 0
BBX 10 12 1 3
BITMAP
5555555552
7777777772
9AAAAAAAA3
2333333331
CDDDDDDDD4
0000000000
0000000000
9999999993
3444444441
CDDDDDDDD4
3444444441
9999999993
ENDCHAR
STARTCHAR greater
ENCODING 62
SWIDTH 670 0
DWIDTH 16 0
BBX 16 18 0 1
BITMAP
0500000000000000
09D8200000000000
1835BB5000000000
06CB538D82000000
1B539D835BB61000
039D825BB538D930
1C726CB538D707F4
016CB539D516CB50
000039B239D835B4
0000016CB538D831
00039D826CB538D3
06CA439D825BB532
1726CB538D835BC2
09D826BB538D9300
0439D835BB500000
1CB539D820000000
036CB50000000000
1D82000000000000
ENDCHAR
STARTCHAR question
ENCODING 63
SWIDTH 693 0
DWIDTH 17 0
BBX 16 21 0 0
BITMAP
0000012331000000
0017CCA9ACC81000
06C625787526D500
393AC86557CA2B60
00B459CDCA45C2C2
0008942334AA4A58
00003CBABC495B2C
0000000001C4894D
0011202237A67A3D
0067B2C5973D3C3B
0067B2C69AC39696
0067B2C2324A84C0
0067B2C8CB936C20
0067B2C3558C9100
0067B2C477510000
0056A2C000000000
0034444100000000
0089999300000000
0078888200000000
0044444100000000
00BDDDD400000000
ENDCHAR
STARTCHAR at
ENCODING 64
SWIDTH 1076 0
DWIDTH 26 0
BBX 26 24 0 -2
BITMAP
00000000000011000000000000
0000000049DDCCDC8300000000
0000005C942465435AB3000000
00001AA27CB9779CC63B800000
0001C64D8269AA8528C47A0000
000B57C39D843358C82B669000
00785B3D6001220007C3B59600
01C2D3D304BCABCB303C2D3C10
07696A506C347643B704A59760
0C1D3B04C2CA66AC3B40B3D3B0
1C49850B4C56BB73D3A05894D0
3A57A20D4A6A2197B3C02A76C1
4966B11B67A2004994D02B76B1
3A57A30C4977004994D02B76B1
1C3A770B3D37BB6994D02B76B1
0C2D2C03B3BA764A76AAB694D0
087869705C42552D2D3435C2B0
02D2D3C5028BBC3793BCDA2B40
00894C3C910000009B4225C700
000C75D46CB98896039BB83000
0001C83BA42444320000000000
00001AC449CCDDDB0000000000
0000004BD85333450000000000
000000001689AA981000000000
ENDCHAR
STARTCHAR A
ENCODING 65
SWIDTH 936 0
DWIDTH 22 0
BBX 22 20 0 0
BITMAP
0000000061514230000000
00000004F5B2D2C0000000
0000000A6B6885B3000000
0000002C0C3D3B59000000
0000007696895B2D000000
000000D2C1D3B588500000
000004977695C2D3B00000
00000A4C2D3B6895B20000
00001C4A773C2D3B580000
000077A4C2C6794C2D0000
0000C2C4A671D3A6895000
0004A7794C2094C2D3B000
000A4C2D3B003A6795C200
001C4A6797887C2D3B6800
007794C2D24447794C2D00
00C2D3B68CDDD8C4A67950
03A6795C333333A4C2D3B0
094C2D3B7AAAAA6A7794C2
1D3B68950000000C2C3A67
6795C3D0000000077A4C2D
ENDCHAR
STARTCHAR B
ENCODING 66
SWIDTH 862 0
DWIDTH 21 0
BBX 19 20 1 0
BITMAP
66666666666653000000
D777777777778AC50000
D2BBBBBBBBBBA72AA000
D3A22222222237D48800
D398DCCCCCCCDA2C3C20
D3985455555536C3B590
D3985D888888B886B2C0
D3985D0000001C67A3C0
D3985D5AAAAAC795C2B0
D3985D13333327B49760
D3985D7DDDDDEE2A4D10
D3985D36666644D3C680
D3985D4777779976B3C0
D3985D0000002C67A2D0
D3985D7DDDDDC4B4C2B0
D3985D2333335B959770
D3985D599999845C2D10
D3985D4888889C92C600
D3985D255555426D6000
D3985D7DDDDDDC820000
ENDCHAR
STARTCHAR C
ENCODING 67
SWIDTH 852 0
DWIDTH 20 0
BBX 20 22 0 -1
BITMAP
00000000013320000000
00000028CCA9ADB50000
000008C536887439B200
0001B73BC7557AD64C40
000C56C44ACCB729B2C3
00976A2C943227D65C38
02C3B3D47CBADA2A7630
095C3C4A810004C38000
0D3B5878000000350000
2A76B3D0000000000000
4994D3A0000000000000
58A3D490000000000000
3985C2B0000000000000
1C6895B2000000000000
0C3D3C4C100000770000
07796885C6214B93C100
00D2C3A927BB945D3B41
004B3C46DA768C93B769
0007A2B93466527D56C1
00006C45BDBBDC82AA10
000002AC7332249D5000
000000027ACCB9500000
ENDCHAR
STARTCHAR D
ENCODING 68
SWIDTH 886 0
DWIDTH 21 0
BBX 20 20 1 0
BITMAP
66666666666530000000
D77777777778AD700000
D2BBBBBBBBBA738C1000
D3A2222222236D74C100
D398DCCCCCCDA3A95A00
D398545555544C4B5A50
D3985D88888AB3D2D3C0
D3985D0000006977A4C2
D3985D0000000D2C5985
D3985D0000000A4D3A67
D3985D000000094D2B67
D3985D0000000B3D3A76
D3985D0000002D3A67A4
D3985D000001B5A4C2D0
D3985CDDDDDC56A5B590
D39873333334AA3D2C20
D3959999999844D4A700
D3C888888889CA3A9000
D1555555555426D70000
DDDDDDDDDDDDC7100000
ENDCHAR
STARTCHAR E
ENCODING 69
SWIDTH 706 0
DWIDTH 17 0
BBX 15 20 1 0
BITMAP
5143256666666660
D3985D7777777760
D3985DBBBBBBBBA0
D3985D2222222220
D3985DCCCCCCCCC0
D3985D0000000000
D3985D0000000000
D3985D0000000000
D3985DCCCC700000
D3985D2222100000
D3985DBBBB700000
D3985D7777400000
D3985D6666400000
D3985D0000000000
D3985D0000000000
D3985D3333333330
D3985D9999999990
D3985D8888888880
D3985D5555555550
D3985DDDDDDDDDC0
ENDCHAR
STARTCHAR F
ENCODING 70
SWIDTH 683 0
DWIDTH 16 0
BBX 15 20 1 0
BITMAP
5143256666666630
D3985D7777777730
D3985DBBBBBBBB50
D3985D2222222210
D3985DCCCCCCCC60
D3985D0000000000
D3985D0000000000
D3985D0000000000
D3985D0000000000
D3985DDDDDDDDD10
D3985D4444444400
D3985D8888888810
D3985D9999999910
D3985D4444444400
D3985D0000000000
D3985D0000000000
D3985D0000000000
D3985D0000000000
D3985D0000000000
D3985D0000000000
ENDCHAR
STARTCHAR G
ENCODING 71
SWIDTH 908 0
DWIDTH 22 0
BBX 21 22 0 -1
BITMAP
0000000001332000000000
00000028CCA9ADB5000000
000008C536887439B20000
0001B73BC7557AD64C4000
000C56C44ACCB729B2C300
00976A2C943227D65C3800
02C3B3D47CBADA2A763000
095C3C4A810004C3800000
0D3B587800000035000000
2A76B3D000000000000000
4994D3A000000002111020
58A3D4900000001B67B2C0
3984C3B00000001B67B2C0
2B67A4D10000001B67B2C0
0C3C4A5A0000001B67B2C0
086A4A67C52136BB67B2C0
01D2D3C828BBA75B67B2C0
006A4C37C9667AEB67B2C0
000993C82467634B67B2C0
00008C36BDBBCDBB67B2C0
000003BB6322348B67B2C0
000000037ACCB951000000
ENDCHAR
STARTCHAR H
ENCODING 72
SWIDTH 901 0
DWIDTH 22 0
BBX 20 20 1 0
BITMAP
51432500000002341523
D3985D000000067B2C58
D3985D000000067B2C58
D3985D000000067B2C58
D3985D000000067B2C58
D3985D000000067B2C58
D3985D000000067B2C58
D3985D000000067B2C58
D3985DCCCCCCCD7B2C58
D3985D222222277B2C58
D3985DBBBBBBBC7B2C58
D3985D7777777A7B2C58
D3985D6666666A7B2C58
D3985D000000067B2C58
D3985D000000067B2C58
D3985D000000067B2C58
D3985D000000067B2C58
D3985D000000067B2C58
D3985D000000067B2C58
D3985D000000067B2C58
ENDCHAR
STARTCHAR I
ENCODING 73
SWIDTH 338 0
DWIDTH 8 0
BBX 6 20 1 0
BITMAP
514325
D3985D
D3985D
D3985D
D3985D
D3985D
D3985D
D3985D
D3985D
D3985D
D3985D
D3985D
D3985D
D3985D
D3985D
D3985D
D3985D
D3985D
D3985D
D3985D
ENDCHAR
STARTCHAR J
ENCODING 74
SWIDTH 434 0
DWIDTH 10 0
BBX 10 21 0 -1
BITMAP
0003251432
00084D3A75
00084D3A75
00084D3A75
00084D3A75
00084D3A75
00084D3A75
00084D3A75
00084D3A75
00084D3A75
00084D3A75
00084D3A75
00084D3A75
00094D3A85
013C3C5893
5CA3B5A3D0
367C75A590
37636C3C20
5ABD83C400
12238C4000
6DCA500000
ENDCHAR
STARTCHAR K
ENCODING 75
SWIDTH 815 0
DWIDTH 20 0
BBX 18 20 1 0
BITMAP
514325000004251516
D3985D00001D3C4B59
D3985D00008695B3C2
D3985D0001C3C4A590
D3985D00086A4B3C10
D3985D001C3C4A6800
D3985D0095A4C3C100
D3985D02C3B4A68000
D3985D095A4C3D1000
D3985D2C3B59780000
D3985D697795A40000
D3985D0C2D2C4B0000
D3985D0687795B3000
D3985D00C2D2C3B000
D3985D00597795A400
D3985D000C2D2C3B00
D3985D000597786A40
D3985D0000C2D2C3C0
D3985D0000596886A4
D3985D00000C3D2D3C
ENDCHAR
STARTCHAR L
ENCODING 76
SWIDTH 604 0
DWIDTH 15 0
BBX 13 20 1 0
BITMAP
51432500000000
D3985D00000000
D3985D00000000
D3985D00000000
D3985D00000000
D3985D00000000
D3985D00000000
D3985D00000000
D3985D00000000
D3985D00000000
D3985D00000000
D3985D00000000
D3985D00000000
D3985D00000000
D3985D00000000
D3985D33333320
D3985D99999970
D3985D88888860
D3985D55555540
D3985DDDDDDDA0
ENDCHAR
STARTCHAR M
ENCODING 77
SWIDTH 920 0
DWIDTH 22 0
BBX 20 20 1 0
BITMAP
61516000000000060616
E88795000000004A697F
DD2D3C00000000C3C2DD
D697796000000596887D
D0C2D2D000000C2D2D0D
D369688700006877973D
D38C3D2D1001D2D3C84D
D394A69770077869584D
D393B3C3D11D2C3C384D
D3986B5A688696A6984D
D3985A4C3C52C3B4984D
D39854C4B5985B54984D
D3985995B4C44A94984D
D3985D2C3B5AC3D4984D
D3985D085A4B90D4984D
D3985D00000000D4984D
D3985D00000000D4984D
D3985D00000000D4984D
D3985D00000000D4984D
D3985D00000000D4984D
ENDCHAR
STARTCHAR N
ENCODING 78
SWIDTH 877 0
DWIDTH 21 0
BBX 19 20 1 0
BITMAP
61515151000005234250
EA69696900000D4894D0
DB4B4B4C30000D4894D0
D2C3C3C3C0000D4894D0
D187878786000D4894D0
D37C3C2D3D100D4894D0
D394B4A5A5A00D4894D0
D393A5A5B5B40D4894D0
D3985D2C3D3C0D4894D0
D398578787877A4894D0
D39855C3C3C3C44894D0
D3985C3C4B4B4B4894D0
D3985D09696A6A6794D0
D3985D01D2D2D3D294D0
D3985D005969697894D0
D3985D000B4B3C4C64D0
D3985D0002C3C3C3C0D0
D3985D000087879796D0
D3985D00001C2C2D3DD0
D3985D000004A5A5A6E0
ENDCHAR
STARTCHAR O
ENCODING 79
SWIDTH 933 0
DWIDTH 22 0
BBX 22 22 0 -1
BITMAP
0000000001332000000000
00000028CCA9BDA4000000
000008C53688743AB20000
0001B73BC7556AD63C4000
000C56C44ACCB728B2C300
00976A2C943337D65C2D10
02C3B3D47CBACA3A769680
095C3C4A810004D3C4C3D1
0D3B58780000003C3B5985
2A76B3D0000000085B2D48
4994D3A000000004994D3A
58A3D49000000003A85C2B
3985C2B000000005893D39
1C6895B20000000B3D3C67
0C3D3C4C100000796977A3
07796885C6214AA3C2D3C0
00D2C3A927BB945D3B5A50
004B3C46DA768C92A76A00
0007A2B93466526D55C100
00006C45BDBBCC839B1000
000002AC7333359D500000
000000027ACCB840000000
ENDCHAR
STARTCHAR P
ENCODING 80
SWIDTH 850 0
DWIDTH 20 0
BBX 19 20 1 0
BITMAP
66666666666641000000
D777777777779CA20000
D2BBBBBBBBBB944C4000
D3A22222222249B2C300
D398DCCCCCCDD65C3C00
D398545555553B786A40
D3985D888888C3D2C570
D3985D0000005894D390
D3985D00000077A3D490
D3985D4DDDDDB3D4A770
D3985D1333336D4B4C20
D3985D3AAAAA83A86A00
D3985D3888889D64D200
D3985D255555339D2000
D3985D4CCCCCDB600000
D3985D00000000000000
D3985D00000000000000
D3985D00000000000000
D3985D00000000000000
D3985D00000000000000
ENDCHAR
STARTCHAR Q
ENCODING 81
SWIDTH 937 0
DWIDTH 23 0
BBX 22 24 0 -3
BITMAP
0000000001332000000000
00000028CCA9BDA4000000
000008C53688743AB20000
0001B73BC7556AD63C4000
000C56C44ACCB728B2C300
00976A2C943337D65C2D10
02C3B3D47CBACA3A769680
095C3C4A810004D3C4C3D1
0D3B58780000003C3B5985
2A76B3D0000000085B2D48
4994D3A000000004994D3A
58A3D49000000013A85C2B
3985C2B000002685893D39
1C6895B20012C38B3D3C67
0C3D3C4C103C38796977A3
07796885C6265AA3C2D3C0
00D2C3A927BB945D3B5A50
004B3C46DA768C92A76A00
0007A2B93466526D55C100
00006C45BDBBCC839B6100
000002AC7333359D657800
000000027ACCB8473C3A00
0000000000000003C45000
0000000000000000610000
ENDCHAR
STARTCHAR R
ENCODING 82
SWIDTH 843 0
DWIDTH 20 0
BBX 19 20 1 0
BITMAP
66666666666641000000
D777777777778CA20000
D2BBBBBBBBBB944C4000
D3A22222222249B2C300
D398DCCCCCCDD65B3B00
D398545555553A786B30
D3985D888888D3D3B760
D3985D00000066B2C580
D3985D355555C4D2B760
D3985D48888747977A40
D3985D5AAAAAD93C3D00
D3985D13333326C3C500
D3985D7DDDDDC73C8000
D3985D2444446AF70000
D3985D488BCD9D780000
D3985D0002B76C3D0000
D3985D0000C3B77B3000
D3985D000076C3C68000
D3985D00003B76B3D000
D3985D00000D3B67A300
ENDCHAR
STARTCHAR S
ENCODING 83
SWIDTH 682 0
DWIDTH 16 0
BBX 16 22 0 -1
BITMAP
0000001332100000
00017CCA9ACC8200
002C825887525B91
01C48C85558BB467
0969839CDCA63A30
0D3B4D523237B000
3A76B3BBABC70000
4994D2B000000000
3A75B2CAA9730000
1D4A5B33346CB200
0A4B65BDDDB55D10
02D2BA64433A85A0
005D53788AC3B4C2
0002ADB9973C3A76
000000244A6B2D58
00001521196B3D48
000337ABB83D3A77
0025CA7669D3B4C3
02AA4357753A85A0
3C549DCBBCB55C10
019C8422225BA100
000159BCCB830000
ENDCHAR
STARTCHAR T
ENCODING 84
SWIDTH 591 0
DWIDTH 14 0
BBX 14 20 0 0
BITMAP
26666666666662
27777777777772
3BBBBBBBBBBBB4
12222222222221
3CCCFDEEDFCCC5
0000D3985D0000
0000D3985D0000
0000D3985D0000
0000D3985D0000
0000D3985D0000
0000D3985D0000
0000D3985D0000
0000D3985D0000
0000D3985D0000
0000D3985D0000
0000D3985D0000
0000D3985D0000
0000D3985D0000
0000D3985D0000
0000D3985D0000
ENDCHAR
STARTCHAR U
ENCODING 85
SWIDTH 905 0
DWIDTH 22 0
BBX 20 21 1 -1
BITMAP
52341500000002432514
C58A3D00000004984D3A
C58A3D00000004984D3A
C58A3D00000004984D3A
C58A3D00000004984D3A
C58A3D00000004984D3A
C58A3D00000004984D3A
C58A3D00000004984D3A
C58A3D00000004984D3A
C58A3D00000004984D3A
C58A3D00000004984D3A
C58A3D00000004994D3A
D3A85C100000077B3D49
C2C4A6A000002D3C4A76
77A5B58B4126D4A5A4C2
1D2D3C639BB72A85B5A0
0795C39D867AD55C2C20
00984D7257644AB3C400
0009A37CDBCDA44C5000
00005D9522237CB20000
00000049BCCA72000000
ENDCHAR
STARTCHAR V
ENCODING 86
SWIDTH 940 0
DWIDTH 23 0
BBX 22 20 0 0
BITMAP
3341515000000002433415
3B6895B2000000095B2D3C
0C2D3B580000001D3B5986
06795C2D0000006885B3D1
01D3A689500000B3D2C590
0094C2D3B00002B5886B30
003A6795C200085B3D2C00
000C2D3B68000D3B598600
0007794C2D005886B3D100
0001C4A67950B3D2C49000
0000A4C2D3B2C5976A3000
00004A7794986B3D2C0000
00000C2C4A1D2C49760000
0000077A4C5986A3D10000
000001C4A2B3D2C4A00000
000000A4C3C5976A400000
00000049586A3C2C000000
0000000D1D2C4977000000
00000007B976A4C1000000
00000002F3D2C4A0000000
ENDCHAR
STARTCHAR W
ENCODING 87
SWIDTH 1161 0
DWIDTH 28 0
BBX 28 20 0 0
BITMAP
3241514000243251600005152332
4985C2C00076B2D4F2000D3A76B2
1D4985C100B2C498C6004A76B2D0
0B2D498501D4985C4B0086B2C490
076B2D4904985C2F3D10C2C49850
03A76B2D085C2C4E7941C4985C10
00D3A76B2C2C5887B595985C2C00
00A3D3A76C5894C3D2D95C2C5800
0067A3D37894C2F885BE2C589400
002B67A394C2B59C497C5894D100
000D2B67D2B6895C2D6894D2B000
000A4C27B67A4D886AC4D2B67000
000689477A3D3CD4A6E2B67A3000
0002C57A3D3B67C2D3B67A3D0000
0000C28D3A67A386AA7A3D3B0000
0000955A76A3D03A6F3D3A770000
00005976B3D3A00D2E3A76B30000
00001CB3D3A760097A76B3D00000
00000CD3976B2005E6B2D4A00000
000008975B2D0001F2C498600000
ENDCHAR
STARTCHAR X
ENCODING 88
SWIDTH 876 0
DWIDTH 21 0
BBX 21 20 0 0
BITMAP
3333333300000606060600
2D2C3C3C10006969696900
078787878001D2D2D2C100
00C3C3C3C30A5A5A5A5000
003C3C3C3B4B4A4A5A0000
0008786874D3C2C2C20000
0001D2C2A8787878600000
00005B4A3C3C3C3C000000
00000A55C3C3C3C3000000
000002B787878780000000
0000003D3C2C3C50000000
000000A5B4A4B496000000
000005A5A5A5A92D100000
00001D2D2D2D45A5900000
000096969696A4B4B40000
0003C4B3B4B83C2C3C0000
000C3C3C3C278787878000
007878787800C3C3C3C300
02C3C3C3C0003C3C3C3C00
0B4B4B4B40000879696960
ENDCHAR
STARTCHAR Y
ENCODING 89
SWIDTH 789 0
DWIDTH 19 0
BBX 19 20 0 0
BITMAP
32514320000032515230
3A76B3B00000B3B76B20
0A3C58940004894C4900
03985C3B000B3B67A200
00B3C589403985C3A000
004985C3B0A3C58A3000
000B3B5795A75B3B0000
0005894C2A3C48940000
0000C3B67A76B3B00000
000057A494C498400000
00000C38B67A3C000000
000006694C3A75000000
000000CB57A3C0000000
00000086B3C670000000
00000075C2B660000000
00000075C2B660000000
00000075C2B660000000
00000075C2B660000000
00000075C2B660000000
00000075C2B660000000
ENDCHAR
STARTCHAR Z
ENCODING 90
SWIDTH 854 0
DWIDTH 21 0
BBX 20 20 0 0
BITMAP
06666666666666666663
077777777777777778F6
1BBBBBBBBBBBBBA26C42
022222222222222B93B6
1CCCCCCCCCCB35C46C42
055555555401A93B93B6
18888888725C46C46C42
000000001AA3B93B93B5
00000005C56C46C47C30
000001AA3A93B93B8100
00005C55C46C46C30000
001AA3A93B93B9100000
05C55C56D46C40000000
1A3AA3B93B9100000000
05C56D56C42BDDDDDDD7
1A3AA3B9233333333332
05D56C41899999999995
1A3B9388888888888884
06C40455555555555552
1FDDDDDDDDDDDDDDDDD7
ENDCHAR
STARTCHAR bracketleft
ENCODING 91
SWIDTH 320 0
DWIDTH 8 0
BBX 6 23 1 -2
BITMAP
344444
D99999
D28888
D3B444
D3A7DD
D3A850
D3A850
D3A850
D3A850
D3A850
D3A850
D3A850
D3A850
D3A850
D3A850
D3A850
D3A850
D3A850
D3A8A8
D3A255
D3ECCC
D22222
9AAAAA
ENDCHAR
STARTCHAR backslash
ENCODING 92
SWIDTH 448 0
DWIDTH 11 0
BBX 11 23 0 -3
BITMAP
324150000000
4985B2000000
1C4985000000
0C2C49000000
085C2D000000
04985B200000
01C498500000
00C2C4900000
0085C2D00000
004985B20000
001D49850000
000C2D490000
00085C2D0000
0004985B2000
0001D4985000
0000B2D49000
000085B2D000
00004985B200
00001D498500
00000B2D4900
0000085B2D00
000004985B20
000000312310
ENDCHAR
STARTCHAR bracketright
ENCODING 93
SWIDTH 319 0
DWIDTH 8 0
BBX 7 23 0 -2
BITMAP
14444420
39999A90
38888490
1444D490
4DD3D490
0093D490
0093D490
0093D490
0093D490
0093D490
0093D490
0093D490
0093D490
0093D490
0093D490
0093D490
0093D490
0093D490
28C3D490
1551D490
4CCCD490
12222690
3AAAAA60
ENDCHAR
STARTCHAR asciicircum
ENCODING 94
SWIDTH 475 0
DWIDTH 11 0
BBX 11 10 0 7
BITMAP
0000B6930000
0003CC490000
00095B3D1000
000D36986000
005885D2C000
00B3D086B300
02B5802C5900
085B300B3D10
0D3C00058860
142300005240
ENDCHAR
STARTCHAR underscore
ENCODING 95
SWIDTH 511 0
DWIDTH 12 0
BBX 11 5 1 -5
BITMAP
CDDDDDDDDD20
455555555510
788888888810
999999999920
333333333310
ENDCHAR
STARTCHAR grave
ENCODING 96
SWIDTH 472 0
DWIDTH 11 0
BBX 11 6 0 17
BITMAP
007500000000
0539C5000000
18D729C60000
0017D728C600
000017D82820
00000016A000
ENDCHAR
STARTCHAR a
ENCODING 97
SWIDTH 832 0
DWIDTH 20 0
BBX 19 19 0 -1
BITMAP
00000001455300000000
000005CB978AD9200000
0001C9259A9734C80000
001D56D85346BB399000
00C59A39CDCB63C4A600
0596A4C524429B3D2C10
0C2D2C2AC9AD66A58760
1B5895A70001B5B3D3B0
4895D2C000003B67B2C0
58A3D49000000D4894D0
4894D3A000000D4984D0
2B67A4C200000D4984D0
0D3C4B3C74475D4984D0
078777B358851D4984D0
00C3A74BB9AC5D4984D0
002D48C633343D4984D0
0002C827ACB92D4984D0
000007CA76695D4984D0
00000003566400000000
ENDCHAR
STARTCHAR b
ENCODING 98
SWIDTH 720 0
DWIDTH 17 0
BBX 16 17 1 0
BITMAP
CDDDDDDDDDCA4000
D13333333322A900
D3DAAAAAAABD5880
D39477777773C3C1
D3988555557C4A75
D3985000000C2B66
D3986AAAAAC96894
D39852222225C0D1
D3986DDDDDEF3890
D39855555544D1C1
D398688888AA6894
D3985000000C2B66
D3985555556C4A75
D39868888873C3C2
D398699999AD57A0
D398533333329B10
D3983DDDDDDB6000
ENDCHAR
STARTCHAR c
ENCODING 99
SWIDTH 736 0
DWIDTH 18 0
BBX 17 19 0 -1
BITMAP
000000159AA8500000
000018D843359D7000
0002C639DDDC838C10
002D39C424426C75C0
00C4A83BB89CB3A810
069795C369954C3200
0C2D3C2C8449B21000
2C5895B50000300000
4984C3C00000000000
58A3D4900000000000
4994C3B00000000000
2B6794C40000200000
0C2C3C3D6228C20000
078876B28BB73C4100
00C3C65C967AC48800
003C3BA346633B93C0
0004D45BDBBDA46C20
00002AB632237C9100
00000027BCCA710000
ENDCHAR
STARTCHAR d
ENCODING 100
SWIDTH 833 0
DWIDTH 20 0
BBX 19 17 1 0
BITMAP
CDDDDDDDDDCA61000000
D133333333237D500000
D3DAAAAAAABD82B80000
D394888887636D3A6000
D3988555556BA3D3C200
D3985ACCCCA47A4A5900
D3985D00003C4A4C2D00
D3985D000002C4985B20
D3985D000000D2B77A30
D3985D000001C4985B20
D3985D00001B595C2D00
D3985CDDDDC55B3B4900
D39873333349B2C3C300
D395999999854C588000
D3C88888889CA39A0000
D155555555325C800000
DDDDDDDDDDCC82000000
ENDCHAR
STARTCHAR e
ENCODING 101
SWIDTH 666 0
DWIDTH 16 0
BBX 15 17 1 0
BITMAP
B3874BDDDDDDDD10
D3985D3333333300
D3985DAAAAAAAA10
D3985D8888888810
D3985D5555555500
D3985D0000000000
D3985D8888888500
D3985D4444444300
D3985DDDDDDDD800
D3985D3333333200
D3985DAAAAAAA600
D3985D0000000000
D3985D3333333300
D3985D9999999910
D3985D8888888810
D3985D5555555500
D3985DDDDDDDDD10
ENDCHAR
STARTCHAR f
ENCODING 102
SWIDTH 625 0
DWIDTH 15 0
BBX 14 17 1 0
BITMAP
B3874BDDDDDDD3
D3985D33333331
D3985DAAAAAAA2
D3985D88888882
D3985D55555551
D3985D00000000
D3985D11111110
D3985DCCCCCC70
D3985D66666640
D3985D77777740
D3985DBBBBBB70
D3985D22222210
D3985D00000000
D3985D00000000
D3985D00000000
D3985D00000000
D3985D00000000
ENDCHAR
STARTCHAR g
ENCODING 103
SWIDTH 827 0
DWIDTH 20 0
BBX 19 19 0 -1
BITMAP
000000159AA850000000
000018D843359D700000
0002C639DDDC838C1000
002D39C424426C75C000
00C4A83BB89CB3A81000
069795C369954C320000
0C2D3C2C8449B2100000
2C5895B5000030000000
4984C3C0000000000000
58A3D490000007346270
4994C3B000000C58A3D0
2B6794C400000C58A3D0
0C2C3C3D6225CC58A3D0
078876B28BB84C58A3D0
00C3C65C9679DC58A3D0
003C3BA346643C58A3D0
0004D45BDBBDBC58A3D0
00002AB632237C58A3D0
00000027BCCA72000000
ENDCHAR
STARTCHAR h
ENCODING 104
SWIDTH 830 0
DWIDTH 20 0
BBX 18 17 1 0
BITMAP
B3874B000001A5692B
D3985D000001C67B2C
D3985D000001C67B2C
D3985D000001C67B2C
D3985D000001C67B2C
D3985D000001C67B2C
D3985DDDDDDDC67B2C
D3985D444445C67B2C
D3985D888889C67B2C
D3985D999999C67B2C
D3985D444445C67B2C
D3985D000001C67B2C
D3985D000001C67B2C
D3985D000001C67B2C
D3985D000001C67B2C
D3985D000001C67B2C
D3985D000001C67B2C
ENDCHAR
STARTCHAR i
ENCODING 105
SWIDTH 337 0
DWIDTH 8 0
BBX 6 17 1 0
BITMAP
B3874B
D3985D
D3985D
D3985D
D3985D
D3985D
D3985D
D3985D
D3985D
D3985D
D3985D
D3985D
D3985D
D3985D
D3985D
D3985D
D3985D
ENDCHAR
STARTCHAR j
ENCODING 106
SWIDTH 393 0
DWIDTH 9 0
BBX 9 20 0 -3
BITMAP
0074B29650
0085C2B760
0085C2B760
0085C2B760
0085C2B760
0085C2B760
0085C2B760
0085C2B760
0085C2B760
0085C2B760
0085C2B760
0085C2B760
00A3D39850
3AA4A67A30
344D3C2D00
5DB3A68600
126C65B000
5B728B1000
269D700000
3640000000
ENDCHAR
STARTCHAR k
ENCODING 107
SWIDTH 801 0
DWIDTH 19 0
BBX 18 17 1 0
BITMAP
B3874B00001B2A3958
D3985D000086A4B3C2
D3985D0002C3B59680
D3985D000A4B3C2C10
D3985D003B59688600
D3985D00B3C2C3C000
D3985D0596886A4000
D3985D0C3C3C3B0000
D3985D597786A40000
D3985D1C3C3B590000
D3985D07786A4B3000
D3985D00C2C3C4B000
D3985D00597786A400
D3985D000C3C3C3C00
D3985D0003B5977950
D3985D0000A4C3C2C0
D3985D00002C4B5977
ENDCHAR
STARTCHAR l
ENCODING 108
SWIDTH 583 0
DWIDTH 14 0
BBX 13 17 1 0
BITMAP
B3874B00000000
D3985D00000000
D3985D00000000
D3985D00000000
D3985D00000000
D3985D00000000
D3985D00000000
D3985D00000000
D3985D00000000
D3985D00000000
D3985D00000000
D3985D00000000
D3985D33333310
D3985D99999920
D3985D88888820
D3985D55555510
D3985DDDDDDD30
ENDCHAR
STARTCHAR m
ENCODING 109
SWIDTH 1167 0
DWIDTH 28 0
BBX 27 18 0 0
BITMAP
00000169AA96100169AA96100000
00019C743359E88C742348C91000
002C63ADDDD949E49CDDD937C100
00C48B435434C78E524534B85C00
069794DB89BC3A5CDB88BC396950
0B2D2C379963C2C5B69963C2D3B0
0D4985B6338976B3F7337A57A3D0
1C57A3D0000D4894D0000D3985D0
1C57A3D0000D4894D0000D3A85C0
1C57A3D0000D4894D0000D3A85C0
1C57A3D0000D4894D0000D3A85C0
1C57A3D0000D4894D0000D3A85C0
1C57A3D0000D4894D0000D3A85C0
1C57A3D0000D4894D0000D3A85C0
1C57A3D0000D4894D0000D3A85C0
1C57A3D0000D4894D0000D3A85C0
1C57A3D0000D4894D0000D3A85C0
1C57A3D0000D4894D0000D3A85C0
ENDCHAR
STARTCHAR n
ENCODING 110
SWIDTH 787 0
DWIDTH 19 0
BBX 17 17 1 0
BITMAP
C5949494000065A2A0
DC3C3C3C000076B2C0
D8787979600076B2C0
D1D2D2D2D10076B2C0
D3896969680076B2C0
D39C3C3C3C2076B2C0
D393B4B4B4B076B2C0
D395A5A5A5B476B2C0
D3985D2D2D3C66B2C0
D3985788787885B2C0
D39850D2D2D2D1B2C0
D398505A5A6A69B2C0
D398500B4B3C4C72C0
D3985003C3C3C4B1C0
D39850009696A6A6C0
D39850001D2D2D3DC0
D398500006878788C0
ENDCHAR
STARTCHAR o
ENCODING 111
SWIDTH 833 0
DWIDTH 20 0
BBX 20 19 0 -1
BITMAP
000000159AA851000000
000018D843359D700000
0002C639DDDC828C1000
002D39C424425C74C100
00C4A83BB88BB2985A00
069795C369954C3B4B30
0C2D3C2C845AB3C3C4A0
2C5895B500007976A3D0
4984C3C000000D3A76B1
58A3D49000000B2C57A3
4994C3B000000D2B66B2
2B6794C400006A67A3D0
0C2C3C3D6238C3C2C3A0
078876B28BB73C496A40
00C3C65C966AC48A4B00
003C3BA346633B93C100
0004D45BDBBDA46C2000
00002AB632237C910000
00000027BCCA72000000
ENDCHAR
STARTCHAR p
ENCODING 112
SWIDTH 781 0
DWIDTH 19 0
BBX 17 17 1 0
BITMAP
CDDDDDDDDDDB610000
D133333333337D5000
D3DAAAAAAAAD93C500
D394888888735C3D10
D3988555556B85B680
D3985ACCCCB4A5C2C0
D3985D00002D5894D0
D3985D3AAABA77A3D0
D3985D133335D2D3B0
D3985D5DDDC92B5A50
D3985D144447C66C00
D3985D39998639C100
D3985D39999BD71000
D3985D144442000000
D3985D000000000000
D3985D000000000000
D3985D000000000000
ENDCHAR
STARTCHAR q
ENCODING 113
SWIDTH 788 0
DWIDTH 19 0
BBX 18 20 0 -3
BITMAP
0000049CDDDDDDDDDA
0002CA43333333331C
003D47DBAAAAAAAE2C
01D3B9367888883B2C
096976C75555596B2C
0D3B4B3ACCCC966B2C
3A85C3C41002B66B2C
58A3D4900002B66B2C
5894D3A00002B66B2C
2B67A4B86664B66B2C
0D2C3C457774B66B2C
0796A3BDBBB6B66B2C
00C66C522223B66B2C
001C838BCCC7B66B2C
00018D965554B66B2C
000001477885B66B2C
000000000002B66B2C
000000000002B66B2C
000000000002B66B2C
000000000001633616
ENDCHAR
STARTCHAR r
ENCODING 114
SWIDTH 831 0
DWIDTH 20 0
BBX 19 17 1 0
BITMAP
CDDDDDDDDDDDC8200000
D1333333333335C80000
D3DAAAAAAAAACB389000
D3948888888753C4A500
D398855555559B2D3C00
D3985ACCCCCC76885C10
D3985D000001D2B67A20
D3985D6BBBBCC4A76C10
D3985D1222224C3C3D00
D3985D6CCCCB93978800
D3985D3666667C74D100
D3985D477777538D2000
D3985D5AAAABCDD10000
D3985D122D5B96C20000
D3985D00076C4C680000
D3985D0002C67B3D0000
D3985D0000B3C5995000
ENDCHAR
STARTCHAR s
ENCODING 115
SWIDTH 683 0
DWIDTH 16 0
BBX 16 19 0 -1
BITMAP
0000002443200000
0003ADA989BD9300
007C447998634BA1
06A3CA64447AC557
0D2C37CDDDB73930
3A76A7100026A000
4984C10000000000
2B595C9988630000
0C3B8234456AD500
03D36BDDDDB72B60
003CA6433227C2C2
0000379AAAC84A67
00000000000B3D49
00067200003D2C49
00936BDCDDB49795
274BB642236C84C0
08C5369AA9627C20
0029DB8778BD7100
0000024665200000
ENDCHAR
STARTCHAR t
ENCODING 116
SWIDTH 588 0
DWIDTH 14 0
BBX 14 17 0 0
BITMAP
4DDDDDDDDDDDD5
13333333333331
3AAAAAAAAAAAA4
28888888888883
25558677685552
0000D4984D0000
0000D4984D0000
0000D4984D0000
0000D4984D0000
0000D4984D0000
0000D4984D0000
0000D4984D0000
0000D4984D0000
0000D4984D0000
0000D4984D0000
0000D4984D0000
0000D4984D0000
ENDCHAR
STARTCHAR u
ENCODING 117
SWIDTH 795 0
DWIDTH 19 0
BBX 18 18 1 -1
BITMAP
B5792B00000B2965A1
C58A3D00000C2B76C1
C58A3D00000C2B76C1
C58A3D00000C2B76C1
C58A3D00000C2B76C1
C58A3D00000C2B76C1
C58A3D00000C2B76C1
C58A3D00000C2B76C1
C58A3D00000C2B76C1
C58A3D00000D2A76C1
C3985C20002C4994C0
B2D3B4C424C4B4C2C0
67969929B938959670
1C3C48C867C84C2C10
04C3C8357537C3B500
006C37CCBCC73C6000
0003CA42224AC40000
0000049BCB94000000
ENDCHAR
STARTCHAR v
ENCODING 118
SWIDTH 855 0
DWIDTH 21 0
BBX 20 17 0 0
BITMAP
5784A2B0000005784A2B
1D3A689500000B3D2B59
0A4C2D3B00002B5886B3
04A6794C200085B3D2C0
00C2C3A68000D3B59860
0077A4C2D005886B3D10
001C4A67940B3D2C5900
000A4C2C3A2B5986B300
0004A7794986B3D2C000
0000C2C3A1D2C4976000
000077A4C5986A3D1000
00001C492B3D2C490000
00000A4C2C5976A40000
0000049586A3D2C00000
000000D1D2C497700000
0000007B976A4C100000
0000002F3D2C4A000000
ENDCHAR
STARTCHAR w
ENCODING 119
SWIDTH 1129 0
DWIDTH 27 0
BBX 26 18 1 -1
BITMAP
B5792B00066A2A56000B2965A1
C58A3D00066B2C57000C2B76B1
C58A3D00066B2C57000C2B76B1
C58A3D00066B2C57000C2B76B1
C58A3D00066B2C57000C2B76B1
C58A3D00066B2C57000C2B76B1
C58A3D00066B2C57000C2B76B1
C58A3D00066B2C57000C2B76B1
C58A3D00066B2C57000C2B76B1
C58A3D00066B2C57000C2B76B1
C58A3D00076C2B68000D3A76C1
D3A779A67C2D3A8E769A6894D0
A3C2D54653B695D55644D3C3B0
4A5B39DCCC55B5CCCCDA3A5A50
0A66D72224BA4EC52227D66B00
01B937ACB947F938BCA729C100
0006DA7679EA39D9667AD70000
00000367751000157763000000
ENDCHAR
STARTCHAR x
ENCODING 120
SWIDTH 790 0
DWIDTH 19 0
BBX 19 17 0 0
BITMAP
4A2B2B2C101C2C2B2B30
0A59788790A697786900
01D2D2C3B5B3C3D2D100
006A5B3C1D2C3B4A5000
000B4A669778695B0000
0002D2D4C3D2D2D20000
0000782C3B4A59700000
00000A786A5B4C000000
000002D2D2D2C3000000
00000B4A597889000000
00006A5B4C3D2A500000
0001D2D2C3C5D2D10000
000A597887A579690000
005B4C3C2D2D3C3B4000
01D2C3C4B7A4B3C3D100
09788695B0B5A6977800
3C3D2D2D202D2D2D3C30
ENDCHAR
STARTCHAR y
ENCODING 121
SWIDTH 733 0
DWIDTH 18 0
BBX 18 17 0 0
BITMAP
5693A470000A3965A1
0C4A86B2005894C490
066A3C4A00B3B66B20
00C3A77A44994C4A00
0067A4C39B3B57A300
000C3B684985C3A000
00067949A3C5893000
0000C2C3A76B3B0000
0000677A4C49940000
00000C2B66B3B00000
000006E4C498500000
000000D4994D000000
000000D4894D000000
000000D4894D000000
000000D4894D000000
000000D4894D000000
000000D4894D000000
ENDCHAR
STARTCHAR z
ENCODING 122
SWIDTH 714 0
DWIDTH 17 0
BBX 17 17 0 0
BITMAP
0DDDDDDDD4B2B1B230
033333331B59687750
0AAAAAAA7B4C3C2B00
07777774D2C3B4B300
055555597786959000
0000003C3D2D2C1000
000000C3B4A6950000
00000796A4B3B00000
00002D2D2D3C200000
0000B5968878000000
0005B4C3C2C1000000
001D2C3B4B40000000
0097786A5A33333310
03C2D2D2D399999920
0C4B5A697788888820
595A4B3C1555555510
42D2D3C4CDDDDDDD30
ENDCHAR
STARTCHAR braceleft
ENCODING 123
SWIDTH 396 0
DWIDTH 10 0
BBX 9 27 0 -6
BITMAP
0000002440
00005CB980
0007B26880
002C3D7440
0094C49DB0
00C2C59000
00D3A75000
00D3A85000
00D3A85000
00D3A85000
00D3A85000
1373884000
39BC3A2000
3853C40000
158B2C0000
4D686B2000
01D4985000
00D3A85000
00D3A85000
00D3A85000
00D3A75000
00B2C4B320
0086A66A90
002C2BA760
0004C43550
00003ADCA0
0000000110
ENDCHAR
STARTCHAR bar
ENCODING 124
SWIDTH 266 0
DWIDTH 6 0
BBX 5 23 1 -3
BITMAP
514320
D3A850
D3A850
D3A850
D3A850
D3A850
D3A850
D3A850
D3A850
D3A850
D3A850
D3A850
D3A850
D3A850
D3A850
D3A850
D3A850
D3A850
D3A850
D3A850
D3A850
D3A850
725430
ENDCHAR
STARTCHAR braceright
ENCODING 125
SWIDTH 396 0
DWIDTH 10 0
BBX 9 27 0 -6
BITMAP
1431000000
399CA10000
39845C1000
145B94A000
4DC4A5B200
002C4A8500
000C2B6600
000C2B6600
000C2B6600
000C2B6600
000B2C5920
00094B3890
0003B3C970
00028B2450
000946CDB0
000B2C4400
000C2B6600
000C2B6600
000C2B6600
000C2B6600
000C2B7600
125C498400
4A92C4C100
278D669000
26528B0000
4CCC700000
0100000000
ENDCHAR
STARTCHAR asciitilde
ENCODING 126
SWIDTH 665 0
DWIDTH 16 0
BBX 16 5 0 13
BITMAP
0049ABBBBBA04572
05C422222221A4C1
0C1ADCCCCCCC72C0
1C59055555557C40
1533078888876100
ENDCHAR
STARTCHAR uni00A0
ENCODING 160
SWIDTH 108 0
DWIDTH 3 0
BBX 1 1 0 0
BITMAP
00
ENDCHAR
STARTCHAR exclamdown
ENCODING 161
SWIDTH 336 0
DWIDTH 8 0
BBX 6 21 1 -1
BITMAP
514325
D3A85C
D3A85C
D3A85C
D3A85C
D3A85C
D3A85C
D3A85C
D3A85C
D3A85C
D3A85C
D3A85C
D3A85C
D3A85C
C3975C
000000
566666
677777
9AAAAA
222222
BDDDDD
ENDCHAR
STARTCHAR cent
ENCODING 162
SWIDTH 708 0
DWIDTH 17 0
BBX 17 25 0 -3
BITMAP
000000044070000000
0000000660D0000000
0000000660D0000000
000000146854000000
00002AC85569D70000
0004C549CDB737C300
004C2BA42226C83D30
01D2C55CBACB38B310
086968A26743C54000
0D2C4B3D869C340000
2B67A3D20004300000
4994D3A00000000000
4994D3A00000000000
2A76B3D20003100000
0D3B5A4D647D330000
086A59938972B72000
01D2C47D98AC55C200
005B3C834434AA3C30
0006C36BDDDA45D400
00003CA63347CA1000
000000379A86100000
0000000660D0000000
0000000660D0000000
0000000660D0000000
000000000010000000
ENDCHAR
STARTCHAR sterling
ENCODING 163
SWIDTH 689 0
DWIDTH 17 0
BBX 15 21 1 0
BITMAP
0000013331000000
0005BDA9ABDA4000
00AA34787634AB20
0A65D95457AC7390
5A5B28CDCA738700
B3D2D623236B2000
D39778CAACA00000
C58A3D0000000000
C58A3D0000000000
C58A3D4666664000
C58A3D4777774000
C58A3D7AAAAA6000
C58A3D1222221000
C58A3D8DDDDD8000
C58A3D0000000000
C58A3D0000000000
C58A3D3333332000
C58A3E9999996000
C58A3E8888885000
C58A3D5555553000
C58A3EDDDDDD8000
ENDCHAR
STARTCHAR currency
ENCODING 164
SWIDTH 715 0
DWIDTH 17 0
BBX 17 20 0 -1
BITMAP
000000000000010000
0017800000005A1000
01C3B5000003C2C100
3C3C2D22321C3B5950
089598DBABD9786A00
00B5C8268736C4C100
001B67C756B94C2000
003B5B000009785000
0085B2000001D3A000
00A3D0000000B2C000
00A2D0000000A3D000
0094D1000000D2B000
005887000005B68000
000C3C71005C3C2000
0087C38CDC92B7A000
05C38C95448D859700
2D3C385898592D3C40
13B688000005B3C220
0045B0000000883000
000210000000030000
ENDCHAR
STARTCHAR yen
ENCODING 165
SWIDTH 796 0
DWIDTH 19 0
BBX 19 20 0 0
BITMAP
23415230000023415230
1B67A3C00000B3C58A30
094C4A850003A85C3B00
02B66B3C000A3C589400
00A4C498502A76B3B000
003A76B3C094C4984000
000A3C4985B67B3C0000
0003985B394C4A850000
0000B3C57B57A3C00000
0000498585C3A7600000
00000B38C5894C000000
000005876B3B67000000
000000CC4984C1000000
00000078A3D480000000
003DDD87B2C59DDD4000
00133367B2C583331000
00299977B2C589993000
00000067B2C580000000
00000067B2C580000000
00000067B2C580000000
ENDCHAR
STARTCHAR brokenbar
ENCODING 166
SWIDTH 263 0
DWIDTH 6 0
BBX 5 23 1 -3
BITMAP
524320
D49840
D49840
D49840
D49840
D49840
D49840
D49840
D49840
B38740
000000
000000
000000
A37630
D49840
D49840
D49840
D49840
D49840
D49840
D49840
D49840
725520
ENDCHAR
STARTCHAR section
ENCODING 167
SWIDTH 108 0
DWIDTH 3 0
BBX 1 1 0 0
BITMAP
00
ENDCHAR
STARTCHAR dieresis
ENCODING 168
SWIDTH 556 0
DWIDTH 13 0
BBX 12 4 1 17
BITMAP
423310041422
C58A300C2B76
C58A300C2B76
312310031322
ENDCHAR
STARTCHAR copyright
ENCODING 169
SWIDTH 869 0
DWIDTH 21 0
BBX 21 21 0 0
BITMAP
0000000012320000000000
0000006BFFEFFB50000000
00003DE8300138EC200000
0005E9100000001AE30000
003E70039DEDA4009E2000
00DA007FB646AF900BB000
06E107F6000003E503F400
0B902F700000001000B900
1F408E0000000000006E00
3F20BA0000000000004F10
4F10C80000000000003F20
2F20BA0000000000004F10
1F507E0000000000007D00
0B901E800000002000B900
05F206F7000005E503F300
00CB006ED867CF700CA000
002E80017BDC8200AD1000
0004EA200000002BD30000
00002BE942125AFA100000
0000004AEFFFE930000000
0000000001210000000000
ENDCHAR
STARTCHAR ordfeminine
ENCODING 170
SWIDTH 833 0
DWIDTH 20 0
BBX 20 19 0 -1
BITMAP
00000001455300000000
000004BC9789CA300000
0001AB348A9733B90000
001C75C95335AC38B000
00A77C38CDCC63C58900
03B4C3C624427C2C3C20
0A4C3C39D9AD84B3B580
0D3A77890000A794C2C0
2B67B3D000001D4994C0
3A85C2B000000D2B76B1
2B76B2C000000C2B66B2
0D4986B400000C2B66B2
0B3C3C3C84466C2B66B2
05A595C458862C2B66B2
00B5893BCAAC6C2B66B2
001C56C733344C2B66B2
0001B926ABB93C2B66B2
000006CB76687C2B66B2
00000002566410000000
ENDCHAR
STARTCHAR guillemotleft
ENCODING 171
SWIDTH 911 0
DWIDTH 22 0
BBX 21 12 0 3
BITMAP
0000000017200000000380
0000004AC710000016CB50
00017CA44A300039D825A0
04AC627CA4016CB539D830
1934AC726C34726CB538B0
07CA44AC71029D835BB500
1727CA661003539D855000
1AC75627CA13CB56539D80
1BC627D94413CA439D8250
0028D934AC20039D726CA0
000004AC621000016CA520
000000027D2000000039C0
ENDCHAR
STARTCHAR logicalnot
ENCODING 172
SWIDTH 718 0
DWIDTH 17 0
BBX 16 8 1 5
BITMAP
AAAAAAAAAAA83562
33333333333C58A3
CDDDDDDDDDDC58A3
44444444444C58A3
88888888889C58A3
00000000000C58A3
00000000000C58A3
00000000000C5793
ENDCHAR
STARTCHAR registered
ENCODING 174
SWIDTH 869 0
DWIDTH 21 0
BBX 21 21 0 0
BITMAP
0000000012320000000000
0000006BFFEFFB50000000
00003DE8300138EC200000
0005E9100000001AE30000
003E7000000000009E2000
00DA005CCCCCA4000BB000
06E1006F7777AF5003F400
0B90006F000009D000B900
1F40006F000006F0006E00
3F20006F00001BB0004F10
4F10006FCCCCED20003F20
2F20006F877EA100004F10
1F50006F0008E100007D00
0B90006F0002F60000B900
05F2006F00009D0003F300
00CB006E00002E500CA000
002E800000000000AD1000
0004EA200000002BD30000
00002BE942125AFA100000
0000004AEFFFE930000000
0000000001210000000000
ENDCHAR
STARTCHAR degree
ENCODING 176
SWIDTH 330 0
DWIDTH 8 0
BBX 8 7 0 18
BITMAP
006AA600
08677780
1AA449A0
28B00A91
0B6AA6B0
04A55A30
00155100
ENDCHAR
STARTCHAR plusminus
ENCODING 177
SWIDTH 598 0
DWIDTH 14 0
BBX 14 16 0 0
BITMAP
00002131221000
0000A3D4894000
0000A3D4894000
0000A3D4894000
2CCCE3D489DCC6
0222B3D4896221
1BBBD3D489CBB5
1777C3D4899773
1666C3D4898663
0000A3D4894000
0000A3D4894000
000082A3673000
02555555555550
02777777777770
03AAAAAAAAAA90
01333333333320
ENDCHAR
STARTCHAR uni00B2
ENCODING 178
SWIDTH 435 0
DWIDTH 10 0
BBX 10 16 0 4
BITMAP
0014554100
0AB9878C90
0279AB9398
0474324D3C
0000001D4A
00000096B3
000005A690
00002C4C10
0000B4C300
0008796000
004A6A0000
02C3C10000
0849300000
3BBBBBBBB1
1222222220
4CCCCCCCC1
ENDCHAR
STARTCHAR uni00B3
ENCODING 179
SWIDTH 515 0
DWIDTH 12 0
BBX 12 17 0 3
BITMAP
003455300000
4DA8779D7000
0479AA728A00
0853336C5950
07CCCDB3D2B0
0100006894C0
00012234A3D0
0008BBBD9390
000577535C30
0005667BA2C1
0009BBA56A67
0001112B3D3A
0275545C2D39
015788739885
08CAA9AD73C0
043334228C20
09BDDDCB6000
ENDCHAR
STARTCHAR acute
ENCODING 180
SWIDTH 472 0
DWIDTH 11 0
BBX 10 6 1 17
BITMAP
0000003810
00003AC442
003AB44CA2
3BB45CA200
835C920000
0792000000
ENDCHAR
STARTCHAR uni00B5
ENCODING 181
SWIDTH 802 0
DWIDTH 19 0
BBX 18 20 1 -3
BITMAP
B2975B0000083B3874
D3A85C0000093D4984
D3A85C0000093D4984
D3A85C0000093D4984
D3A85C0000093D4984
D3A85C0000093D4984
D3A85C0000093D4984
D3A85C0000093D4984
D3A85C0000093D4984
D3A85C00000A3D4994
D3A85C00001D2C67A3
D3A85C3213B787A4C1
D3A85C4ABA45C3C3A0
D3A85C5767BA3C3B30
D3A85C367636C49800
D3A85C7BBCD82A9000
D3A85C233238D60000
D3A85C6CDCA5100000
D3A85C000000000000
715436000000000000
ENDCHAR
STARTCHAR paragraph
ENCODING 182
SWIDTH 676 0
DWIDTH 16 0
BBX 16 20 0 -3
BITMAP
000028BDDDDDDDD2
0008C633333331B2
00993BCAAAAAC7B2
05A4C347888667B2
0C3D3B96556B67B2
1C58966CCC2B67B2
3A85C2C10C2B67B2
2B76A3DAAE2B67B2
0D3B4C333C2B67B2
096974BDDF2B67B2
02E39B644D2B67B2
004D63799E2B67B2
00029DB99E2B67B2
000000344D2B67B2
000000000C2B67B2
000000000C2B67B2
000000000C2B67B2
000000000C2B67B2
000000000C6B69C2
0000000006863881
ENDCHAR
STARTCHAR periodcentered
ENCODING 183
SWIDTH 260 0
DWIDTH 6 0
BBX 5 5 1 9
BITMAP
788820
555510
CCCC30
222210
BBBB30
ENDCHAR
STARTCHAR cedilla
ENCODING 184
SWIDTH 321 0
DWIDTH 8 0
BBX 6 8 1 -9
BITMAP
000936
08BB48
882488
C2D884
D3A000
C1D884
881453
08DDC7
ENDCHAR
STARTCHAR uni00B9
ENCODING 185
SWIDTH 359 0
DWIDTH 9 0
BBX 8 15 0 5
BITMAP
26666663
27777774
3BBBBBB6
122B4D68
000A3D48
000A3D48
000A3D48
000A3D48
000A3D48
000A3D48
000A3D48
000A3D48
000A3D48
000A3D48
00010101
ENDCHAR
STARTCHAR ordmasculine
ENCODING 186
SWIDTH 835 0
DWIDTH 20 0
BBX 20 19 0 -1
BITMAP
000000158AA951000000
000017D943348D810000
0002C738CDDC937C2000
001C47C524425C83C200
00B5993BB88BB38A4B00
04A5A4C359963C596950
0A3C3C3B9449C2C2D2B0
0D3A779700006B5885C1
2B76B2D000000C2C5893
3A85C2B00000094D3985
2B76B2D000000B2C4893
0C4986A500004C4985C1
0B3D3C3C7227D3C3C2C0
059695C37BB82B687860
00B4A74C9669C56B3C00
002D39B346643AA3C200
0003C54ADBBDB45C3000
000019C732236CA20000
00000027ACCA72000000
ENDCHAR
STARTCHAR guillemotright
ENCODING 187
SWIDTH 912 0
DWIDTH 22 0
BBX 20 12 1 3
BITMAP
82000000003610000000
6BB500000017D9300000
B538D820004934AC6100
39D825BB5005BC627CA4
C726CB53834C628D934A
16CB539D81028D934AC6
01559D835300166BC627
9D83566CB22AC62657D9
538D935BC2234AC726CA
BB538D93003DA44AC710
35BC610000127CA40000
D8300000004C71000000
ENDCHAR
STARTCHAR onequarter
ENCODING 188
SWIDTH 1236 0
DWIDTH 30 0
BBX 30 23 0 -3
BITMAP
266666630000032515000000000000
3777777300000B3D3A000000000000
4BBBBBB500000D3A76000000000000
122C4C7700003A76A2000000000000
000C2C67000076B3D0000263545000
000C2C670000B3D3A000095B4C2000
000C2C670000D3A760002D3B4A0000
000C2C670003A76B200096A4B30000
000C2C6700076B3D0001D3C3B00000
000C2C67000B3D3A0008795A400000
000C2C67000D3A76001D2D3C072900
000C2C67003A76B2007886960B2C00
000C2C670076B3D000B2B1B0092A00
000C2C6700B3D3A001CCCCCCCCCCC1
0001010100D3A76000222222222220
0000000003A76B2001CCCCCCCCCCC1
00000000076B3D0000666666666661
000000000B3D3A0000777777787871
000000000D3A7600000000000B2C00
000000003A76B200000000000A2C00
0000000076B3D00000000000000000
00000000B3D3A00000000000000000
000000004132200000000000000000
ENDCHAR
STARTCHAR onehalf
ENCODING 189
SWIDTH 1154 0
DWIDTH 28 0
BBX 27 23 0 -3
BITMAP
2666666300000325150000000000
3777777300000B3D3A0000000000
4BBBBBB500000D3A760000000000
122C4C7700003A76A20000000000
000C2C67000076B3D00012310000
000C2C670000B3D3A06CCBABC810
000C2C670000D3A76023578738A0
000C2C670003A76B203A7656D2E0
000C2C6700076B3D00000000B3D0
000C2C67000B3D3A00000004B690
000C2C67000D3A760000001C4C10
000C2C67003A76B2000000A5B400
000C2C670076B3D0000006988000
000C2C6700B3D3A000003C4C0000
0001010100D3A7600001C3D20000
0000000003A76B20000A5B500000
00000000076B3D00006979000000
000000000B3D3A00008888888830
000000000D3A7600004444444410
000000003A76B20001DDDDDDDD40
0000000076B3D000000000000000
00000000B3D3A000000000000000
0000000041322000000000000000
ENDCHAR
STARTCHAR threequarters
ENCODING 190
SWIDTH 1345 0
DWIDTH 32 0
BBX 32 23 0 -3
BITMAP
00345530000000001433410000000000
5DA877AD6000000067A4C00000000000
0589A97299000000A4D2B00000000000
0853336D49500000D2B6700000000000
07CCCDA3D2B00002B689400063627100
01000077A3C000067A4D0001D2C3C000
00022234A3C0000A4D2B0007796A5000
0009BBBD9380000D2B67001D2D2C0000
000577525C30002B6894007887960000
0005667BA2C10067A4D000D2D2D00000
0009BBA5697600A4D2B0069788718450
0001113C3D4900D2B6700C3D2D11C670
0375545C2D4802B6894039575701A560
02578873A795067A4D005CCCCCCCCCC8
09CA99AD74B00A4D2B00122222222222
043334238C100D2B67005CCCCCCCCCC8
19BDDDCB60002B679300366666666664
00000000000067A4D000377777778785
000000000000A4D2B00000000001C670
000000000000D2B6700000000001B670
000000000002B67A3000000000000000
0000000000067A4D0000000000000000
00000000000213130000000000000000
ENDCHAR
STARTCHAR questiondown
ENCODING 191
SWIDTH 693 0
DWIDTH 17 0
BBX 16 21 0 0
BITMAP
0000012331000000
0017CCA9ACC81000
06C625787526D500
393AC86557CA2B60
00B459CDCA45C2C2
0008942334AA4A58
00003CBABC495B2C
0000000001C4894D
0011202237A67A3D
0067B2C5973D3C3B
0067B2C69AC39696
0067B2C2324A84C0
0067B2C8CB936C20
0067B2C3558C9100
0067B2C477510000
0056A2C000000000
0034444100000000
0089999300000000
0078888200000000
0044444100000000
00BDDDD400000000
ENDCHAR
STARTCHAR Agrave
ENCODING 192
SWIDTH 936 0
DWIDTH 22 0
BBX 22 27 0 0
BITMAP
0000183000000000000000
000144BB30000000000000
0002AC54BB400000000000
0000029C53AB4000000000
000000029C538100000000
0000000002880000000000
0000000000000000000000
0000000061514230000000
00000004F5B2D2C0000000
0000000A6B6885B3000000
0000002C0C3D3B59000000
0000007696895B2D000000
000000D2C1D3B588500000
000004977695C2D3B00000
00000A4C2D3B6895B20000
00001C4A773C2D3B580000
000077A4C2C6794C2D0000
0000C2C4A671D3A6895000
0004A7794C2094C2D3B000
000A4C2D3B003A6795C200
001C4A6797887C2D3B6800
007794C2D24447794C2D00
00C2D3B68CDDD8C4A67950
03A6795C333333A4C2D3B0
094C2D3B7AAAAA6A7794C2
1D3B68950000000C2C3A67
6795C3D0000000077A4C2D
ENDCHAR
STARTCHAR Aacute
ENCODING 193
SWIDTH 936 0
DWIDTH 22 0
BBX 22 27 0 0
BITMAP
0000000000000001750000
000000000000017D724000
0000000000017D729C6000
00000000018D739C500000
0000000005639C50000000
00000000002B5000000000
0000000000000000000000
0000000061514230000000
00000004F5B2D2C0000000
0000000A6B6885B3000000
0000002C0C3D3B59000000
0000007696895B2D000000
000000D2C1D3B588500000
000004977695C2D3B00000
00000A4C2D3B6895B20000
00001C4A773C2D3B580000
000077A4C2C6794C2D0000
0000C2C4A671D3A6895000
0004A7794C2094C2D3B000
000A4C2D3B003A6795C200
001C4A6797887C2D3B6800
007794C2D24447794C2D00
00C2D3B68CDDD8C4A67950
03A6795C333333A4C2D3B0
094C2D3B7AAAAA6A7794C2
1D3B68950000000C2C3A67
6795C3D0000000077A4C2D
ENDCHAR
STARTCHAR Acircumflex
ENCODING 194
SWIDTH 936 0
DWIDTH 22 0
BBX 22 27 0 0
BITMAP
0000000003B29000000000
0000000009C5C200000000
000000001C3B6800000000
00000000673C2D00000000
00000000C2C68950000000
00000003A571C390000000
0000000000000000000000
0000000061514230000000
00000004F5B2D2C0000000
0000000A6B6885B3000000
0000002C0C3D3B59000000
0000007696895B2D000000
000000D2C1D3B588500000
000004977695C2D3B00000
00000A4C2D3B6895B20000
00001C4A773C2D3B580000
000077A4C2C6794C2D0000
0000C2C4A671D3A6895000
0004A7794C2094C2D3B000
000A4C2D3B003A6795C200
001C4A6797887C2D3B6800
007794C2D24447794C2D00
00C2D3B68CDDD8C4A67950
03A6795C333333A4C2D3B0
094C2D3B7AAAAA6A7794C2
1D3B68950000000C2C3A67
6795C3D0000000077A4C2D
ENDCHAR
STARTCHAR Atilde
ENCODING 195
SWIDTH 936 0
DWIDTH 22 0
BBX 22 26 0 0
BITMAP
0000028ABBBBBB22754000
00003D5222222218884000
0000A47DCCCCCCC91C1000
0000C2C045555556C60000
0000625058888876200000
0000000000000000000000
0000000061514230000000
00000004F5B2D2C0000000
0000000A6B6885B3000000
0000002C0C3D3B59000000
0000007696895B2D000000
000000D2C1D3B588500000
000004977695C2D3B00000
00000A4C2D3B6895B20000
00001C4A773C2D3B580000
000077A4C2C6794C2D0000
0000C2C4A671D3A6895000
0004A7794C2094C2D3B000
000A4C2D3B003A6795C200
001C4A6797887C2D3B6800
007794C2D24447794C2D00
00C2D3B68CDDD8C4A67950
03A6795C333333A4C2D3B0
094C2D3B7AAAAA6A7794C2
1D3B68950000000C2C3A67
6795C3D0000000077A4C2D
ENDCHAR
STARTCHAR Adieresis
ENCODING 196
SWIDTH 936 0
DWIDTH 22 0
BBX 22 25 0 0
BITMAP
0000022414001331400000
0000075C2B004894D00000
0000075C2B004894D00000
0000021313001221400000
0000000000000000000000
0000000061514230000000
00000004F5B2D2C0000000
0000000A6B6885B3000000
0000002C0C3D3B59000000
0000007696895B2D000000
000000D2C1D3B588500000
000004977695C2D3B00000
00000A4C2D3B6895B20000
00001C4A773C2D3B580000
000077A4C2C6794C2D0000
0000C2C4A671D3A6895000
0004A7794C2094C2D3B000
000A4C2D3B003A6795C200
001C4A6797887C2D3B6800
007794C2D24447794C2D00
00C2D3B68CDDD8C4A67950
03A6795C333333A4C2D3B0
094C2D3B7AAAAA6A7794C2
1D3B68950000000C2C3A67
6795C3D0000000077A4C2D
ENDCHAR
STARTCHAR Aring
ENCODING 197
SWIDTH 936 0
DWIDTH 22 0
BBX 22 26 0 0
BITMAP
0000000004AA8100000000
0000000059685A00000000
00000000B773B740000000
00000000B9109650000000
00000000A5B98920000000
000000002B659600000000
0000000061A76230000000
00000004F5B2D2C0000000
0000000A6B6885B3000000
0000002C0C3D3B59000000
0000007696895B2D000000
000000D2C1D3B588500000
000004977695C2D3B00000
00000A4C2D3B6895B20000
00001C4A773C2D3B580000
000077A4C2C6794C2D0000
0000C2C4A671D3A6895000
0004A7794C2094C2D3B000
000A4C2D3B003A6795C200
001C4A6797887C2D3B6800
007794C2D24447794C2D00
00C2D3B68CDDD8C4A67950
03A6795C333333A4C2D3B0
094C2D3B7AAAAA6A7794C2
1D3B68950000000C2C3A67
6795C3D0000000077A4C2D
ENDCHAR
STARTCHAR AE
ENCODING 198
SWIDTH 1198 0
DWIDTH 29 0
BBX 28 20 0 0
BITMAP
0000000061514266666666666665
00000004F5B3D2E7777777777776
0000000A6B5885BBBBBBBBBBBBB9
0000001C0C3D3B5A222222222222
0000007796895B3EDCCCCCCCCCCA
000000C2C1D3B588500000000000
000004A77695C2D3B00000000000
00000A4C2C3B6885B30000000000
00001C4A673C2D3B6DCCCCCCCC50
000077A4C2C6895B3D2222222210
0000C2D3A671D3B689DBBBBBBB40
0004A6794C2094C2D3C777777730
00094C2D3B003A6895C766666620
001D3A6897887C2D3B7600000000
006794C2D24446794C3C00000000
00C2D3B68CDDD8D3A68A53333333
03A6895C333333A4C2D4E9999998
094C2D3B7AAAAA6A6794D8888887
1D3B68850000000C2D3A89555554
6895C3D0000000077A4C3EDDDDDB
ENDCHAR
STARTCHAR Ccedilla
ENCODING 199
SWIDTH 852 0
DWIDTH 20 0
BBX 20 29 0 -8
BITMAP
00000000013320000000
00000028CCA9ADB50000
000008C536887439B200
0001B73BC7557AD64C40
000C56C44ACCB729B2C3
00976A2C943227D65C38
02C3B3D47CBADA2A7630
095C3C4A810004C38000
0D3B5878000000350000
2A76B3D0000000000000
4994D3A0000000000000
58A3D490000000000000
3985C2B0000000000000
1C6895B2000000000000
0C3D3C4C100000770000
07796885C6214B93C100
00D2C3A927BB945D3B41
004B3C46DA768C93B769
0007A2B93466527D56C1
00006C45BDBBDC82AA10
000002AC7332249D5000
000000027BFFF9500000
000000018CA570000000
00000009824970000000
0000000D2D8840000000
0000000D490000000000
0000000D2D8840000000
00000009714520000000
000000019DDC60000000
ENDCHAR
STARTCHAR Egrave
ENCODING 200
SWIDTH 706 0
DWIDTH 17 0
BBX 16 27 0 0
BITMAP
0075000000000000
0529C50000000000
17D729C600000000
0017D728D6000000
000017D828300000
00000006B0000000
0000000000000000
0514325666666666
0D3985D777777776
0D3985DBBBBBBBBA
0D3985D222222222
0D3985DCCCCCCCCC
0D3985D000000000
0D3985D000000000
0D3985D000000000
0D3985DCCCC70000
0D3985D222210000
0D3985DBBBB70000
0D3985D777740000
0D3985D666640000
0D3985D000000000
0D3985D000000000
0D3985D333333333
0D3985D999999999
0D3985D888888888
0D3985D555555555
0D3985DDDDDDDDDC
ENDCHAR
STARTCHAR Eacute
ENCODING 201
SWIDTH 706 0
DWIDTH 17 0
BBX 16 27 1 0
BITMAP
0000000000005700
00000000005C9350
000000005C937D81
0000006C927D7100
000002827D710000
0000000A71000000
0000000000000000
5143256666666660
D3985D7777777760
D3985DBBBBBBBBA0
D3985D2222222220
D3985DCCCCCCCCC0
D3985D0000000000
D3985D0000000000
D3985D0000000000
D3985DCCCC700000
D3985D2222100000
D3985DBBBB700000
D3985D7777400000
D3985D6666400000
D3985D0000000000
D3985D0000000000
D3985D3333333330
D3985D9999999990
D3985D8888888880
D3985D5555555550
D3985DDDDDDDDDC0
ENDCHAR
STARTCHAR Ecircumflex
ENCODING 202
SWIDTH 706 0
DWIDTH 17 0
BBX 15 27 1 0
BITMAP
000000C3A1000000
000005C976000000
00000B3D2C000000
00002B386A300000
000086B4C4900000
0000C2B0A3B00000
0000000000000000
5143256666666660
D3985D7777777760
D3985DBBBBBBBBA0
D3985D2222222220
D3985DCCCCCCCCC0
D3985D0000000000
D3985D0000000000
D3985D0000000000
D3985DCCCC700000
D3985D2222100000
D3985DBBBB700000
D3985D7777400000
D3985D6666400000
D3985D0000000000
D3985D0000000000
D3985D3333333330
D3985D9999999990
D3985D8888888880
D3985D5555555550
D3985DDDDDDDDDC0
ENDCHAR
STARTCHAR Edieresis
ENCODING 203
SWIDTH 706 0
DWIDTH 17 0
BBX 15 25 1 0
BITMAP
0133240004233100
03A85C000D489400
03A85C000D489400
0132130004123100
0000000000000000
5143256666666660
D3985D7777777760
D3985DBBBBBBBBA0
D3985D2222222220
D3985DCCCCCCCCC0
D3985D0000000000
D3985D0000000000
D3985D0000000000
D3985DCCCC700000
D3985D2222100000
D3985DBBBB700000
D3985D7777400000
D3985D6666400000
D3985D0000000000
D3985D0000000000
D3985D3333333330
D3985D9999999990
D3985D8888888880
D3985D5555555550
D3985DDDDDDDDDC0
ENDCHAR
STARTCHAR Igrave
ENCODING 204
SWIDTH 338 0
DWIDTH 8 0
BBX 11 27 -4 0
BITMAP
028200000000
335C92000000
4BB35C920000
003BB45CA300
00003AB44700
0000003A5000
000000000000
000005143250
00000D3985D0
00000D3985D0
00000D3985D0
00000D3985D0
00000D3985D0
00000D3985D0
00000D3985D0
00000D3985D0
00000D3985D0
00000D3985D0
00000D3985D0
00000D3985D0
00000D3985D0
00000D3985D0
00000D3985D0
00000D3985D0
00000D3985D0
00000D3985D0
00000D3985D0
ENDCHAR
STARTCHAR Iacute
ENCODING 205
SWIDTH 338 0
DWIDTH 8 0
BBX 11 27 1 0
BITMAP
000000018300
0000029C6330
00029C63AC40
029C53AB4000
0754BB400000
004B30000000
000000000000
514325000000
D3985D000000
D3985D000000
D3985D000000
D3985D000000
D3985D000000
D3985D000000
D3985D000000
D3985D000000
D3985D000000
D3985D000000
D3985D000000
D3985D000000
D3985D000000
D3985D000000
D3985D000000
D3985D000000
D3985D000000
D3985D000000
D3985D000000
ENDCHAR
STARTCHAR Icircumflex
ENCODING 206
SWIDTH 338 0
DWIDTH 8 0
BBX 8 27 0 0
BITMAP
00694700
00CC2D00
03A68950
0944D3B0
1C3994C2
57843966
00000000
05143250
0D3985D0
0D3985D0
0D3985D0
0D3985D0
0D3985D0
0D3985D0
0D3985D0
0D3985D0
0D3985D0
0D3985D0
0D3985D0
0D3985D0
0D3985D0
0D3985D0
0D3985D0
0D3985D0
0D3985D0
0D3985D0
0D3985D0
ENDCHAR
STARTCHAR Idieresis
ENCODING 207
SWIDTH 338 0
DWIDTH 8 0
BBX 12 25 -2 0
BITMAP
414230022414
A2D580075C2B
A2D580075C2B
314120021313
000000000000
000514325000
000D3985D000
000D3985D000
000D3985D000
000D3985D000
000D3985D000
000D3985D000
000D3985D000
000D3985D000
000D3985D000
000D3985D000
000D3985D000
000D3985D000
000D3985D000
000D3985D000
000D3985D000
000D3985D000
000D3985D000
000D3985D000
000D3985D000
ENDCHAR
STARTCHAR Eth
ENCODING 208
SWIDTH 905 0
DWIDTH 22 0
BBX 21 20 0 0
BITMAP
0366666666666410000000
07A77777777779DA300000
0759BBBBBBBBB944C50000
075C3222222235AB2B6000
075C2ECCCCCCCC65C2C200
075C2B25555552A94B3B00
075C2B6B88888C4A6A5B30
05492855000001D2D3B680
4CCCCCCCC6000077A3D2C0
122222222100004A76B2D0
4BBBBBBBB500003B67B3D0
277777777300005985C2C0
27786877630000A5C2D3A0
075C2B66000006B4B58860
075C2B6DDDDDD93D3C3D10
075C2C33333347D4977800
075C29999999962A94C100
075C888888888BD65D2000
075455555555434AB10000
07EDDDDDDDDDDDA4000000
ENDCHAR
STARTCHAR Ntilde
ENCODING 209
SWIDTH 877 0
DWIDTH 21 0
BBX 19 26 1 0
BITMAP
00017ABBBBBB50927000
000C7322222214B48000
00684DCCCCCCCA295000
0094C225555556AA0000
00526038888887400000
00000000000000000000
61515151000005234250
EA69696900000D4894D0
DB4B4B4C30000D4894D0
D2C3C3C3C0000D4894D0
D187878786000D4894D0
D37C3C2D3D100D4894D0
D394B4A5A5A00D4894D0
D393A5A5B5B40D4894D0
D3985D2C3D3C0D4894D0
D398578787877A4894D0
D39855C3C3C3C44894D0
D3985C3C4B4B4B4894D0
D3985D09696A6A6794D0
D3985D01D2D2D3D294D0
D3985D005969697894D0
D3985D000B4B3C4C64D0
D3985D0002C3C3C3C0D0
D3985D000087879796D0
D3985D00001C2C2D3DD0
D3985D000004A5A5A6E0
ENDCHAR
STARTCHAR Ograve
ENCODING 210
SWIDTH 933 0
DWIDTH 22 0
BBX 22 28 0 -1
BITMAP
0000183000000000000000
000244BA30000000000000
0002AC54BB300000000000
000002AC53BB4000000000
000000029C538000000000
0000000002970000000000
0000000001332000000000
00000028CCA9BDA4000000
000008C53688743AB20000
0001B73BC7556AD63C4000
000C56C44ACCB728B2C300
00976A2C943337D65C2D10
02C3B3D47CBACA3A769680
095C3C4A810004D3C4C3D1
0D3B58780000003C3B5985
2A76B3D0000000085B2D48
4994D3A000000004994D3A
58A3D49000000003A85C2B
3985C2B000000005893D39
1C6895B20000000B3D3C67
0C3D3C4C100000796977A3
07796885C6214AA3C2D3C0
00D2C3A927BB945D3B5A50
004B3C46DA768C92A76A00
0007A2B93466526D55C100
00006C45BDBBCC839B1000
000002AC7333359D500000
000000027ACCB840000000
ENDCHAR
STARTCHAR Oacute
ENCODING 211
SWIDTH 933 0
DWIDTH 22 0
BBX 22 28 0 -1
BITMAP
0000000000000001740000
000000000000017D724000
0000000000018D739C5000
00000000018D639C500000
000000000563AC50000000
00000000002B4000000000
0000000001332000000000
00000028CCA9BDA4000000
000008C53688743AB20000
0001B73BC7556AD63C4000
000C56C44ACCB728B2C300
00976A2C943337D65C2D10
02C3B3D47CBACA3A769680
095C3C4A810004D3C4C3D1
0D3B58780000003C3B5985
2A76B3D0000000085B2D48
4994D3A000000004994D3A
58A3D49000000003A85C2B
3985C2B000000005893D39
1C6895B20000000B3D3C67
0C3D3C4C100000796977A3
07796885C6214AA3C2D3C0
00D2C3A927BB945D3B5A50
004B3C46DA768C92A76A00
0007A2B93466526D55C100
00006C45BDBBCC839B1000
000002AC7333359D500000
000000027ACCB840000000
ENDCHAR
STARTCHAR Ocircumflex
ENCODING 212
SWIDTH 933 0
DWIDTH 22 0
BBX 22 28 0 -1
BITMAP
0000000004B29000000000
000000000AC4C200000000
000000001C4A6700000000
00000000773C2C00000000
00000000C2B77940000000
000000039671B390000000
0000000001332000000000
00000028CCA9BDA4000000
000008C53688743AB20000
0001B73BC7556AD63C4000
000C56C44ACCB728B2C300
00976A2C943337D65C2D10
02C3B3D47CBACA3A769680
095C3C4A810004D3C4C3D1
0D3B58780000003C3B5985
2A76B3D0000000085B2D48
4994D3A000000004994D3A
58A3D49000000003A85C2B
3985C2B000000005893D39
1C6895B20000000B3D3C67
0C3D3C4C100000796977A3
07796885C6214AA3C2D3C0
00D2C3A927BB945D3B5A50
004B3C46DA768C92A76A00
0007A2B93466526D55C100
00006C45BDBBCC839B1000
000002AC7333359D500000
000000027ACCB840000000
ENDCHAR
STARTCHAR Otilde
ENCODING 213
SWIDTH 933 0
DWIDTH 22 0
BBX 22 27 0 -1
BITMAP
0000028ABBBBBB22754000
00003D5222222218794000
0000A38DCCCCCCC91D1000
0000D2C045555557C60000
0000625068888876200000
0000000001332000000000
00000028CCA9BDA4000000
000008C53688743AB20000
0001B73BC7556AD63C4000
000C56C44ACCB728B2C300
00976A2C943337D65C2D10
02C3B3D47CBACA3A769680
095C3C4A810004D3C4C3D1
0D3B58780000003C3B5985
2A76B3D0000000085B2D48
4994D3A000000004994D3A
58A3D49000000003A85C2B
3985C2B000000005893D39
1C6895B20000000B3D3C67
0C3D3C4C100000796977A3
07796885C6214AA3C2D3C0
00D2C3A927BB945D3B5A50
004B3C46DA768C92A76A00
0007A2B93466526D55C100
00006C45BDBBCC839B1000
000002AC7333359D500000
000000027ACCB840000000
ENDCHAR
STARTCHAR Odieresis
ENCODING 214
SWIDTH 933 0
DWIDTH 22 0
BBX 22 26 0 -1
BITMAP
0000032414002331400000
0000085C2B005893D00000
0000085C2B005893D00000
0000021313001231400000
0000000001332000000000
00000028CCA9BDA4000000
000008C53688743AB20000
0001B73BC7556AD63C4000
000C56C44ACCB728B2C300
00976A2C943337D65C2D10
02C3B3D47CBACA3A769680
095C3C4A810004D3C4C3D1
0D3B58780000003C3B5985
2A76B3D0000000085B2D48
4994D3A000000004994D3A
58A3D49000000003A85C2B
3985C2B000000005893D39
1C6895B20000000B3D3C67
0C3D3C4C100000796977A3
07796885C6214AA3C2D3C0
00D2C3A927BB945D3B5A50
004B3C46DA768C92A76A00
0007A2B93466526D55C100
00006C45BDBBCC839B1000
000002AC7333359D500000
000000027ACCB840000000
ENDCHAR
STARTCHAR multiply
ENCODING 215
SWIDTH 790 0
DWIDTH 19 0
BBX 19 17 0 0
BITMAP
4A2B2B2C101C2C2B2B30
0A59788790A697786900
01D2D2C3B5B3C3D2D100
006A5B3C1D2C3B4A5000
000B4A669778695B0000
0002D2D4C3D2D2D20000
0000782C3B4A59700000
00000A786A5B4C000000
000002D2D2D2C3000000
00000B4A597889000000
00006A5B4C3D2A500000
0001D2D2C3C5D2D10000
000A597887A579690000
005B4C3C2D2D3C3B4000
01D2C3C4B7A4B3C3D100
09788695B0B5A6977800
3C3D2D2D202D2D2D3C30
ENDCHAR
STARTCHAR Oslash
ENCODING 216
SWIDTH 938 0
DWIDTH 23 0
BBX 22 27 0 -4
BITMAP
0000000000000007200000
000000000000002C3A1000
0000000001332075A4C200
00000028CCA9BDA475A000
000008C53688743AB72000
0001B73BC7556AD63C4000
000B56C44ACCB729A2C300
00977A3C943337D55C2C10
02C3B3D47CBACA3A769680
094C3C3A810004D3C4C3D0
0D3B58780000003C3B5994
3A76B3D0000000085C2C58
4894D39000000004994D3A
58A3D49000000003A85C2B
4994C2B0000000058A3D39
1B6894C20000000B3D3B67
0C3C3B4C100000796887B3
07796885C6214A93C2D3C0
00D2C3A927BB945C3B4A40
004B3C46D9768C92B76A00
0007A2B93466526D56C100
00006C45BDBBCC839A1000
0001A3AB6332359C500000
000779467ACCB840000000
001D2C3B00000000000000
000185B300000000000000
0000018000000000000000
ENDCHAR
STARTCHAR Ugrave
ENCODING 217
SWIDTH 905 0
DWIDTH 22 0
BBX 20 28 1 -1
BITMAP
00047100000000000000
00427D71000000000000
005C937D810000000000
00005C936D8100000000
0000005CA36500000000
000000004B2000000000
00000000000000000000
52341500000002432514
C58A3D00000004984D3A
C58A3D00000004984D3A
C58A3D00000004984D3A
C58A3D00000004984D3A
C58A3D00000004984D3A
C58A3D00000004984D3A
C58A3D00000004984D3A
C58A3D00000004984D3A
C58A3D00000004984D3A
C58A3D00000004984D3A
C58A3D00000004994D3A
D3A85C100000077B3D49
C2C4A6A000002D3C4A76
77A5B58B4126D4A5A4C2
1D2D3C639BB72A85B5A0
0795C39D867AD55C2C20
00984D7257644AB3C400
0009A37CDBCDA44C5000
00005D9522237CB20000
00000049BCCA72000000
ENDCHAR
STARTCHAR Uacute
ENCODING 218
SWIDTH 905 0
DWIDTH 22 0
BBX 20 28 1 -1
BITMAP
00000000000000381000
0000000000003AC44200
00000000003AB44CA200
000000003BB45CA20000
00000000835C92000000
00000000079200000000
00000000000000000000
52341500000002432514
C58A3D00000004984D3A
C58A3D00000004984D3A
C58A3D00000004984D3A
C58A3D00000004984D3A
C58A3D00000004984D3A
C58A3D00000004984D3A
C58A3D00000004984D3A
C58A3D00000004984D3A
C58A3D00000004984D3A
C58A3D00000004984D3A
C58A3D00000004994D3A
D3A85C100000077B3D49
C2C4A6A000002D3C4A76
77A5B58B4126D4A5A4C2
1D2D3C639BB72A85B5A0
0795C39D867AD55C2C20
00984D7257644AB3C400
0009A37CDBCDA44C5000
00005D9522237CB20000
00000049BCCA72000000
ENDCHAR
STARTCHAR Ucircumflex
ENCODING 219
SWIDTH 905 0
DWIDTH 22 0
BBX 20 28 1 -1
BITMAP
00000000877400000000
00000001CD3B00000000
00000007794C20000000
0000000C25A670000000
0000004A76C2C0000000
00000084B16693000000
00000000000000000000
52341500000002432514
C58A3D00000004984D3A
C58A3D00000004984D3A
C58A3D00000004984D3A
C58A3D00000004984D3A
C58A3D00000004984D3A
C58A3D00000004984D3A
C58A3D00000004984D3A
C58A3D00000004984D3A
C58A3D00000004984D3A
C58A3D00000004984D3A
C58A3D00000004994D3A
D3A85C100000077B3D49
C2C4A6A000002D3C4A76
77A5B58B4126D4A5A4C2
1D2D3C639BB72A85B5A0
0795C39D867AD55C2C20
00984D7257644AB3C400
0009A37CDBCDA44C5000
00005D9522237CB20000
00000049BCCA72000000
ENDCHAR
STARTCHAR Udieresis
ENCODING 220
SWIDTH 905 0
DWIDTH 22 0
BBX 20 26 1 -1
BITMAP
00004133200414230000
0000D398500B2C580000
0000D398500B2C580000
00004132100313120000
00000000000000000000
52341500000002432514
C58A3D00000004984D3A
C58A3D00000004984D3A
C58A3D00000004984D3A
C58A3D00000004984D3A
C58A3D00000004984D3A
C58A3D00000004984D3A
C58A3D00000004984D3A
C58A3D00000004984D3A
C58A3D00000004984D3A
C58A3D00000004984D3A
C58A3D00000004994D3A
D3A85C100000077B3D49
C2C4A6A000002D3C4A76
77A5B58B4126D4A5A4C2
1D2D3C639BB72A85B5A0
0795C39D867AD55C2C20
00984D7257644AB3C400
0009A37CDBCDA44C5000
00005D9522237CB20000
00000049BCCA72000000
ENDCHAR
STARTCHAR Yacute
ENCODING 221
SWIDTH 789 0
DWIDTH 19 0
BBX 19 27 0 0
BITMAP
00000000000000570000
0000000000005C935000
00000000006C927D7100
000000006C827D710000
00000003828D71000000
000000000B6000000000
00000000000000000000
32514320000032515230
3A76B3B00000B3B76B20
0A3C58940004894C4900
03985C3B000B3B67A200
00B3C589403985C3A000
004985C3B0A3C58A3000
000B3B5795A75B3B0000
0005894C2A3C48940000
0000C3B67A76B3B00000
000057A494C498400000
00000C38B67A3C000000
000006694C3A75000000
000000CB57A3C0000000
00000086B3C670000000
00000075C2B660000000
00000075C2B660000000
00000075C2B660000000
00000075C2B660000000
00000075C2B660000000
00000075C2B660000000
ENDCHAR
STARTCHAR Thorn
ENCODING 222
SWIDTH 798 0
DWIDTH 19 0
BBX 18 23 1 -2
BITMAP
312213000000000000
D3A85C000000000000
D3A85C111100000000
D3A85CCCBCDA400000
D3A85C566533AB1000
D3A85C7778AC54D200
D3A85CAABA72A94C00
D3A85C32236D497860
D3A85CDDCD92C3D2C0
D3A85C00006B4A76B2
D3A85C00000B2D4984
D3A85C0000094D3985
D3A85C00001D2C5893
D3A85C4556C586A3C1
D3A85C588727B4C4A0
D3A85C6A9AD83D3C30
D3A85C233338C3A700
D3A85C8DDCB63C7000
D3A85C34457BC40000
D3A85C599873000000
D3A85C000000000000
D3A85C000000000000
927539000000000000
ENDCHAR
STARTCHAR germandbls
ENCODING 223
SWIDTH 826 0
DWIDTH 20 0
BBX 19 23 1 -2
BITMAP
00000134444200000000
0004BCA9999BD9200000
008B3578888735D40000
0894D8544446BA3C3000
3B3C38CDDDDB55C3C000
94C3C7233333B7779400
C2B687CAAAAD3D2C5700
D4894D000005894D3900
D4894D58888C5C2C5700
D4894D3555538A67A300
D4894D8CCCDEC1D2C000
D4894D2444337B497600
D4894D69999C877A3C00
D4894D000000D3A76C10
D4894D000001D4A85D10
D4894D8DDDDC4A5C2D00
D4894D233335B8696900
D4894D69999836C3D200
D4894D588889D83C5000
D4894D35555328D50000
D4894D8DDDDDC7100000
D4894D00000000000000
93662900000000000000
ENDCHAR
STARTCHAR agrave
ENCODING 224
SWIDTH 832 0
DWIDTH 20 0
BBX 19 26 0 -1
BITMAP
00056000000000000000
00528D71000000000000
006D827D710000000000
00006C827D7100000000
0000006C927400000000
000000005B1000000000
00000000000000000000
00000001455300000000
000005CB978AD9200000
0001C9259A9734C80000
001D56D85346BB399000
00C59A39CDCB63C4A600
0596A4C524429B3D2C10
0C2D2C2AC9AD66A58760
1B5895A70001B5B3D3B0
4895D2C000003B67B2C0
58A3D49000000D4894D0
4894D3A000000D4984D0
2B67A4C200000D4984D0
0D3C4B3C74475D4984D0
078777B358851D4984D0
00C3A74BB9AC5D4984D0
002D48C633343D4984D0
0002C827ACB92D4984D0
000007CA76695D4984D0
00000003566400000000
ENDCHAR
STARTCHAR aacute
ENCODING 225
SWIDTH 832 0
DWIDTH 20 0
BBX 19 26 0 -1
BITMAP
00000000000000380000
0000000000004BB35100
00000000004BA35C9200
000000004CA36C920000
00000001836D81000000
00000000098100000000
00000000000000000000
00000001455300000000
000005CB978AD9200000
0001C9259A9734C80000
001D56D85346BB399000
00C59A39CDCB63C4A600
0596A4C524429B3D2C10
0C2D2C2AC9AD66A58760
1B5895A70001B5B3D3B0
4895D2C000003B67B2C0
58A3D49000000D4894D0
4894D3A000000D4984D0
2B67A4C200000D4984D0
0D3C4B3C74475D4984D0
078777B358851D4984D0
00C3A74BB9AC5D4984D0
002D48C633343D4984D0
0002C827ACB92D4984D0
000007CA76695D4984D0
00000003566400000000
ENDCHAR
STARTCHAR acircumflex
ENCODING 226
SWIDTH 832 0
DWIDTH 20 0
BBX 19 26 0 -1
BITMAP
00000000A58300000000
00000003CB5900000000
000000095B3D10000000
0000001D268850000000
0000005885D3B0000000
000000A2C085A2000000
00000000000000000000
00000001455300000000
000005CB978AD9200000
0001C9259A9734C80000
001D56D85346BB399000
00C59A39CDCB63C4A600
0596A4C524429B3D2C10
0C2D2C2AC9AD66A58760
1B5895A70001B5B3D3B0
4895D2C000003B67B2C0
58A3D49000000D4894D0
4894D3A000000D4984D0
2B67A4C200000D4984D0
0D3C4B3C74475D4984D0
078777B358851D4984D0
00C3A74BB9AC5D4984D0
002D48C633343D4984D0
0002C827ACB92D4984D0
000007CA76695D4984D0
00000003566400000000
ENDCHAR
STARTCHAR atilde
ENCODING 227
SWIDTH 832 0
DWIDTH 20 0
BBX 19 24 0 -1
BITMAP
00006ABBBBBB70819000
000A9322222222D2B000
003B2CCCCCCCCB468000
0067A4155555569C1000
00336128888887500000
00000001455300000000
000005CB978AD9200000
0001C9259A9734C80000
001D56D85346BB399000
00C59A39CDCB63C4A600
0596A4C524429B3D2C10
0C2D2C2AC9AD66A58760
1B5895A70001B5B3D3B0
4895D2C000003B67B2C0
58A3D49000000D4894D0
4894D3A000000D4984D0
2B67A4C200000D4984D0
0D3C4B3C74475D4984D0
078777B358851D4984D0
00C3A74BB9AC5D4984D0
002D48C633343D4984D0
0002C827ACB92D4984D0
000007CA76695D4984D0
00000003566400000000
ENDCHAR
STARTCHAR adieresis
ENCODING 228
SWIDTH 832 0
DWIDTH 20 0
BBX 19 23 0 -1
BITMAP
00004233100414220000
0000C58A300C2B760000
0000C58A300C2B760000
00003123100313220000
00000001455300000000
000005CB978AD9200000
0001C9259A9734C80000
001D56D85346BB399000
00C59A39CDCB63C4A600
0596A4C524429B3D2C10
0C2D2C2AC9AD66A58760
1B5895A70001B5B3D3B0
4895D2C000003B67B2C0
58A3D49000000D4894D0
4894D3A000000D4984D0
2B67A4C200000D4984D0
0D3C4B3C74475D4984D0
078777B358851D4984D0
00C3A74BB9AC5D4984D0
002D48C633343D4984D0
0002C827ACB92D4984D0
000007CA76695D4984D0
00000003566400000000
ENDCHAR
STARTCHAR aring
ENCODING 229
SWIDTH 832 0
DWIDTH 20 0
BBX 19 26 0 -1
BITMAP
000000008AA500000000
0000000A576850000000
00000038B367B0000000
00000056A01AA0000000
0000002A89A5A0000000
00000006956B20000000
00000000265100000000
00000001455300000000
000005CB978AD9200000
0001C9259A9734C80000
001D56D85346BB399000
00C59A39CDCB63C4A600
0596A4C524429B3D2C10
0C2D2C2AC9AD66A58760
1B5895A70001B5B3D3B0
4895D2C000003B67B2C0
58A3D49000000D4894D0
4894D3A000000D4984D0
2B67A4C200000D4984D0
0D3C4B3C74475D4984D0
078777B358851D4984D0
00C3A74BB9AC5D4984D0
002D48C633343D4984D0
0002C827ACB92D4984D0
000007CA76695D4984D0
00000003566400000000
ENDCHAR
STARTCHAR ae
ENCODING 230
SWIDTH 1166 0
DWIDTH 28 0
BBX 28 19 0 -1
BITMAP
0000000145530000000000000000
000005CB978AD91774BDDDDDDDD1
0001C9259A9734C884D333333330
001D56D85346BB39A2DAAAAAAAA0
00C59A39CDCB63C4A6D888888880
0596A4C524429B3D2DE555555550
0C2D2C2AC9AD66A587F000000000
1B5895A70001B5B3D3F888888850
4895D2C000003B67B2E444444420
58A3D49000000D4894DDDDDDDD70
4894D3A000000D4984D333333320
2B67A4C200000D4984DAAAAAAA60
0D3C4B3C74475D4984D000000000
078777B358851D4984D333333330
00C3A74BB9AC5D4984D999999990
002D48C633343D4984D888888880
0002C827ACB92D4984D555555550
000007CA76695D4984DDDDDDDDD1
0000000356640000000000000000
ENDCHAR
STARTCHAR ccedilla
ENCODING 231
SWIDTH 736 0
DWIDTH 18 0
BBX 17 26 0 -8
BITMAP
000000159AA8500000
000018D843359D7000
0002C639DDDC838C10
002D39C424426C75C0
00C4A83BB89CB3A810
069795C369954C3200
0C2D3C2C8449B21000
2C5895B50000300000
4984C3C00000000000
58A3D4900000000000
4994C3B00000000000
2B6794C40000200000
0C2C3C3D6228C20000
078876B28BB73C4100
00C3C65C967AC48800
003C3BA346633B93C0
0004D45BDBBDA46C20
00002AB632237C9100
00000027EFFC710000
0000002AC793000000
000000C425B3000000
000002B5C882000000
000003985000000000
000003A5C882000000
000000C42551000000
0000002ADDC3000000
ENDCHAR
STARTCHAR egrave
ENCODING 232
SWIDTH 666 0
DWIDTH 16 0
BBX 16 25 0 0
BITMAP
0282000000000000
335C920000000000
3BB45CA200000000
003BB44CA3000000
00003AB447000000
0000003A50000000
0000000000000000
0000000000000000
0B3874BDDDDDDDD1
0D3985D333333330
0D3985DAAAAAAAA1
0D3985D888888881
0D3985D555555550
0D3985D000000000
0D3985D888888850
0D3985D444444430
0D3985DDDDDDDD80
0D3985D333333320
0D3985DAAAAAAA60
0D3985D000000000
0D3985D333333330
0D3985D999999991
0D3985D888888881
0D3985D555555550
0D3985DDDDDDDDD1
ENDCHAR
STARTCHAR eacute
ENCODING 233
SWIDTH 666 0
DWIDTH 16 0
BBX 15 25 1 0
BITMAP
0000000000018300
00000000018D6340
000000029C63AC40
0000029C53AB4000
00000653BB400000
0000004B30000000
0000000000000000
0000000000000000
B3874BDDDDDDDD10
D3985D3333333300
D3985DAAAAAAAA10
D3985D8888888810
D3985D5555555500
D3985D0000000000
D3985D8888888500
D3985D4444444300
D3985DDDDDDDD800
D3985D3333333200
D3985DAAAAAAA600
D3985D0000000000
D3985D3333333300
D3985D9999999910
D3985D8888888810
D3985D5555555500
D3985DDDDDDDDD10
ENDCHAR
STARTCHAR ecircumflex
ENCODING 234
SWIDTH 666 0
DWIDTH 16 0
BBX 15 25 1 0
BITMAP
000005A470000000
00000CC3D0000000
00003B5885000000
0000953D3B000000
0001D3A95B200000
00057853A5700000
0000000000000000
0000000000000000
B3874BDDDDDDDD10
D3985D3333333300
D3985DAAAAAAAA10
D3985D8888888810
D3985D5555555500
D3985D0000000000
D3985D8888888500
D3985D4444444300
D3985DDDDDDDD800
D3985D3333333200
D3985DAAAAAAA600
D3985D0000000000
D3985D3333333300
D3985D9999999910
D3985D8888888810
D3985D5555555500
D3985DDDDDDDDD10
ENDCHAR
STARTCHAR edieresis
ENCODING 235
SWIDTH 666 0
DWIDTH 16 0
BBX 15 22 1 0
BITMAP
0314130022414000
0A3D490076B2C000
0A3D490076B2C000
0314120022313000
0000000000000000
B3874BDDDDDDDD10
D3985D3333333300
D3985DAAAAAAAA10
D3985D8888888810
D3985D5555555500
D3985D0000000000
D3985D8888888500
D3985D4444444300
D3985DDDDDDDD800
D3985D3333333200
D3985DAAAAAAA600
D3985D0000000000
D3985D3333333300
D3985D9999999910
D3985D8888888810
D3985D5555555500
D3985DDDDDDDDD10
ENDCHAR
STARTCHAR igrave
ENCODING 236
SWIDTH 337 0
DWIDTH 8 0
BBX 11 25 -4 0
BITMAP
028200000000
335C92000000
4BB35C920000
003BB45CA300
00003AB44700
0000003A5000
000000000000
000000000000
00000B3874B0
00000D3985D0
00000D3985D0
00000D3985D0
00000D3985D0
00000D3985D0
00000D3985D0
00000D3985D0
00000D3985D0
00000D3985D0
00000D3985D0
00000D3985D0
00000D3985D0
00000D3985D0
00000D3985D0
00000D3985D0
00000D3985D0
ENDCHAR
STARTCHAR iacute
ENCODING 237
SWIDTH 337 0
DWIDTH 8 0
BBX 11 25 1 0
BITMAP
000000018300
0000029C6330
00029C63AC40
029C53AB4000
0754BB400000
004B30000000
000000000000
000000000000
B3874B000000
D3985D000000
D3985D000000
D3985D000000
D3985D000000
D3985D000000
D3985D000000
D3985D000000
D3985D000000
D3985D000000
D3985D000000
D3985D000000
D3985D000000
D3985D000000
D3985D000000
D3985D000000
D3985D000000
ENDCHAR
STARTCHAR icircumflex
ENCODING 238
SWIDTH 337 0
DWIDTH 8 0
BBX 8 25 0 0
BITMAP
00694700
00CC2D00
03A68950
0944D3B0
1C3994C2
57843966
00000000
00000000
0B3874B0
0D3985D0
0D3985D0
0D3985D0
0D3985D0
0D3985D0
0D3985D0
0D3985D0
0D3985D0
0D3985D0
0D3985D0
0D3985D0
0D3985D0
0D3985D0
0D3985D0
0D3985D0
0D3985D0
ENDCHAR
STARTCHAR idieresis
ENCODING 239
SWIDTH 337 0
DWIDTH 8 0
BBX 12 22 -2 0
BITMAP
414230022414
A2D580075C2B
A2D580075C2B
314120021313
000000000000
000B3874B000
000D3985D000
000D3985D000
000D3985D000
000D3985D000
000D3985D000
000D3985D000
000D3985D000
000D3985D000
000D3985D000
000D3985D000
000D3985D000
000D3985D000
000D3985D000
000D3985D000
000D3985D000
000D3985D000
ENDCHAR
STARTCHAR eth
ENCODING 240
SWIDTH 783 0
DWIDTH 19 0
BBX 18 22 0 -1
BITMAP
000000023320000000
00005BDBA9BDA30000
003C934788634B9100
00A38D96556AC46B10
0008738BDCB72B7690
00003B522227D3C4B2
000001BBABD83C3B67
000000000009794D2B
000000122202B66B2C
00017CCAAAB4C57A3D
003D73688762C57A3D
02D39B754563C57A3D
0B4B64ACCCC4C57A3D
2B587B345542C57A3D
58A3D3C87785A66B2C
57A3D3B3124B5A3D3A
3A779649BB937A5976
0D2D39C8679C83C2C1
05A3D62566427C3A60
008B28CCBBDC63B700
0005C9522225AC4000
0000048BCCB8300000
ENDCHAR
STARTCHAR ntilde
ENCODING 241
SWIDTH 787 0
DWIDTH 19 0
BBX 17 23 1 0
BITMAP
0017ABBBBBB4093600
01C6322222215A5700
0775DCCCCCCCA2A400
0A3D135555556A9000
051604888888730000
000000000000000000
C5949494000065A2A0
DC3C3C3C000076B2C0
D8787979600076B2C0
D1D2D2D2D10076B2C0
D3896969680076B2C0
D39C3C3C3C2076B2C0
D393B4B4B4B076B2C0
D395A5A5A5B476B2C0
D3985D2D2D3C66B2C0
D3985788787885B2C0
D39850D2D2D2D1B2C0
D398505A5A6A69B2C0
D398500B4B3C4C72C0
D3985003C3C3C4B1C0
D39850009696A6A6C0
D39850001D2D2D3DC0
D398500006878788C0
ENDCHAR
STARTCHAR ograve
ENCODING 242
SWIDTH 833 0
DWIDTH 20 0
BBX 20 26 0 -1
BITMAP
00038100000000000000
00436C81000000000000
004CA36C920000000000
00004BA35C9200000000
0000004BB35600000000
000000003B4000000000
00000000000000000000
000000159AA851000000
000018D843359D700000
0002C639DDDC828C1000
002D39C424425C74C100
00C4A83BB88BB2985A00
069795C369954C3B4B30
0C2D3C2C845AB3C3C4A0
2C5895B500007976A3D0
4984C3C000000D3A76B1
58A3D49000000B2C57A3
4994C3B000000D2B66B2
2B6794C400006A67A3D0
0C2C3C3D6238C3C2C3A0
078876B28BB73C496A40
00C3C65C966AC48A4B00
003C3BA346633B93C100
0004D45BDBBDA46C2000
00002AB632237C910000
00000027BCCA72000000
ENDCHAR
STARTCHAR oacute
ENCODING 243
SWIDTH 833 0
DWIDTH 20 0
BBX 20 26 0 -1
BITMAP
00000000000000282000
00000000000029C53300
00000000002AC54BB300
000000003AC44BA30000
00000000744CA3000000
0000000006A200000000
00000000000000000000
000000159AA851000000
000018D843359D700000
0002C639DDDC828C1000
002D39C424425C74C100
00C4A83BB88BB2985A00
069795C369954C3B4B30
0C2D3C2C845AB3C3C4A0
2C5895B500007976A3D0
4984C3C000000D3A76B1
58A3D49000000B2C57A3
4994C3B000000D2B66B2
2B6794C400006A67A3D0
0C2C3C3D6238C3C2C3A0
078876B28BB73C496A40
00C3C65C966AC48A4B00
003C3BA346633B93C100
0004D45BDBBDA46C2000
00002AB632237C910000
00000027BCCA72000000
ENDCHAR
STARTCHAR ocircumflex
ENCODING 244
SWIDTH 833 0
DWIDTH 20 0
BBX 20 26 0 -1
BITMAP
00000000785600000000
00000000DD2C00000000
00000005886A30000000
0000000B34C490000000
0000002B58B3D1000000
00000075A35875000000
00000000000000000000
000000159AA851000000
000018D843359D700000
0002C639DDDC828C1000
002D39C424425C74C100
00C4A83BB88BB2985A00
069795C369954C3B4B30
0C2D3C2C845AB3C3C4A0
2C5895B500007976A3D0
4984C3C000000D3A76B1
58A3D49000000B2C57A3
4994C3B000000D2B66B2
2B6794C400006A67A3D0
0C2C3C3D6238C3C2C3A0
078876B28BB73C496A40
00C3C65C966AC48A4B00
003C3BA346633B93C100
0004D45BDBBDA46C2000
00002AB632237C910000
00000027BCCA72000000
ENDCHAR
STARTCHAR otilde
ENCODING 245
SWIDTH 833 0
DWIDTH 20 0
BBX 20 24 0 -1
BITMAP
000049BBBBBB90548100
0007B422222221C3D000
000D1BDCCCCCCC63B000
002A68055555557D3000
00254208888887610000
000000159AA851000000
000018D843359D700000
0002C639DDDC828C1000
002D39C424425C74C100
00C4A83BB88BB2985A00
069795C369954C3B4B30
0C2D3C2C845AB3C3C4A0
2C5895B500007976A3D0
4984C3C000000D3A76B1
58A3D49000000B2C57A3
4994C3B000000D2B66B2
2B6794C400006A67A3D0
0C2C3C3D6238C3C2C3A0
078876B28BB73C496A40
00C3C65C966AC48A4B00
003C3BA346633B93C100
0004D45BDBBDA46C2000
00002AB632237C910000
00000027BCCA72000000
ENDCHAR
STARTCHAR odieresis
ENCODING 246
SWIDTH 833 0
DWIDTH 20 0
BBX 20 23 0 -1
BITMAP
00004142200314130000
0000C2B660094D390000
0000C2B660094D390000
00003132200214130000
000000159AA851000000
000018D843359D700000
0002C639DDDC828C1000
002D39C424425C74C100
00C4A83BB88BB2985A00
069795C369954C3B4B30
0C2D3C2C845AB3C3C4A0
2C5895B500007976A3D0
4984C3C000000D3A76B1
58A3D49000000B2C57A3
4994C3B000000D2B66B2
2B6794C400006A67A3D0
0C2C3C3D6238C3C2C3A0
078876B28BB73C496A40
00C3C65C966AC48A4B00
003C3BA346633B93C100
0004D45BDBBDA46C2000
00002AB632237C910000
00000027BCCA72000000
ENDCHAR
STARTCHAR divide
ENCODING 247
SWIDTH 260 0
DWIDTH 6 0
BBX 8 14 -1 1
BITMAP
00B48840
00D49940
00D49940
00D49940
00413310
35555554
68888887
79999999
23333333
00413310
00D49940
00D49940
00D49940
00B48840
ENDCHAR
STARTCHAR oslash
ENCODING 248
SWIDTH 832 0
DWIDTH 20 0
BBX 20 23 0 -3
BITMAP
00000000000002200000
0000000000000B460000
000000159AA8575A5300
000018D843359D83D100
0003C639DDDC828C4000
002D39B435425C74C100
00C3A74CB88CB3A86A00
068785C369954D3B4B30
0C2D3C2C845AB3D3C490
2B5895B500008977A3D0
4994D3C000000D3B76B1
58A3D49000000B2C57A3
4994D3B000000D2B66B2
2B67A4C400006A67A3D0
0C2C3C3D6238C2D3D3A0
077877B28BB73C4A5A40
00C3C55D966AC48A4B00
003C2BA346644B93C100
0005C45BDBBDA46C2000
002C3AB632237C910000
0044B477BCCA62000000
00006590000000000000
00000210000000000000
ENDCHAR
STARTCHAR ugrave
ENCODING 249
SWIDTH 795 0
DWIDTH 19 0
BBX 18 26 1 -1
BITMAP
007500000000000000
0539C5000000000000
18D729C60000000000
0017D728C600000000
000017D82820000000
00000016A000000000
000000000000000000
000000000000000000
B5792B00000B2965A1
C58A3D00000C2B76C1
C58A3D00000C2B76C1
C58A3D00000C2B76C1
C58A3D00000C2B76C1
C58A3D00000C2B76C1
C58A3D00000C2B76C1
C58A3D00000C2B76C1
C58A3D00000C2B76C1
C58A3D00000D2A76C1
C3985C20002C4994C0
B2D3B4C424C4B4C2C0
67969929B938959670
1C3C48C867C84C2C10
04C3C8357537C3B500
006C37CCBCC73C6000
0003CA42224AC40000
0000049BCB94000000
ENDCHAR
STARTCHAR uacute
ENCODING 250
SWIDTH 795 0
DWIDTH 19 0
BBX 18 26 1 -1
BITMAP
000000000000057000
000000000005C93500
0000000005C937D810
00000006C927D71000
0000002827D7100000
00000000A710000000
000000000000000000
000000000000000000
B5792B00000B2965A1
C58A3D00000C2B76C1
C58A3D00000C2B76C1
C58A3D00000C2B76C1
C58A3D00000C2B76C1
C58A3D00000C2B76C1
C58A3D00000C2B76C1
C58A3D00000C2B76C1
C58A3D00000C2B76C1
C58A3D00000D2A76C1
C3985C20002C4994C0
B2D3B4C424C4B4C2C0
67969929B938959670
1C3C48C867C84C2C10
04C3C8357537C3B500
006C37CCBCC73C6000
0003CA42224AC40000
0000049BCB94000000
ENDCHAR
STARTCHAR ucircumflex
ENCODING 251
SWIDTH 795 0
DWIDTH 19 0
BBX 18 26 1 -1
BITMAP
0000000C3A10000000
0000005C9760000000
000000B2D2C0000000
000002B386B3000000
0000085B4C59000000
00000C2B0A2C000000
000000000000000000
000000000000000000
B5792B00000B2965A1
C58A3D00000C2B76C1
C58A3D00000C2B76C1
C58A3D00000C2B76C1
C58A3D00000C2B76C1
C58A3D00000C2B76C1
C58A3D00000C2B76C1
C58A3D00000C2B76C1
C58A3D00000C2B76C1
C58A3D00000D2A76C1
C3985C20002C4994C0
B2D3B4C424C4B4C2C0
67969929B938959670
1C3C48C867C84C2C10
04C3C8357537C3B500
006C37CCBCC73C6000
0003CA42224AC40000
0000049BCB94000000
ENDCHAR
STARTCHAR udieresis
ENCODING 252
SWIDTH 795 0
DWIDTH 19 0
BBX 18 23 1 -1
BITMAP
001332400042331000
003A85C000D5893000
003A85C000D5893000
001321300041231000
000000000000000000
B5792B00000B2965A1
C58A3D00000C2B76C1
C58A3D00000C2B76C1
C58A3D00000C2B76C1
C58A3D00000C2B76C1
C58A3D00000C2B76C1
C58A3D00000C2B76C1
C58A3D00000C2B76C1
C58A3D00000C2B76C1
C58A3D00000D2A76C1
C3985C20002C4994C0
B2D3B4C424C4B4C2C0
67969929B938959670
1C3C48C867C84C2C10
04C3C8357537C3B500
006C37CCBCC73C6000
0003CA42224AC40000
0000049BCB94000000
ENDCHAR
STARTCHAR yacute
ENCODING 253
SWIDTH 733 0
DWIDTH 18 0
BBX 18 25 0 0
BITMAP
000000000000038100
000000000003AB4420
0000000003BB45CA20
00000004BB45CA2000
0000000835C9200000
000000007920000000
000000000000000000
000000000000000000
5693A470000A3965A1
0C4A86B2005894C490
066A3C4A00B3B66B20
00C3A77A44994C4A00
0067A4C39B3B57A300
000C3B684985C3A000
00067949A3C5893000
0000C2C3A76B3B0000
0000677A4C49940000
00000C2B66B3B00000
000006E4C498500000
000000D4994D000000
000000D4894D000000
000000D4894D000000
000000D4894D000000
000000D4894D000000
000000D4894D000000
ENDCHAR
STARTCHAR thorn
ENCODING 254
SWIDTH 833 0
DWIDTH 20 0
BBX 19 23 1 -3
BITMAP
51432500000000000000
D3A85C00000000000000
D3A85C00000000000000
D3A85C00000000000000
D3A85C00000000000000
D3A85C25555531000000
D3A85C388888ADA20000
D3A85C4AAAA9836D4000
D3A85C1333335B93E200
D3A85C6DDDDDB4796900
D3A85C2444443C4B3D00
D3A85C499999D3A66B20
D3A85C011112D2C57A30
D3A85C5BBBBB67885C10
D3A85C266666AA3D3B00
D3A85C37777644D3B400
D3A85C5BBBBBCA3A8000
D3A85C12222236C70000
D3A85C6CCCCCB7100000
D3A85C00000000000000
D3A85C00000000000000
D3A85C00000000000000
72543700000000000000
ENDCHAR
STARTCHAR ydieresis
ENCODING 255
SWIDTH 733 0
DWIDTH 18 0
BBX 18 22 0 0
BITMAP
000413320041423000
000D398500B2C58000
000D398500B2C58000
000413210031312000
000000000000000000
5693A470000A3965A1
0C4A86B2005894C490
066A3C4A00B3B66B20
00C3A77A44994C4A00
0067A4C39B3B57A300
000C3B684985C3A000
00067949A3C5893000
0000C2C3A76B3B0000
0000677A4C49940000
00000C2B66B3B00000
000006E4C498500000
000000D4994D000000
000000D4894D000000
000000D4894D000000
000000D4894D000000
000000D4894D000000
000000D4894D000000
ENDCHAR
STARTCHAR Amacron
ENCODING 256
SWIDTH 936 0
DWIDTH 22 0
BBX 22 20 0 0
BITMAP
0000000061514230000000
00000004F5B2D2C0000000
0000000A6B6885B3000000
0000002C0C3D3B59000000
0000007696895B2D000000
000000D2C1D3B588500000
000004977695C2D3B00000
00000A4C2D3B6895B20000
00001C4A773C2D3B580000
000077A4C2C6794C2D0000
0000C2C4A671D3A6895000
0004A7794C2094C2D3B000
000A4C2D3B003A6795C200
001C4A6797887C2D3B6800
007794C2D24447794C2D00
00C2D3B68CDDD8C4A67950
03A6795C333333A4C2D3B0
094C2D3B7AAAAA6A7794C2
1D3B68950000000C2C3A67
6795C3D0000000077A4C2D
ENDCHAR
STARTCHAR amacron
ENCODING 257
SWIDTH 832 0
DWIDTH 20 0
BBX 19 19 0 -1
BITMAP
00000001455300000000
000005CB978AD9200000
0001C9259A9734C80000
001D56D85346BB399000
00C59A39CDCB63C4A600
0596A4C524429B3D2C10
0C2D2C2AC9AD66A58760
1B5895A70001B5B3D3B0
4895D2C000003B67B2C0
58A3D49000000D4894D0
4894D3A000000D4984D0
2B67A4C200000D4984D0
0D3C4B3C74475D4984D0
078777B358851D4984D0
00C3A74BB9AC5D4984D0
002D48C633343D4984D0
0002C827ACB92D4984D0
000007CA76695D4984D0
00000003566400000000
ENDCHAR
STARTCHAR Abreve
ENCODING 258
SWIDTH 936 0
DWIDTH 22 0
BBX 22 25 0 0
BITMAP
0000000358004480000000
00000001B5AA8770000000
000000003A87A700000000
0000000000120000000000
0000000000000000000000
0000000061514230000000
00000004F5B2D2C0000000
0000000A6B6885B3000000
0000002C0C3D3B59000000
0000007696895B2D000000
000000D2C1D3B588500000
000004977695C2D3B00000
00000A4C2D3B6895B20000
00001C4A773C2D3B580000
000077A4C2C6794C2D0000
0000C2C4A671D3A6895000
0004A7794C2094C2D3B000
000A4C2D3B003A6795C200
001C4A6797887C2D3B6800
007794C2D24447794C2D00
00C2D3B68CDDD8C4A67950
03A6795C333333A4C2D3B0
094C2D3B7AAAAA6A7794C2
1D3B68950000000C2C3A67
6795C3D0000000077A4C2D
ENDCHAR
STARTCHAR abreve
ENCODING 259
SWIDTH 832 0
DWIDTH 20 0
BBX 19 23 0 -1
BITMAP
00000085300862000000
000000869AA5B0000000
00000008A79A20000000
00000000021000000000
00000001455300000000
000005CB978AD9200000
0001C9259A9734C80000
001D56D85346BB399000
00C59A39CDCB63C4A600
0596A4C524429B3D2C10
0C2D2C2AC9AD66A58760
1B5895A70001B5B3D3B0
4895D2C000003B67B2C0
58A3D49000000D4894D0
4894D3A000000D4984D0
2B67A4C200000D4984D0
0D3C4B3C74475D4984D0
078777B358851D4984D0
00C3A74BB9AC5D4984D0
002D48C633343D4984D0
0002C827ACB92D4984D0
000007CA76695D4984D0
00000003566400000000
ENDCHAR
STARTCHAR Aogonek
ENCODING 260
SWIDTH 937 0
DWIDTH 23 0
BBX 23 28 0 -8
BITMAP
000000005151514000000000
00000002F895B2D000000000
000000087D3B688500000000
0000000D195C2D3B00000000
0000005975A6795C20000000
000000B3D1C2D3B680000000
000002C4967794C2D0000000
0000076A3D2D3A6895000000
00000D2C4A3A4C2D3B000000
00004976A4C4A7794C200000
0000A3D2C4A0C2C3A6800000
0001C4A77A4077A4C2D00000
00076A4C2D001C4A67940000
000C2C4A68888A4C2D3A0000
004A77A4C34445A7794C2000
00A4C2D3ABDDD9D2C4A67000
01C4A67953333386A4C2D000
077A4C2D6AAAAA6C4A77A400
0C2D3A670000000A3D2C4A00
4A6795C200000004976A4C10
0000000039C3000000000000
00000004C421000000000000
0000000B29C3000000000000
0000000D2B00000000000000
0000000D4953000000000000
0000000D4984000000000000
0000000D4984000000000000
0000000A3763000000000000
ENDCHAR
STARTCHAR aogonek
ENCODING 261
SWIDTH 832 0
DWIDTH 20 0
BBX 19 26 0 -8
BITMAP
00000001455300000000
000005CB978AD9200000
0001C9259A9734C80000
001D56D85346BB399000
00C59A39CDCB63C4A600
0596A4C524429B3D2C10
0C2D2C2AC9AD66A58760
1B5895A70001B5B3D3B0
4895D2C000003B67B2C0
58A3D49000000D4894D0
4894D3A000000D4984D0
2B67A4C200000D4984D0
0D3C4B3C74475D4984D0
078777B358851D4984D0
00C3A74BB9AC5D4984D0
002D48C633343D4984D0
0002C827ACB92D4984D0
000007CA76695D4984D0
0000001AFF6400000000
000000B7220000000000
00000493D80000000000
0000066A300000000000
0000076C270000000000
0000076C2C0000000000
0000076C2C0000000000
00000549290000000000
ENDCHAR
STARTCHAR Cacute
ENCODING 262
SWIDTH 852 0
DWIDTH 20 0
BBX 20 28 0 -1
BITMAP
00000000000000017400
000000000000017D7240
0000000000018D739C50
00000000018D639C5000
000000000563AC500000
00000000002B40000000
00000000013320000000
00000028CCA9ADB50000
000008C536887439B200
0001B73BC7557AD64C40
000C56C44ACCB729B2C3
00976A2C943227D65C38
02C3B3D47CBADA2A7630
095C3C4A810004C38000
0D3B5878000000350000
2A76B3D0000000000000
4994D3A0000000000000
58A3D490000000000000
3985C2B0000000000000
1C6895B2000000000000
0C3D3C4C100000770000
07796885C6214B93C100
00D2C3A927BB945D3B41
004B3C46DA768C93B769
0007A2B93466527D56C1
00006C45BDBBDC82AA10
000002AC7332249D5000
000000027ACCB9500000
ENDCHAR
STARTCHAR cacute
ENCODING 263
SWIDTH 736 0
DWIDTH 18 0
BBX 18 26 0 -1
BITMAP
000000000000002820
00000000000029C533
00000000002AC54BB3
000000003AC44BA300
00000000744CA30000
0000000006A2000000
000000000000000000
000000159AA8500000
000018D843359D7000
0002C639DDDC838C10
002D39C424426C75C0
00C4A83BB89CB3A810
069795C369954C3200
0C2D3C2C8449B21000
2C5895B50000300000
4984C3C00000000000
58A3D4900000000000
4994C3B00000000000
2B6794C40000200000
0C2C3C3D6228C20000
078876B28BB73C4100
00C3C65C967AC48800
003C3BA346633B93C0
0004D45BDBBDA46C20
00002AB632237C9100
00000027BCCA710000
ENDCHAR
STARTCHAR Cdotaccent
ENCODING 266
SWIDTH 852 0
DWIDTH 20 0
BBX 20 27 0 -1
BITMAP
00000000056662000000
00000000067772000000
000000000ABBB4000000
00000000022221000000
000000000BCCC4000000
00000000013320000000
00000028CCA9ADB50000
000008C536887439B200
0001B73BC7557AD64C40
000C56C44ACCB729B2C3
00976A2C943227D65C38
02C3B3D47CBADA2A7630
095C3C4A810004C38000
0D3B5878000000350000
2A76B3D0000000000000
4994D3A0000000000000
58A3D490000000000000
3985C2B0000000000000
1C6895B2000000000000
0C3D3C4C100000770000
07796885C6214B93C100
00D2C3A927BB945D3B41
004B3C46DA768C93B769
0007A2B93466527D56C1
00006C45BDBBDC82AA10
000002AC7332249D5000
000000027ACCB9500000
ENDCHAR
STARTCHAR cdotaccent
ENCODING 267
SWIDTH 736 0
DWIDTH 18 0
BBX 17 25 0 -1
BITMAP
000000016666000000
000000017777000000
00000002BBBB000000
000000002222000000
00000002CCCC100000
000000000000000000
000000159AA8500000
000018D843359D7000
0002C639DDDC838C10
002D39C424426C75C0
00C4A83BB89CB3A810
069795C369954C3200
0C2D3C2C8449B21000
2C5895B50000300000
4984C3C00000000000
58A3D4900000000000
4994C3B00000000000
2B6794C40000200000
0C2C3C3D6228C20000
078876B28BB73C4100
00C3C65C967AC48800
003C3BA346633B93C0
0004D45BDBBDA46C20
00002AB632237C9100
00000027BCCA710000
ENDCHAR
STARTCHAR Ccaron
ENCODING 268
SWIDTH 852 0
DWIDTH 20 0
BBX 20 28 0 -1
BITMAP
000000037551A3800000
00000000D2B689500000
00000000864C3D000000
000000002B3B58000000
000000000BB5B2000000
0000000005D2B0000000
00000000013320000000
00000028CCA9ADB50000
000008C536887439B200
0001B73BC7557AD64C40
000C56C44ACCB729B2C3
00976A2C943227D65C38
02C3B3D47CBADA2A7630
095C3C4A810004C38000
0D3B5878000000350000
2A76B3D0000000000000
4994D3A0000000000000
58A3D490000000000000
3985C2B0000000000000
1C6895B2000000000000
0C3D3C4C100000770000
07796885C6214B93C100
00D2C3A927BB945D3B41
004B3C46DA768C93B769
0007A2B93466527D56C1
00006C45BDBBDC82AA10
000002AC7332249D5000
000000027ACCB9500000
ENDCHAR
STARTCHAR ccaron
ENCODING 269
SWIDTH 736 0
DWIDTH 18 0
BBX 17 26 0 -1
BITMAP
000000649247650000
0000003B67A4C10000
0000000C25C4A00000
00000006777A400000
00000001DC2C000000
000000009A67000000
000000000000000000
000000159AA8500000
000018D843359D7000
0002C639DDDC838C10
002D39C424426C75C0
00C4A83BB89CB3A810
069795C369954C3200
0C2D3C2C8449B21000
2C5895B50000300000
4984C3C00000000000
58A3D4900000000000
4994C3B00000000000
2B6794C40000200000
0C2C3C3D6228C20000
078876B28BB73C4100
00C3C65C967AC48800
003C3BA346633B93C0
0004D45BDBBDA46C20
00002AB632237C9100
00000027BCCA710000
ENDCHAR
STARTCHAR Dcaron
ENCODING 270
SWIDTH 886 0
DWIDTH 21 0
BBX 20 27 1 0
BITMAP
00000083A15573000000
0000005985C3D0000000
0000000D25B680000000
00000008595B20000000
00000002CD3B00000000
00000000B88500000000
00000000000000000000
66666666666530000000
D77777777778AD700000
D2BBBBBBBBBA738C1000
D3A2222222236D74C100
D398DCCCCCCDA3A95A00
D398545555544C4B5A50
D3985D88888AB3D2D3C0
D3985D0000006977A4C2
D3985D0000000D2C5985
D3985D0000000A4D3A67
D3985D000000094D2B67
D3985D0000000B3D3A76
D3985D0000002D3A67A4
D3985D000001B5A4C2D0
D3985CDDDDDC56A5B590
D39873333334AA3D2C20
D3959999999844D4A700
D3C888888889CA3A9000
D1555555555426D70000
DDDDDDDDDDDDC7100000
ENDCHAR
STARTCHAR dcaron
ENCODING 271
SWIDTH 1084 0
DWIDTH 26 0
BBX 25 18 1 0
BITMAP
00000000000000000000312210
CDDDDDDDDDCA61000000C58A30
D133333333237D500000C58A30
D3DAAAAAAABD82B80000C58A30
D3A4888887636D4A6000258A30
D3A88555556BA3D3C2004B4B20
D3A85ACCCCA47B4B5900953C00
D3A85C10003C4A5C2D008AC300
D3A85C000002C4985B20530000
D3A85C000000D2B67A30000000
D3A85C000001C4A85B20000000
D3A85C00001B595B3D00000000
D3A85CDDDDC65C3B4A00000000
D3A873333349B2C3C300000000
D3A5999999854C589000000000
D3C88888889CA39A0000000000
D155555555325C800000000000
DDDDDDDDDDCC82000000000000
ENDCHAR
STARTCHAR Dcroat
ENCODING 272
SWIDTH 888 0
DWIDTH 21 0
BBX 23 20 -2 0
BITMAP
000566666666665300000000
000D77777777778AD7100000
000D2BBBBBBBBBA738C10000
000D3A2222222236D74C1000
000D3A8DCCCCCCDA3A95A000
000D3A8545555544C4A5A500
000D3A85C88888AB2C2D2C00
000D3A85C000000687794C20
2D8D3A85C7DD4000D2C59850
032D3A85C1331000A3D3A670
2A6D3A85C5AA300094C2B670
185D3A85C4882000B2D3A760
153D3A85C3551002C3A67940
000D3A85C000001B5A4B2D00
000D3A85CDDDDDC66A4B5900
000D3A873333334AB3D2C200
000D3A59999999844C497000
000D3C888888889CB3A90000
000D1555555555426D700000
000DDDDDDDDDDDDC72000000
ENDCHAR
STARTCHAR dcroat
ENCODING 273
SWIDTH 833 0
DWIDTH 20 0
BBX 22 17 -2 0
BITMAP
000CDDDDDDDDDCA6100000
000D133333333237D50000
000D3DAAAAAAABD82B8000
000D394888887636D3A600
000D3988555556BA3D3C20
000D3985ACCCCA47A4A590
000D3985D00003C4A4C2D0
2B7D3985D6BB302C4985B2
011D3985D011000D2B77A3
2C7D3985D7CC401C4985B2
000D3985D00001B595C2D0
000D3985CDDDDC55B3B490
000D39873333349B2C3C30
000D395999999854C58800
000D3C88888889CA39A000
000D155555555325C80000
000DDDDDDDDDDCC8200000
ENDCHAR
STARTCHAR Emacron
ENCODING 274
SWIDTH 706 0
DWIDTH 17 0
BBX 15 20 1 0
BITMAP
5143256666666660
D3985D7777777760
D3985DBBBBBBBBA0
D3985D2222222220
D3985DCCCCCCCCC0
D3985D0000000000
D3985D0000000000
D3985D0000000000
D3985DCCCC700000
D3985D2222100000
D3985DBBBB700000
D3985D7777400000
D3985D6666400000
D3985D0000000000
D3985D0000000000
D3985D3333333330
D3985D9999999990
D3985D8888888880
D3985D5555555550
D3985DDDDDDDDDC0
ENDCHAR
STARTCHAR emacron
ENCODING 275
SWIDTH 666 0
DWIDTH 16 0
BBX 15 17 1 0
BITMAP
B3874BDDDDDDDD10
D3985D3333333300
D3985DAAAAAAAA10
D3985D8888888810
D3985D5555555500
D3985D0000000000
D3985D8888888500
D3985D4444444300
D3985DDDDDDDD800
D3985D3333333200
D3985DAAAAAAA600
D3985D0000000000
D3985D3333333300
D3985D9999999910
D3985D8888888810
D3985D5555555500
D3985DDDDDDDDD10
ENDCHAR
STARTCHAR Ebreve
ENCODING 276
SWIDTH 706 0
DWIDTH 17 0
BBX 15 25 1 0
BITMAP
0000862017700000
0000A59AA5A00000
0000199799100000
0000001210000000
0000000000000000
5143256666666660
D3985D7777777760
D3985DBBBBBBBBA0
D3985D2222222220
D3985DCCCCCCCCC0
D3985D0000000000
D3985D0000000000
D3985D0000000000
D3985DCCCC700000
D3985D2222100000
D3985DBBBB700000
D3985D7777400000
D3985D6666400000
D3985D0000000000
D3985D0000000000
D3985D3333333330
D3985D9999999990
D3985D8888888880
D3985D5555555550
D3985DDDDDDDDDC0
ENDCHAR
STARTCHAR ebreve
ENCODING 277
SWIDTH 666 0
DWIDTH 16 0
BBX 15 22 1 0
BITMAP
0004470064600000
0002B6AA79400000
00004B88B6000000
0000002200000000
0000000000000000
B3874BDDDDDDDD10
D3985D3333333300
D3985DAAAAAAAA10
D3985D8888888810
D3985D5555555500
D3985D0000000000
D3985D8888888500
D3985D4444444300
D3985DDDDDDDD800
D3985D3333333200
D3985DAAAAAAA600
D3985D0000000000
D3985D3333333300
D3985D9999999910
D3985D8888888810
D3985D5555555500
D3985DDDDDDDDD10
ENDCHAR
STARTCHAR Edotaccent
ENCODING 278
SWIDTH 706 0
DWIDTH 17 0
BBX 15 26 1 0
BITMAP
0000048885000000
0000035553000000
000007CCC8000000
0000012222000000
000006BBB7000000
0000000000000000
5143256666666660
D3985D7777777760
D3985DBBBBBBBBA0
D3985D2222222220
D3985DCCCCCCCCC0
D3985D0000000000
D3985D0000000000
D3985D0000000000
D3985DCCCC700000
D3985D2222100000
D3985DBBBB700000
D3985D7777400000
D3985D6666400000
D3985D0000000000
D3985D0000000000
D3985D3333333330
D3985D9999999990
D3985D8888888880
D3985D5555555550
D3985DDDDDDDDDC0
ENDCHAR
STARTCHAR edotaccent
ENCODING 279
SWIDTH 666 0
DWIDTH 16 0
BBX 15 24 1 0
BITMAP
0000088882000000
0000055551000000
00000CCCC2000000
0000022220000000
00000BBBB2000000
0000000000000000
0000000000000000
B3874BDDDDDDDD10
D3985D3333333300
D3985DAAAAAAAA10
D3985D8888888810
D3985D5555555500
D3985D0000000000
D3985D8888888500
D3985D4444444300
D3985DDDDDDDD800
D3985D3333333200
D3985DAAAAAAA600
D3985D0000000000
D3985D3333333300
D3985D9999999910
D3985D8888888810
D3985D5555555500
D3985DDDDDDDDD10
ENDCHAR
STARTCHAR Eogonek
ENCODING 280
SWIDTH 706 0
DWIDTH 17 0
BBX 15 27 1 -7
BITMAP
5143256666666660
D4984D7777777760
D4984DBBBBBBBBA0
D4984D2222222220
D4984DCCCCCCCCC0
D4984D0000000000
D4984D0000000000
D4984D0000000000
D4984DCCCC700000
D4984D2222100000
D4984DBBBB600000
D4984D7777400000
D4984D6666400000
D4984D0000000000
D4984D0000000000
D4984D3333333330
D4984D9999999990
D4984D8888888880
D4984D5555555540
D4984DDDDDDDFFF0
0000000000099220
00000000002C2CA0
0000000000498600
0000000000489480
00000000004894D0
00000000004894D0
00000000003673A0
ENDCHAR
STARTCHAR eogonek
ENCODING 281
SWIDTH 666 0
DWIDTH 16 0
BBX 15 24 1 -7
BITMAP
B3874BDDDDDDDD10
D3985D3333333300
D3985DAAAAAAAA10
D3985D8888888810
D3985D5555555500
D3985D0000000000
D3985D8888888500
D3985D4444444300
D3985DDDDDDDD800
D3985D3333333200
D3985DAAAAAAA600
D3985D0000000000
D3985D3333333300
D3985D9999999910
D3985D8888888810
D3985D5555555500
D3985DDDDDDFFF20
00000000007A3200
0000000000D1BC10
0000000002B68000
0000000002A76710
0000000002A76C10
0000000002A76C10
0000000002854910
ENDCHAR
STARTCHAR Ecaron
ENCODING 282
SWIDTH 706 0
DWIDTH 17 0
BBX 15 27 1 0
BITMAP
0000A29082A00000
000095C3C4A00000
00003B477A400000
00000C2C2C000000
000006BA67000000
000001E4B1000000
0000000000000000
5143256666666660
D3985D7777777760
D3985DBBBBBBBBA0
D3985D2222222220
D3985DCCCCCCCCC0
D3985D0000000000
D3985D0000000000
D3985D0000000000
D3985DCCCC700000
D3985D2222100000
D3985DBBBB700000
D3985D7777400000
D3985D6666400000
D3985D0000000000
D3985D0000000000
D3985D3333333330
D3985D9999999990
D3985D8888888880
D3985D5555555550
D3985DDDDDDDDDC0
ENDCHAR
STARTCHAR ecaron
ENCODING 283
SWIDTH 666 0
DWIDTH 16 0
BBX 15 25 1 0
BITMAP
0004674294600000
0001C4A86B300000
0000A44D2C000000
00004A5976000000
00000CB3C1000000
000007C490000000
0000000000000000
0000000000000000
B3874BDDDDDDDD10
D3985D3333333300
D3985DAAAAAAAA10
D3985D8888888810
D3985D5555555500
D3985D0000000000
D3985D8888888500
D3985D4444444300
D3985DDDDDDDD800
D3985D3333333200
D3985DAAAAAAA600
D3985D0000000000
D3985D3333333300
D3985D9999999910
D3985D8888888810
D3985D5555555500
D3985DDDDDDDDD10
ENDCHAR
STARTCHAR Gbreve
ENCODING 286
SWIDTH 908 0
DWIDTH 22 0
BBX 21 26 0 -1
BITMAP
0000000358004470000000
00000001B5AA8760000000
000000003A87A700000000
0000000000120000000000
0000000001332000000000
00000028CCA9ADB5000000
000008C536887439B20000
0001B73BC7557AD64C4000
000C56C44ACCB729B2C300
00976A2C943227D65C3800
02C3B3D47CBADA2A763000
095C3C4A810004C3800000
0D3B587800000035000000
2A76B3D000000000000000
4994D3A000000002111020
58A3D4900000001B67B2C0
3984C3B00000001B67B2C0
2B67A4D10000001B67B2C0
0C3C4A5A0000001B67B2C0
086A4A67C52136BB67B2C0
01D2D3C828BBA75B67B2C0
006A4C37C9667AEB67B2C0
000993C82467634B67B2C0
00008C36BDBBCDBB67B2C0
000003BB6322348B67B2C0
000000037ACCB951000000
ENDCHAR
STARTCHAR gbreve
ENCODING 287
SWIDTH 827 0
DWIDTH 20 0
BBX 19 23 0 -1
BITMAP
00000064600744000000
000000497AA6A2000000
00000005B88B40000000
00000000022000000000
000000159AA850000000
000018D843359D700000
0002C639DDDC838C1000
002D39C424426C75C000
00C4A83BB89CB3A81000
069795C369954C320000
0C2D3C2C8449B2100000
2C5895B5000030000000
4984C3C0000000000000
58A3D490000007346270
4994C3B000000C58A3D0
2B6794C400000C58A3D0
0C2C3C3D6225CC58A3D0
078876B28BB84C58A3D0
00C3C65C9679DC58A3D0
003C3BA346643C58A3D0
0004D45BDBBDBC58A3D0
00002AB632237C58A3D0
00000027BCCA72000000
ENDCHAR
STARTCHAR Gdotaccent
ENCODING 288
SWIDTH 908 0
DWIDTH 22 0
BBX 21 27 0 -1
BITMAP
0000000005666200000000
0000000006777200000000
000000000ABBB400000000
0000000002222100000000
000000000BCCC400000000
0000000001332000000000
00000028CCA9ADB5000000
000008C536887439B20000
0001B73BC7557AD64C4000
000C56C44ACCB729B2C300
00976A2C943227D65C3800
02C3B3D47CBADA2A763000
095C3C4A810004C3800000
0D3B587800000035000000
2A76B3D000000000000000
4994D3A000000002111020
58A3D4900000001B67B2C0
3984C3B00000001B67B2C0
2B67A4D10000001B67B2C0
0C3C4A5A0000001B67B2C0
086A4A67C52136BB67B2C0
01D2D3C828BBA75B67B2C0
006A4C37C9667AEB67B2C0
000993C82467634B67B2C0
00008C36BDBBCDBB67B2C0
000003BB6322348B67B2C0
000000037ACCB951000000
ENDCHAR
STARTCHAR gdotaccent
ENCODING 289
SWIDTH 827 0
DWIDTH 20 0
BBX 19 25 0 -1
BITMAP
00000001666600000000
00000001777700000000
00000002BBBB00000000
00000000222200000000
00000002CCCC10000000
00000000000000000000
000000159AA850000000
000018D843359D700000
0002C639DDDC838C1000
002D39C424426C75C000
00C4A83BB89CB3A81000
069795C369954C320000
0C2D3C2C8449B2100000
2C5895B5000030000000
4984C3C0000000000000
58A3D490000007346270
4994C3B000000C58A3D0
2B6794C400000C58A3D0
0C2C3C3D6225CC58A3D0
078876B28BB84C58A3D0
00C3C65C9679DC58A3D0
003C3BA346643C58A3D0
0004D45BDBBDBC58A3D0
00002AB632237C58A3D0
00000027BCCA72000000
ENDCHAR
STARTCHAR Gcommaaccent
ENCODING 290
SWIDTH 908 0
DWIDTH 22 0
BBX 21 31 0 -10
BITMAP
0000000001332000000000
00000028CCA9ADB5000000
000008C536887439B20000
0001B73BC7557AD64C4000
000C56C44ACCB729B2C300
00976A2C943227D65C3800
02C3B3D47CBADA2A763000
095C3C4A810004C3800000
0D3B587800000035000000
2A76B3D000000000000000
4994D3A000000002111020
58A3D4900000001B67B2C0
3984C3B00000001B67B2C0
2B67A4D10000001B67B2C0
0C3C4A5A0000001B67B2C0
086A4A67C52136BB67B2C0
01D2D3C828BBA75B67B2C0
006A4C37C9667AEB67B2C0
000993C82467634B67B2C0
00008C36BDBBCDBB67B2C0
000003BB6322348B67B2C0
000000037ACCB951000000
0000000004123100000000
000000000D489400000000
000000000D489400000000
000000000D489400000000
0000000001589400000000
0000000004B4A200000000
000000000843C000000000
0000000008BC3000000000
0000000004200000000000
ENDCHAR
STARTCHAR gcommaaccent
ENCODING 291
SWIDTH 827 0
DWIDTH 20 0
BBX 19 19 0 -1
BITMAP
000000159AA850000000
000018D843359D700000
0002C639DDDC838C1000
002D39C424426C75C000
00C4A83BB89CB3A81000
069795C369954C320000
0C2D3C2C8449B2100000
2C5895B5000030000000
4984C3C0000000000000
58A3D490000007346270
4994C3B000000C58A3D0
2B6794C400000C58A3D0
0C2C3C3D6225CC58A3D0
078876B28BB84C58A3D0
00C3C65C9679DC58A3D0
003C3BA346643C58A3D0
0004D45BDBBDBC58A3D0
00002AB632237C58A3D0
00000027BCCA72000000
ENDCHAR
STARTCHAR Hcircumflex
ENCODING 292
SWIDTH 901 0
DWIDTH 22 0
BBX 20 27 1 0
BITMAP
00000000967400000000
00000001CC4A00000000
000000076A4C10000000
0000000C25A770000000
0000004976D2C0000000
00000093B17693000000
00000000000000000000
51432500000002341523
D3985D000000067B2C58
D3985D000000067B2C58
D3985D000000067B2C58
D3985D000000067B2C58
D3985D000000067B2C58
D3985D000000067B2C58
D3985D000000067B2C58
D3985DCCCCCCCD7B2C58
D3985D222222277B2C58
D3985DBBBBBBBC7B2C58
D3985D7777777A7B2C58
D3985D6666666A7B2C58
D3985D000000067B2C58
D3985D000000067B2C58
D3985D000000067B2C58
D3985D000000067B2C58
D3985D000000067B2C58
D3985D000000067B2C58
D3985D000000067B2C58
ENDCHAR
STARTCHAR hcircumflex
ENCODING 293
SWIDTH 830 0
DWIDTH 20 0
BBX 18 25 1 0
BITMAP
000000078560000000
0000000DD2C0000000
0000005976A4000000
000000B34C49000000
000002C48A3C100000
000007693487500000
000000000000000000
000000000000000000
B3874B000001A5692B
D3985D000001C67B2C
D3985D000001C67B2C
D3985D000001C67B2C
D3985D000001C67B2C
D3985D000001C67B2C
D3985DDDDDDDC67B2C
D3985D444445C67B2C
D3985D888889C67B2C
D3985D999999C67B2C
D3985D444445C67B2C
D3985D000001C67B2C
D3985D000001C67B2C
D3985D000001C67B2C
D3985D000001C67B2C
D3985D000001C67B2C
D3985D000001C67B2C
ENDCHAR
STARTCHAR Hbar
ENCODING 294
SWIDTH 901 0
DWIDTH 22 0
BBX 24 20 -1 0
BITMAP
005143250000000234152300
00D3A85C000000067B2C5800
00D3A85C000000067B2C5800
88D3A85C6CCCCCC47B2C56C2
33D3A85C355555577B2C5851
55D3A85C488888877B2C5981
00D3A85C000000067B2C5800
00D3A85C000000067B2C5800
00D3A85CCCCCCCCD7B2C5800
00D3A85C322222277B2C5800
00D3A85CBBBBBBBC7B2C5800
00D3A85C7777777A7B2C5800
00D3A85C666666697B2C5800
00D3A85C000000067B2C5800
00D3A85C000000067B2C5800
00D3A85C000000067B2C5800
00D3A85C000000067B2C5800
00D3A85C000000067B2C5800
00D3A85C000000067B2C5800
00D3A85C000000067B2C5800
ENDCHAR
STARTCHAR hbar
ENCODING 295
SWIDTH 830 0
DWIDTH 20 0
BBX 22 17 -1 0
BITMAP
00B3874B000001A5692B00
11D3A85C122220C67B2C11
57D3A85C5BBBB5C67B2C83
34D3A85C477775C67B2C52
34D3A85C366664C67B2C52
00D3A85C000001C67B2C00
00D3A85CDDDDDDC67B2C00
00D3A85C444445C67B2C00
00D3A85C988889C67B2C00
00D3A85C999999C67B2C00
00D3A85C444445C67B2C00
00D3A85C000001C67B2C00
00D3A85C000001C67B2C00
00D3A85C000001C67B2C00
00D3A85C000001C67B2C00
00D3A85C000001C67B2C00
00D3A85C000001C67B2C00
ENDCHAR
STARTCHAR Itilde
ENCODING 296
SWIDTH 338 0
DWIDTH 8 0
BBX 16 26 -4 0
BITMAP
0039ABBBBBB04572
05C422222221A4B1
0C2ADCCCCCCC72C0
1C49055555557C40
1633078888876100
0000000000000000
0000051432500000
00000D3985D00000
00000D3985D00000
00000D3985D00000
00000D3985D00000
00000D3985D00000
00000D3985D00000
00000D3985D00000
00000D3985D00000
00000D3985D00000
00000D3985D00000
00000D3985D00000
00000D3985D00000
00000D3985D00000
00000D3985D00000
00000D3985D00000
00000D3985D00000
00000D3985D00000
00000D3985D00000
00000D3985D00000
ENDCHAR
STARTCHAR itilde
ENCODING 297
SWIDTH 337 0
DWIDTH 8 0
BBX 16 23 -4 0
BITMAP
0039ABBBBBB04572
05C422222221A4B1
0C2ADCCCCCCC72C0
1C49055555557C40
1633078888876100
0000000000000000
00000B3874B00000
00000D3985D00000
00000D3985D00000
00000D3985D00000
00000D3985D00000
00000D3985D00000
00000D3985D00000
00000D3985D00000
00000D3985D00000
00000D3985D00000
00000D3985D00000
00000D3985D00000
00000D3985D00000
00000D3985D00000
00000D3985D00000
00000D3985D00000
00000D3985D00000
ENDCHAR
STARTCHAR Imacron
ENCODING 298
SWIDTH 338 0
DWIDTH 8 0
BBX 6 20 1 0
BITMAP
514325
D3985D
D3985D
D3985D
D3985D
D3985D
D3985D
D3985D
D3985D
D3985D
D3985D
D3985D
D3985D
D3985D
D3985D
D3985D
D3985D
D3985D
D3985D
D3985D
ENDCHAR
STARTCHAR imacron
ENCODING 299
SWIDTH 337 0
DWIDTH 8 0
BBX 6 17 1 0
BITMAP
B3874B
D3985D
D3985D
D3985D
D3985D
D3985D
D3985D
D3985D
D3985D
D3985D
D3985D
D3985D
D3985D
D3985D
D3985D
D3985D
D3985D
ENDCHAR
STARTCHAR Ibreve
ENCODING 300
SWIDTH 338 0
DWIDTH 8 0
BBX 8 25 0 0
BITMAP
54700646
3A6AA794
04B88B50
00022000
00000000
05143250
0D3985D0
0D3985D0
0D3985D0
0D3985D0
0D3985D0
0D3985D0
0D3985D0
0D3985D0
0D3985D0
0D3985D0
0D3985D0
0D3985D0
0D3985D0
0D3985D0
0D3985D0
0D3985D0
0D3985D0
0D3985D0
0D3985D0
ENDCHAR
STARTCHAR ibreve
ENCODING 301
SWIDTH 337 0
DWIDTH 8 0
BBX 8 22 0 0
BITMAP
54700646
3A6AA794
04B88B50
00022000
00000000
0B3874B0
0D3985D0
0D3985D0
0D3985D0
0D3985D0
0D3985D0
0D3985D0
0D3985D0
0D3985D0
0D3985D0
0D3985D0
0D3985D0
0D3985D0
0D3985D0
0D3985D0
0D3985D0
0D3985D0
ENDCHAR
STARTCHAR Iogonek
ENCODING 302
SWIDTH 338 0
DWIDTH 8 0
BBX 6 27 1 -7
BITMAP
514325
D3985D
D3985D
D3985D
D3985D
D3985D
D3985D
D3985D
D3985D
D3985D
D3985D
D3985D
D3985D
D3985D
D3985D
D3985D
D3985D
D3985D
D3985D
D3AEFF
009922
01C1CB
039760
049848
04984D
04984D
03763A
ENDCHAR
STARTCHAR iogonek
ENCODING 303
SWIDTH 337 0
DWIDTH 8 0
BBX 6 24 1 -7
BITMAP
B3874B
D3985D
D3985D
D3985D
D3985D
D3985D
D3985D
D3985D
D3985D
D3985D
D3985D
D3985D
D3985D
D3985D
D3985D
D3985D
D39DFF
008A32
01D1CB
03A670
03A858
03A85C
03A85C
027649
ENDCHAR
STARTCHAR Idotaccent
ENCODING 304
SWIDTH 338 0
DWIDTH 8 0
BBX 6 26 1 0
BITMAP
066661
077771
1BBBB2
022220
1CCCC2
000000
514325
D3985D
D3985D
D3985D
D3985D
D3985D
D3985D
D3985D
D3985D
D3985D
D3985D
D3985D
D3985D
D3985D
D3985D
D3985D
D3985D
D3985D
D3985D
D3985D
ENDCHAR
STARTCHAR dotlessi
ENCODING 305
SWIDTH 337 0
DWIDTH 8 0
BBX 6 17 1 0
BITMAP
B3874B
D3985D
D3985D
D3985D
D3985D
D3985D
D3985D
D3985D
D3985D
D3985D
D3985D
D3985D
D3985D
D3985D
D3985D
D3985D
D3985D
ENDCHAR
STARTCHAR IJ
ENCODING 306
SWIDTH 774 0
DWIDTH 19 0
BBX 17 21 1 -1
BITMAP
514325000023415230
D4984D000067B2C580
D4984D000067B2C580
D4984D000067B2C580
D4984D000067B2C580
D4984D000067B2C580
D4984D000067B2C580
D4984D000067B2C580
D4984D000067B2C580
D4984D000067B2C580
D4984D000067B2C580
D4984D000067B2C580
D4984D000067B2C580
D4984D000076C2C670
D4984D0012C3D3A760
D4984D04CB49785B20
D4984D0267B93C3B00
D4984D027735C3C300
D4984D03ABD92B6000
D4984D012237D50000
00000004DCA6100000
ENDCHAR
STARTCHAR ij
ENCODING 307
SWIDTH 729 0
DWIDTH 18 0
BBX 16 20 1 -3
BITMAP
B3874B00066A2A56
D3A85C00066B2C57
D3A85C00066B2C57
D3A85C00066B2C57
D3A85C00066B2C57
D3A85C00066B2C57
D3A85C00066B2C57
D3A85C00066B2C57
D3A85C00066B2C57
D3A85C00066B2C57
D3A85C00066B2C57
D3A85C00066B2C57
D3A85C00094C2B66
D3A85C029B3B5894
D3A85C0244C3C3D0
D3A85C04DB397780
D3A85C0125C74C10
00000004B837C200
0000000269D81000
0000000374000000
ENDCHAR
STARTCHAR Jcircumflex
ENCODING 308
SWIDTH 434 0
DWIDTH 10 0
BBX 10 28 0 -1
BITMAP
00001C2B00
00007C7940
0000C2D3A0
0004A3A4C1
000A4C4A67
001B390B2B
0000000000
0003251432
00084D3A75
00084D3A75
00084D3A75
00084D3A75
00084D3A75
00084D3A75
00084D3A75
00084D3A75
00084D3A75
00084D3A75
00084D3A75
00084D3A75
00094D3A85
013C3C5893
5CA3B5A3D0
367C75A590
37636C3C20
5ABD83C400
12238C4000
6DCA500000
ENDCHAR
STARTCHAR jcircumflex
ENCODING 309
SWIDTH 393 0
DWIDTH 9 0
BBX 9 28 0 -3
BITMAP
0001C2B000
0006C89500
000C2D3B00
003A395C20
0094C4B680
01C3A0B2B0
0000000000
0000000000
0074B29650
0085C2B760
0085C2B760
0085C2B760
0085C2B760
0085C2B760
0085C2B760
0085C2B760
0085C2B760
0085C2B760
0085C2B760
0085C2B760
00A3D39850
3AA4A67A30
344D3C2D00
5DB3A68600
126C65B000
5B728B1000
269D700000
3640000000
ENDCHAR
STARTCHAR Kcommaaccent
ENCODING 310
SWIDTH 815 0
DWIDTH 20 0
BBX 18 29 1 -9
BITMAP
514325000004251516
D3985D00001D3C4B59
D3985D00008695B3C2
D3985D0001C3C4A590
D3985D00086A4B3C10
D3985D001C3C4A6800
D3985D0095A4C3C100
D3985D02C3B4A68000
D3985D095A4C3D1000
D3985D2C3B59780000
D3985D697795A40000
D3985D0C2D2C4B0000
D3985D0687795B3000
D3985D00C2D2C3B000
D3985D00597795A400
D3985D000C2D2C3B00
D3985D000597786A40
D3985D0000C2D2C3C0
D3985D0000596886A4
D3985D00000C3D2D3C
000000041231000000
0000000C58A3000000
0000000C58A3000000
0000000C58A3000000
0000000158A3000000
00000005C4B2000000
0000000843C0000000
00000009BC20000000
000000042000000000
ENDCHAR
STARTCHAR kcommaaccent
ENCODING 311
SWIDTH 801 0
DWIDTH 19 0
BBX 18 26 1 -9
BITMAP
B3874B00001B2A3958
D3985D000086A4B3C2
D3985D0002C3B59680
D3985D000A4B3C2C10
D3985D003B59688600
D3985D00B3C2C3C000
D3985D0596886A4000
D3985D0C3C3C3B0000
D3985D597786A40000
D3985D1C3C3B590000
D3985D07786A4B3000
D3985D00C2C3C4B000
D3985D00597786A400
D3985D000C3C3C3C00
D3985D0003B5977950
D3985D0000A4C3C2C0
D3985D00002C4B5977
000000132240000000
0000003A85C0000000
0000003A85C0000000
0000003A85C0000000
0000000185C0000000
00000015D2D0000000
0000002836A0000000
00000029CB10000000
000000141000000000
ENDCHAR
STARTCHAR kgreenlandic
ENCODING 312
SWIDTH 801 0
DWIDTH 19 0
BBX 18 17 1 0
BITMAP
B3874B00001B2A3958
D3985D000086A4B3C2
D3985D0002C3B59680
D3985D000A4B3C2C10
D3985D003B59688600
D3985D00B3C2C3C000
D3985D0596886A4000
D3985D0C3C3C3B0000
D3985D597786A40000
D3985D1C3C3B590000
D3985D07786A4B3000
D3985D00C2C3C4B000
D3985D00597786A400
D3985D000C3C3C3C00
D3985D0003B5977950
D3985D0000A4C3C2C0
D3985D00002C4B5977
ENDCHAR
STARTCHAR Lacute
ENCODING 313
SWIDTH 604 0
DWIDTH 15 0
BBX 14 27 1 0
BITMAP
00000000000560
0000000006C925
00000006D827D7
000016D828D710
00003728D60000
000001B6000000
00000000000000
51432500000000
D3985D00000000
D3985D00000000
D3985D00000000
D3985D00000000
D3985D00000000
D3985D00000000
D3985D00000000
D3985D00000000
D3985D00000000
D3985D00000000
D3985D00000000
D3985D00000000
D3985D00000000
D3985D00000000
D3985D33333320
D3985D99999970
D3985D88888860
D3985D55555540
D3985DDDDDDDA0
ENDCHAR
STARTCHAR lacute
ENCODING 314
SWIDTH 583 0
DWIDTH 14 0
BBX 13 25 1 0
BITMAP
00000001830000
0000029C633000
00029C63AC4000
029C53AB400000
0754BB40000000
004B3000000000
00000000000000
00000000000000
B3874B00000000
D3985D00000000
D3985D00000000
D3985D00000000
D3985D00000000
D3985D00000000
D3985D00000000
D3985D00000000
D3985D00000000
D3985D00000000
D3985D00000000
D3985D00000000
D3985D33333310
D3985D99999920
D3985D88888820
D3985D55555510
D3985DDDDDDD30
ENDCHAR
STARTCHAR Lcommaaccent
ENCODING 315
SWIDTH 604 0
DWIDTH 15 0
BBX 13 29 1 -9
BITMAP
51432500000000
D3985D00000000
D3985D00000000
D3985D00000000
D3985D00000000
D3985D00000000
D3985D00000000
D3985D00000000
D3985D00000000
D3985D00000000
D3985D00000000
D3985D00000000
D3985D00000000
D3985D00000000
D3985D00000000
D3985D33333320
D3985D99999970
D3985D88888860
D3985D55555540
D3985DDDDDDDA0
00003141200000
0000A2D5800000
0000A2D5800000
0000A2D5800000
000011C5800000
00003996700000
0000661C200000
00006AD5000000
00003300000000
ENDCHAR
STARTCHAR lcommaaccent
ENCODING 316
SWIDTH 583 0
DWIDTH 14 0
BBX 13 26 1 -9
BITMAP
B3874B00000000
D3985D00000000
D3985D00000000
D3985D00000000
D3985D00000000
D3985D00000000
D3985D00000000
D3985D00000000
D3985D00000000
D3985D00000000
D3985D00000000
D3985D00000000
D3985D33333310
D3985D99999920
D3985D88888820
D3985D55555510
D3985DDDDDDD30
00004133100000
0000D499400000
0000D499400000
0000D499400000
00001489400000
00004B5A300000
0000843C000000
00008BC3000000
00004200000000
ENDCHAR
STARTCHAR Lcaron
ENCODING 317
SWIDTH 856 0
DWIDTH 21 0
BBX 19 21 1 0
BITMAP
00000000000000213130
5143250000000076C2C0
D4984D0000000076C2C0
D4984D0000000076C2C0
D4984D0000000011C2B0
D4984D0000000015C2A0
D4984D00000000482960
D4984D0000000038C900
D4984D00000000241000
D4984D00000000000000
D4984D00000000000000
D4984D00000000000000
D4984D00000000000000
D4984D00000000000000
D4984D00000000000000
D4984D00000000000000
D4984D33333320000000
D4984D99999970000000
D4984D88888860000000
D4984D55555530000000
D4984DDDDDDD90000000
ENDCHAR
STARTCHAR lcaron
ENCODING 318
SWIDTH 584 0
DWIDTH 14 0
BBX 13 18 1 0
BITMAP
00000001221300
B3874B03985D00
D3A85C03985D00
D3A85C03985D00
D3A85C00185D00
D3A85C014D2D00
D3A85C02935A00
D3A85C028BB100
D3A85C01520000
D3A85C00000000
D3A85C00000000
D3A85C00000000
D3A85C00000000
D3A85C33333310
D3A85C99999920
D3A85C88888820
D3A85C55555510
D3A85CDDDDDD30
ENDCHAR
STARTCHAR Ldot
ENCODING 319
SWIDTH 604 0
DWIDTH 15 0
BBX 13 20 1 0
BITMAP
51432500000000
D3985D00000000
D3985D00000000
D3985D00000000
D3985D00000000
D3985D00000000
D3985D00000000
D3985D04888500
D3985D03555300
D3985D07CCC800
D3985D01222100
D3985D06BBB700
D3985D00000000
D3985D00000000
D3985D00000000
D3985D33333320
D3985D99999970
D3985D88888860
D3985D55555540
D3985DDDDDDDA0
ENDCHAR
STARTCHAR ldot
ENCODING 320
SWIDTH 582 0
DWIDTH 14 0
BBX 13 17 1 0
BITMAP
B3874B00000000
D3A85C00000000
D3A85C00000000
D3A85C04888500
D3A85C03555300
D3A85C07CCC800
D3A85C01222200
D3A85C06BBB700
D3A85C00000000
D3A85C00000000
D3A85C00000000
D3A85C00000000
D3A85C33333310
D3A85C99999920
D3A85C88888820
D3A85C55555510
D3A85CDDDDDD30
ENDCHAR
STARTCHAR Lslash
ENCODING 321
SWIDTH 604 0
DWIDTH 15 0
BBX 16 20 -2 0
BITMAP
0005143250000000
000D3A85C0000000
000D3A85C0000000
000D3A85C0000000
000D3A85C0002000
000D3A85C17BB000
000D3A85C3637000
000D3A85C3BB6000
055D3A85C206B000
782D3A85C5B71000
3A6D3A85C0000000
432D3A85C0000000
6C5D3A85C0000000
100D3A85C0000000
000D3A85C0000000
000D3A85C3333332
000D3A85C9999997
000D3A85C8888886
000D3A85C5555554
000D3A85CDDDDDDA
ENDCHAR
STARTCHAR lslash
ENCODING 322
SWIDTH 581 0
DWIDTH 14 0
BBX 16 17 -2 0
BITMAP
000B3874B0000000
000D3A85C0000000
000D3A85C0000000
000D3A85C027C000
000D3A85C4B53000
000D3A85C17CB000
012D3A85C3617000
7C4D3A85C3BB6000
155D3A85C2100000
772D3A85C0000000
3A7D3A85C0000000
430D3A85C0000000
000D3A85C3333331
000D3A85C9999992
000D3A85C8888882
000D3A85C5555551
000D3A85CDDDDDD3
ENDCHAR
STARTCHAR Nacute
ENCODING 323
SWIDTH 877 0
DWIDTH 21 0
BBX 19 27 1 0
BITMAP
00000000000000570000
0000000000005C935000
00000000005C937D8100
000000006C927D710000
00000002827D71000000
000000000A7100000000
00000000000000000000
61515151000005234250
EA69696900000D4894D0
DB4B4B4C30000D4894D0
D2C3C3C3C0000D4894D0
D187878786000D4894D0
D37C3C2D3D100D4894D0
D394B4A5A5A00D4894D0
D393A5A5B5B40D4894D0
D3985D2C3D3C0D4894D0
D398578787877A4894D0
D39855C3C3C3C44894D0
D3985C3C4B4B4B4894D0
D3985D09696A6A6794D0
D3985D01D2D2D3D294D0
D3985D005969697894D0
D3985D000B4B3C4C64D0
D3985D0002C3C3C3C0D0
D3985D000087879796D0
D3985D00001C2C2D3DD0
D3985D000004A5A5A6E0
ENDCHAR
STARTCHAR nacute
ENCODING 324
SWIDTH 787 0
DWIDTH 19 0
BBX 17 25 1 0
BITMAP
000000000000056000
000000000006C92500
0000000006C827D710
00000006D828D71000
0000003728D6000000
00000001B600000000
000000000000000000
000000000000000000
C5949494000065A2A0
DC3C3C3C000076B2C0
D8787979600076B2C0
D1D2D2D2D10076B2C0
D3896969680076B2C0
D39C3C3C3C2076B2C0
D393B4B4B4B076B2C0
D395A5A5A5B476B2C0
D3985D2D2D3C66B2C0
D3985788787885B2C0
D39850D2D2D2D1B2C0
D398505A5A6A69B2C0
D398500B4B3C4C72C0
D3985003C3C3C4B1C0
D39850009696A6A6C0
D39850001D2D2D3DC0
D398500006878788C0
ENDCHAR
STARTCHAR Ncommaaccent
ENCODING 325
SWIDTH 877 0
DWIDTH 21 0
BBX 19 29 1 -9
BITMAP
61515151000005234250
EA69696900000D4894D0
DB4B4B4C30000D4894D0
D2C3C3C3C0000D4894D0
D187878786000D4894D0
D37C3C2D3D100D4894D0
D394B4A5A5A00D4894D0
D393A5A5B5B40D4894D0
D3985D2C3D3C0D4894D0
D398578787877A4894D0
D39855C3C3C3C44894D0
D3985C3C4B4B4B4894D0
D3985D09696A6A6794D0
D3985D01D2D2D3D294D0
D3985D005969697894D0
D3985D000B4B3C4C64D0
D3985D0002C3C3C3C0D0
D3985D000087879796D0
D3985D00001C2C2D3DD0
D3985D000004A5A5A6E0
00000003141300000000
000000094D3900000000
000000094D3900000000
000000094D3900000000
000000010D3900000000
000000028A5800000000
0000000571B300000000
00000005AD6000000000
00000002300000000000
ENDCHAR
STARTCHAR ncommaaccent
ENCODING 326
SWIDTH 787 0
DWIDTH 19 0
BBX 17 26 1 -9
BITMAP
C5949494000065A2A0
DC3C3C3C000076B2C0
D8787979600076B2C0
D1D2D2D2D10076B2C0
D3896969680076B2C0
D39C3C3C3C2076B2C0
D393B4B4B4B076B2C0
D395A5A5A5B476B2C0
D3985D2D2D3C66B2C0
D3985788787885B2C0
D39850D2D2D2D1B2C0
D398505A5A6A69B2C0
D398500B4B3C4C72C0
D3985003C3C3C4B1C0
D39850009696A6A6C0
D39850001D2D2D3DC0
D398500006878788C0
000000314120000000
000000A3D480000000
000000A3D480000000
000000A3D480000000
00000010D580000000
000000399670000000
000000661C20000000
0000006AD600000000
000000330000000000
ENDCHAR
STARTCHAR Ncaron
ENCODING 327
SWIDTH 877 0
DWIDTH 21 0
BBX 19 27 1 0
BITMAP
000000A29082A0000000
00000094C3C4A0000000
0000003A477A40000000
0000000C2D2C00000000
00000006BA7700000000
00000001E4C100000000
00000000000000000000
61515151000005234250
EA69696900000D4894D0
DB4B4B4C30000D4894D0
D2C3C3C3C0000D4894D0
D187878786000D4894D0
D37C3C2D3D100D4894D0
D394B4A5A5A00D4894D0
D393A5A5B5B40D4894D0
D3985D2C3D3C0D4894D0
D398578787877A4894D0
D39855C3C3C3C44894D0
D3985C3C4B4B4B4894D0
D3985D09696A6A6794D0
D3985D01D2D2D3D294D0
D3985D005969697894D0
D3985D000B4B3C4C64D0
D3985D0002C3C3C3C0D0
D3985D000087879796D0
D3985D00001C2C2D3DD0
D3985D000004A5A5A6E0
ENDCHAR
STARTCHAR ncaron
ENCODING 328
SWIDTH 787 0
DWIDTH 19 0
BBX 17 25 1 0
BITMAP
00001A38092A000000
00000A3D3B58000000
0000049485B2000000
000000D1D3B0000000
0000007B9860000000
0000002E3C10000000
000000000000000000
000000000000000000
C5949494000065A2A0
DC3C3C3C000076B2C0
D8787979600076B2C0
D1D2D2D2D10076B2C0
D3896969680076B2C0
D39C3C3C3C2076B2C0
D393B4B4B4B076B2C0
D395A5A5A5B476B2C0
D3985D2D2D3C66B2C0
D3985788787885B2C0
D39850D2D2D2D1B2C0
D398505A5A6A69B2C0
D398500B4B3C4C72C0
D3985003C3C3C4B1C0
D39850009696A6A6C0
D39850001D2D2D3DC0
D398500006878788C0
ENDCHAR
STARTCHAR Eng
ENCODING 330
SWIDTH 874 0
DWIDTH 21 0
BBX 19 28 1 -8
BITMAP
51515151000005234150
DA5A5A5A00001C57A3D0
DB5B4B5B40001C57A3D0
D2D3C2D2D1001C57A3D0
D179786969001C57A3D0
D37C3C3C4B401C57A3D0
D3A3C3C3C3D11C57A3D0
D3A3878788791C57A3D0
D3A84C3C3C3C4C57A3D0
D3A854B4B3C36C57A3D0
D3A855A696971C57A3D0
D3A85C1D2D2D3C57A3D0
D3A85C05A5A46C57A3D0
D3A85C00B4B52C57A3D0
D3A85C002D2D2C57A3D0
D3A85C0007875C57A3D0
D3A85C0000C33C57A3D0
D3A85C00003C1C57A3D0
D3A85C0000084C57A3D0
D3A85C0000013C57A3D0
0000000000003A76B2C0
000000000056C4C3D3A0
00000000007738959860
0000000000ABD83C2D10
00000000002227C3B500
0000000000CCB63B7000
0000000000456AC40000
00000000008863000000
ENDCHAR
STARTCHAR eng
ENCODING 331
SWIDTH 691 0
DWIDTH 17 0
BBX 15 24 1 -7
BITMAP
C594949400A2A560
DD3C3C3C00B2C570
D878797960B2C570
D1D2D2D2D1B2C570
D389696978B2C570
D39C3C3C3BB2C570
D393B4B4B2B2C570
D395A5A5A5B2C570
D3985D2D2BB2C570
D398578775B2C570
D39850D2D2B2C570
D398505A5AB2C570
D398500B49B2C570
D3985003C1B2C570
D398500096B2C570
D39850001BB2C570
D398500003B2C570
0000000000B2C570
0000000001D3A760
000000007D4A5B20
0000000023A94A00
000000009B54C100
0000000036BB1000
0000000057200000
ENDCHAR
STARTCHAR Omacron
ENCODING 332
SWIDTH 933 0
DWIDTH 22 0
BBX 22 22 0 -1
BITMAP
0000000001332000000000
00000028CCA9BDA4000000
000008C53688743AB20000
0001B73BC7556AD63C4000
000C56C44ACCB728B2C300
00976A2C943337D65C2D10
02C3B3D47CBACA3A769680
095C3C4A810004D3C4C3D1
0D3B58780000003C3B5985
2A76B3D0000000085B2D48
4994D3A000000004994D3A
58A3D49000000003A85C2B
3985C2B000000005893D39
1C6895B20000000B3D3C67
0C3D3C4C100000796977A3
07796885C6214AA3C2D3C0
00D2C3A927BB945D3B5A50
004B3C46DA768C92A76A00
0007A2B93466526D55C100
00006C45BDBBCC839B1000
000002AC7333359D500000
000000027ACCB840000000
ENDCHAR
STARTCHAR omacron
ENCODING 333
SWIDTH 833 0
DWIDTH 20 0
BBX 20 19 0 -1
BITMAP
000000159AA851000000
000018D843359D700000
0002C639DDDC828C1000
002D39C424425C74C100
00C4A83BB88BB2985A00
069795C369954C3B4B30
0C2D3C2C845AB3C3C4A0
2C5895B500007976A3D0
4984C3C000000D3A76B1
58A3D49000000B2C57A3
4994C3B000000D2B66B2
2B6794C400006A67A3D0
0C2C3C3D6238C3C2C3A0
078876B28BB73C496A40
00C3C65C966AC48A4B00
003C3BA346633B93C100
0004D45BDBBDA46C2000
00002AB632237C910000
00000027BCCA72000000
ENDCHAR
STARTCHAR Obreve
ENCODING 334
SWIDTH 933 0
DWIDTH 22 0
BBX 22 26 0 -1
BITMAP
0000000358004470000000
00000001B5AA8760000000
000000003A87A700000000
0000000000120000000000
0000000001332000000000
00000028CCA9BDA4000000
000008C53688743AB20000
0001B73BC7556AD63C4000
000C56C44ACCB728B2C300
00976A2C943337D65C2D10
02C3B3D47CBACA3A769680
095C3C4A810004D3C4C3D1
0D3B58780000003C3B5985
2A76B3D0000000085B2D48
4994D3A000000004994D3A
58A3D49000000003A85C2B
3985C2B000000005893D39
1C6895B20000000B3D3C67
0C3D3C4C100000796977A3
07796885C6214AA3C2D3C0
00D2C3A927BB945D3B5A50
004B3C46DA768C92A76A00
0007A2B93466526D55C100
00006C45BDBBCC839B1000
000002AC7333359D500000
000000027ACCB840000000
ENDCHAR
STARTCHAR obreve
ENCODING 335
SWIDTH 833 0
DWIDTH 20 0
BBX 20 23 0 -1
BITMAP
00000064600744000000
000000497AA6A2000000
00000005B88B40000000
00000000022000000000
000000159AA851000000
000018D843359D700000
0002C639DDDC828C1000
002D39C424425C74C100
00C4A83BB88BB2985A00
069795C369954C3B4B30
0C2D3C2C845AB3C3C4A0
2C5895B500007976A3D0
4984C3C000000D3A76B1
58A3D49000000B2C57A3
4994C3B000000D2B66B2
2B6794C400006A67A3D0
0C2C3C3D6238C3C2C3A0
078876B28BB73C496A40
00C3C65C966AC48A4B00
003C3BA346633B93C100
0004D45BDBBDA46C2000
00002AB632237C910000
00000027BCCA72000000
ENDCHAR
STARTCHAR Ohungarumlaut
ENCODING 336
SWIDTH 933 0
DWIDTH 22 0
BBX 24 28 0 -1
BITMAP
000000000003810000004800
0000000003AC4420005CA351
00000003AB44CA205C936D81
000003BB45CA205C937D8100
00000835C92002827D810000
000000792000000A71000000
000000000133200000000000
00000028CCA9BDA400000000
000008C53688743AB2000000
0001B73BC7556AD63C400000
000C56C44ACCB728B2C30000
00976A2C943337D65C2D1000
02C3B3D47CBACA3A76968000
095C3C4A810004D3C4C3D100
0D3B58780000003C3B598500
2A76B3D0000000085B2D4800
4994D3A000000004994D3A00
58A3D49000000003A85C2B00
3985C2B000000005893D3900
1C6895B20000000B3D3C6700
0C3D3C4C100000796977A300
07796885C6214AA3C2D3C000
00D2C3A927BB945D3B5A5000
004B3C46DA768C92A76A0000
0007A2B93466526D55C10000
00006C45BDBBCC839B100000
000002AC7333359D50000000
000000027ACCB84000000000
ENDCHAR
STARTCHAR ohungarumlaut
ENCODING 337
SWIDTH 833 0
DWIDTH 20 0
BBX 22 26 0 -1
BITMAP
0000000000470000000650
000000005CA3500017D825
0000005C936D8117D728D6
00006C927D8117D729C600
0002827D71004739C60000
00000A71000001B5000000
0000000000000000000000
000000159AA85100000000
000018D843359D70000000
0002C639DDDC828C100000
002D39C424425C74C10000
00C4A83BB88BB2985A0000
069795C369954C3B4B3000
0C2D3C2C845AB3C3C4A000
2C5895B500007976A3D000
4984C3C000000D3A76B100
58A3D49000000B2C57A300
4994C3B000000D2B66B200
2B6794C400006A67A3D000
0C2C3C3D6238C3C2C3A000
078876B28BB73C496A4000
00C3C65C966AC48A4B0000
003C3BA346633B93C10000
0004D45BDBBDA46C200000
00002AB632237C91000000
00000027BCCA7200000000
ENDCHAR
STARTCHAR OE
ENCODING 338
SWIDTH 1317 0
DWIDTH 32 0
BBX 31 22 0 -1
BITMAP
00000000013320000000000000000000
00000028CCA9BDA40325166666666640
000008C53688733AB85C2D7777777750
0001B73BC7556AD6485C2EBBBBBBBB80
000B56C44ACCB729A85C2C2222222220
00977A3C943226C5685C2ECCCCCCCC90
02C3B3D47DBACA2B675C2B0000000000
094C3C3B810004D3C85C2B0000000000
0D3B58880000003C485C2B0000000000
3A76B3D000000008575C2ECCCC400000
4894D39000000004975C2C2222100000
58A3D49000000003A75C2EBBBB400000
4994C2B000000005875C2D7777200000
1B6894C20000000B385C2D6666200000
0C3C3B4C10000079785C2B0000000000
07796985C6214A94C85C2B0000000000
00C2C3A927BB935D385C2C3333333320
004B3C46D9768C92B85C2E9999999970
0007A2B93466527D575C2D8888888860
00006C45BDBBCC72A85C2C5555555530
000002AB6332259D575C2EDDDDDDDD90
000000027ACCB8400000000000000000
ENDCHAR
STARTCHAR oe
ENCODING 339
SWIDTH 1174 0
DWIDTH 28 0
BBX 28 19 0 -1
BITMAP
000000159AA95100000000000000
000018D843348D4A569DDDDDDDD3
0002C639DDDC932C57A533333331
002D39C424415C5C57ABAAAAAAA2
00C4A83BB89CB23C57A977777772
069795C269954D4C57A755555551
0C2D1C1C845AB28C57A300000000
2C5895B50000792C57AA88888870
4984C2C000000D0C57A644444430
58A3D49000000B1C57ADDDDDDDA0
4994C3B000000D0C57A533333320
2B6794C400006A1C57ABAAAAAA80
0C2C2C2D6238C08C57A300000000
078876B08BB72C5C57A533333331
00C3C65C967AC32C57AA99999992
003C3BA246643B6C57A988888882
0004D45BDBBDA41C57A655555551
00002AB632236C5C57ADDDDDDDD3
00000027BCCA7200000000000000
ENDCHAR
STARTCHAR Racute
ENCODING 340
SWIDTH 843 0
DWIDTH 20 0
BBX 19 27 1 0
BITMAP
00000000003810000000
000000003AC442000000
0000003AB44CA2000000
00003BB45CA200000000
0000835C920000000000
00000792000000000000
00000000000000000000
66666666666641000000
D777777777778CA20000
D2BBBBBBBBBB944C4000
D3A22222222249B2C300
D398DCCCCCCDD65B3B00
D398545555553A786B30
D3985D888888D3D3B760
D3985D00000066B2C580
D3985D355555C4D2B760
D3985D48888747977A40
D3985D5AAAAAD93C3D00
D3985D13333326C3C500
D3985D7DDDDDC73C8000
D3985D2444446AF70000
D3985D488BCD9D780000
D3985D0002B76C3D0000
D3985D0000C3B77B3000
D3985D000076C3C68000
D3985D00003B76B3D000
D3985D00000D3B67A300
ENDCHAR
STARTCHAR Rcommaaccent
ENCODING 342
SWIDTH 843 0
DWIDTH 20 0
BBX 19 29 1 -9
BITMAP
66666666666641000000
D777777777778CA20000
D2BBBBBBBBBB944C4000
D3A22222222249B2C300
D398DCCCCCCDD65B3B00
D398545555553A786B30
D3985D888888D3D3B760
D3985D00000066B2C580
D3985D355555C4D2B760
D3985D48888747977A40
D3985D5AAAAAD93C3D00
D3985D13333326C3C500
D3985D7DDDDDC73C8000
D3985D2444446AF70000
D3985D488BCD9D780000
D3985D0002B76C3D0000
D3985D0000C3B77B3000
D3985D000076C3C68000
D3985D00003B76B3D000
D3985D00000D3B67A300
00000022314000000000
00000057A3D000000000
00000057A3D000000000
00000057A3D000000000
00000001B2D000000000
00000016D2C000000000
00000037287000000000
00000039C90000000000
00000023100000000000
ENDCHAR
STARTCHAR rcommaaccent
ENCODING 343
SWIDTH 831 0
DWIDTH 20 0
BBX 19 26 1 -9
BITMAP
CDDDDDDDDDDDC8200000
D1333333333335C80000
D3DAAAAAAAAACB389000
D3948888888753C4A500
D398855555559B2D3C00
D3985ACCCCCC76885C10
D3985D000001D2B67A20
D3985D6BBBBCC4A76C10
D3985D1222224C3C3D00
D3985D6CCCCB93978800
D3985D3666667C74D100
D3985D477777538D2000
D3985D5AAAABCDD10000
D3985D122D5B96C20000
D3985D00076C4C680000
D3985D0002C67B3D0000
D3985D0000B3C5995000
00000041322000000000
000000C2B76000000000
000000C2B76000000000
000000C2B76000000000
00000012B76000000000
0000003A785000000000
000000752D1000000000
0000007AD40000000000
00000033000000000000
ENDCHAR
STARTCHAR Rcaron
ENCODING 344
SWIDTH 843 0
DWIDTH 20 0
BBX 19 27 1 0
BITMAP
0073A156730000000000
005986C3D00000000000
000D25B5800000000000
0008695B200000000000
0002CD3B000000000000
0000B885000000000000
00000000000000000000
66666666666641000000
D777777777778CA20000
D2BBBBBBBBBB944C4000
D3A22222222249B2C300
D398DCCCCCCDD65B3B00
D398545555553A786B30
D3985D888888D3D3B760
D3985D00000066B2C580
D3985D355555C4D2B760
D3985D48888747977A40
D3985D5AAAAAD93C3D00
D3985D13333326C3C500
D3985D7DDDDDC73C8000
D3985D2444446AF70000
D3985D488BCD9D780000
D3985D0002B76C3D0000
D3985D0000C3B77B3000
D3985D000076C3C68000
D3985D00003B76B3D000
D3985D00000D3B67A300
ENDCHAR
STARTCHAR rcaron
ENCODING 345
SWIDTH 831 0
DWIDTH 20 0
BBX 19 25 1 0
BITMAP
00000476519370000000
000001D3B77A40000000
000000954C2C00000000
0000003B4A6700000000
0000000CB4C100000000
00000006D3A000000000
00000000000000000000
00000000000000000000
CDDDDDDDDDDDC8200000
D1333333333335C80000
D3DAAAAAAAAACB389000
D3948888888753C4A500
D398855555559B2D3C00
D3985ACCCCCC76885C10
D3985D000001D2B67A20
D3985D6BBBBCC4A76C10
D3985D1222224C3C3D00
D3985D6CCCCB93978800
D3985D3666667C74D100
D3985D477777538D2000
D3985D5AAAABCDD10000
D3985D122D5B96C20000
D3985D00076C4C680000
D3985D0002C67B3D0000
D3985D0000B3C5995000
ENDCHAR
STARTCHAR Sacute
ENCODING 346
SWIDTH 682 0
DWIDTH 16 0
BBX 16 28 0 -1
BITMAP
0000000000000660
000000000006D825
0000000017D828D6
00000017D728D600
0000004729C60000
00000001B5000000
0000001332100000
00017CCA9ACC8200
002C825887525B91
01C48C85558BB467
0969839CDCA63A30
0D3B4D523237B000
3A76B3BBABC70000
4994D2B000000000
3A75B2CAA9730000
1D4A5B33346CB200
0A4B65BDDDB55D10
02D2BA64433A85A0
005D53788AC3B4C2
0002ADB9973C3A76
000000244A6B2D58
00001521196B3D48
000337ABB83D3A77
0025CA7669D3B4C3
02AA4357753A85A0
3C549DCBBCB55C10
019C8422225BA100
000159BCCB830000
ENDCHAR
STARTCHAR sacute
ENCODING 347
SWIDTH 683 0
DWIDTH 16 0
BBX 16 26 0 -1
BITMAP
0000000000000660
000000000006D825
0000000017D828D6
00000017D728D600
0000004729C60000
00000001B5000000
0000000000000000
0000002443200000
0003ADA989BD9300
007C447998634BA1
06A3CA64447AC557
0D2C37CDDDB73930
3A76A7100026A000
4984C10000000000
2B595C9988630000
0C3B8234456AD500
03D36BDDDDB72B60
003CA6433227C2C2
0000379AAAC84A67
00000000000B3D49
00067200003D2C49
00936BDCDDB49795
274BB642236C84C0
08C5369AA9627C20
0029DB8778BD7100
0000024665200000
ENDCHAR
STARTCHAR Scircumflex
ENCODING 348
SWIDTH 682 0
DWIDTH 16 0
BBX 16 28 0 -1
BITMAP
0000004B38000000
000000BC4C100000
000002C497700000
00000863D2C00000
00000D2B76A30000
000049662B480000
0000001332100000
00017CCA9ACC8200
002C825887525B91
01C48C85558BB467
0969839CDCA63A30
0D3B4D523237B000
3A76B3BBABC70000
4994D2B000000000
3A75B2CAA9730000
1D4A5B33346CB200
0A4B65BDDDB55D10
02D2BA64433A85A0
005D53788AC3B4C2
0002ADB9973C3A76
000000244A6B2D58
00001521196B3D48
000337ABB83D3A77
0025CA7669D3B4C3
02AA4357753A85A0
3C549DCBBCB55C10
019C8422225BA100
000159BCCB830000
ENDCHAR
STARTCHAR scircumflex
ENCODING 349
SWIDTH 683 0
DWIDTH 16 0
BBX 16 26 0 -1
BITMAP
0000004B29000000
000000AC4C100000
000002C4A7700000
00000763D2C00000
00000D2B77A40000
000049661B480000
0000000000000000
0000002443200000
0003ADA989BD9300
007C447998634BA1
06A3CA64447AC557
0D2C37CDDDB73930
3A76A7100026A000
4984C10000000000
2B595C9988630000
0C3B8234456AD500
03D36BDDDDB72B60
003CA6433227C2C2
0000379AAAC84A67
00000000000B3D49
00067200003D2C49
00936BDCDDB49795
274BB642236C84C0
08C5369AA9627C20
0029DB8778BD7100
0000024665200000
ENDCHAR
STARTCHAR Scedilla
ENCODING 350
SWIDTH 682 0
DWIDTH 16 0
BBX 16 29 0 -8
BITMAP
0000001332100000
00017CCA9ACC8200
002C825887525B91
01C48C85558BB467
0969839CDCA63A30
0D3B4D523237B000
3A76B3BBABC70000
4994D2B000000000
3A75B2CAA9730000
1D4A5B33346CB200
0A4B65BDDDB55D10
02D2BA64433A85A0
005D53788AC3B4C2
0002ADB9973C3A76
000000244A6B2D58
00001521196B3D48
000337ABB83D3A77
0025CA7669D3B4C3
02AA4357753A85A0
3C549DCBBCB55C10
019C8422225BA100
000159CFFF830000
000019CA67000000
0000972497000000
0000D2D883000000
0000D58000000000
0000D2D883000000
0000A61452000000
000019DDC5000000
ENDCHAR
STARTCHAR scedilla
ENCODING 351
SWIDTH 683 0
DWIDTH 16 0
BBX 16 26 0 -8
BITMAP
0000002443200000
0003ADA989BD9300
007C447998634BA1
06A3CA64447AC557
0D2C37CDDDB73930
3A76A7100026A000
4984C10000000000
2B595C9988630000
0C3B8234456AD500
03D36BDDDDB72B60
003CA6433227C2C2
0000379AAAC84A67
00000000000B3D49
00067200003D2C49
00936BDCDDB49795
274BB642236C84C0
08C5369AA9627C20
0029DB8778BD7100
0000025EAA200000
000018CA67000000
0000972497000000
0000D2D883000000
0000D48000000000
0000D2D883000000
0000A71452000000
000019DDC6000000
ENDCHAR
STARTCHAR Scaron
ENCODING 352
SWIDTH 682 0
DWIDTH 16 0
BBX 16 28 0 -1
BITMAP
000019470A290000
00000C2D4A770000
00000684A4C10000
000001D1D4A00000
0000009B7A400000
0000003E2C000000
0000001332100000
00017CCA9ACC8200
002C825887525B91
01C48C85558BB467
0969839CDCA63A30
0D3B4D523237B000
3A76B3BBABC70000
4994D2B000000000
3A75B2CAA9730000
1D4A5B33346CB200
0A4B65BDDDB55D10
02D2BA64433A85A0
005D53788AC3B4C2
0002ADB9973C3A76
000000244A6B2D58
00001521196B3D48
000337ABB83D3A77
0025CA7669D3B4C3
02AA4357753A85A0
3C549DCBBCB55C10
019C8422225BA100
000159BCCB830000
ENDCHAR
STARTCHAR scaron
ENCODING 353
SWIDTH 683 0
DWIDTH 16 0
BBX 16 26 0 -1
BITMAP
000019470A290000
00000C2D4A770000
00000684A4C10000
000001D1D4A00000
0000009B7A400000
0000003E2C000000
0000000000000000
0000002443200000
0003ADA989BD9300
007C447998634BA1
06A3CA64447AC557
0D2C37CDDDB73930
3A76A7100026A000
4984C10000000000
2B595C9988630000
0C3B8234456AD500
03D36BDDDDB72B60
003CA6433227C2C2
0000379AAAC84A67
00000000000B3D49
00067200003D2C49
00936BDCDDB49795
274BB642236C84C0
08C5369AA9627C20
0029DB8778BD7100
0000024665200000
ENDCHAR
STARTCHAR Tcommaaccent
ENCODING 354
SWIDTH 591 0
DWIDTH 14 0
BBX 14 27 0 -7
BITMAP
26666666666662
27777777777772
3BBBBBBBBBBBB4
12222222222221
3CCCFDEEDFCCC5
0000D3985D0000
0000D3985D0000
0000D3985D0000
0000D3985D0000
0000D3985D0000
0000D3985D0000
0000D3985D0000
0000D3985D0000
0000D3985D0000
0000D3985D0000
0000D3985D0000
0000D3985D0000
0000D3985D0000
0000D3985D0000
0000D5FE8D0000
00029C88500000
000B624A500000
001C3D88300000
002B6700000000
001C3D88300000
000B5245200000
0001ADDC400000
ENDCHAR
STARTCHAR tcommaaccent
ENCODING 355
SWIDTH 588 0
DWIDTH 14 0
BBX 14 24 0 -7
BITMAP
4DDDDDDDDDDDD5
13333333333331
3AAAAAAAAAAAA4
28888888888883
25558677685552
0000D4984D0000
0000D4984D0000
0000D4984D0000
0000D4984D0000
0000D4984D0000
0000D4984D0000
0000D4984D0000
0000D4984D0000
0000D4984D0000
0000D4984D0000
0000D4984D0000
0000D6FE8D0000
00029C88500000
000B524A500000
001C3D88200000
002B7600000000
001C3D88200000
000C5255200000
0002ADDC400000
ENDCHAR
STARTCHAR Tcaron
ENCODING 356
SWIDTH 591 0
DWIDTH 14 0
BBX 14 27 0 0
BITMAP
00055732846000
0001C4986B3000
0000A34D3B0000
00004959860000
00000DC3D10000
000007B4800000
00000000000000
26666666666662
27777777777772
3BBBBBBBBBBBB4
12222222222221
3CCCFDEEDFCCC5
0000D3985D0000
0000D3985D0000
0000D3985D0000
0000D3985D0000
0000D3985D0000
0000D3985D0000
0000D3985D0000
0000D3985D0000
0000D3985D0000
0000D3985D0000
0000D3985D0000
0000D3985D0000
0000D3985D0000
0000D3985D0000
0000D3985D0000
ENDCHAR
STARTCHAR tcaron
ENCODING 357
SWIDTH 842 0
DWIDTH 20 0
BBX 20 18 0 0
BITMAP
00000000000000031221
4DDDDDDDDDDDD50D2A76
133333333333310D2A76
3AAAAAAAAAAAA40D2A76
28888888888883023A76
25558677685552039784
0000D4984D00000861D1
0000D4984D0000069D40
0000D4984D0000043000
0000D4984D0000000000
0000D4984D0000000000
0000D4984D0000000000
0000D4984D0000000000
0000D4984D0000000000
0000D4984D0000000000
0000D4984D0000000000
0000D4984D0000000000
0000D4984D0000000000
ENDCHAR
STARTCHAR Tbar
ENCODING 358
SWIDTH 591 0
DWIDTH 14 0
BBX 14 20 0 0
BITMAP
26666666666662
27777777777772
3BBBBBBBBBBBB4
12222222222221
3CCCFDEEDFCCC5
0000D3985D0000
0000D3985D0000
0000D3985D0000
3DD8D3985D7DD4
1332D3985D2331
2AA6D3985D5AA3
2885D3985D4882
1553D3985D3551
0000D3985D0000
0000D3985D0000
0000D3985D0000
0000D3985D0000
0000D3985D0000
0000D3985D0000
0000D3985D0000
ENDCHAR
STARTCHAR tbar
ENCODING 359
SWIDTH 588 0
DWIDTH 14 0
BBX 14 17 0 0
BITMAP
4DDDDDDDDDDDD5
13333333333331
3AAAAAAAAAAAA4
28888888888883
25558677685552
0000D4984D0000
0000D4984D0000
0000D4984D0000
2BB6D4984D6BB3
1221D4984D1221
3CC7D4984D7CC4
1553D4984D3551
2885D4984D4882
0000D4984D0000
0000D4984D0000
0000D4984D0000
0000D4984D0000
ENDCHAR
STARTCHAR Utilde
ENCODING 360
SWIDTH 905 0
DWIDTH 22 0
BBX 20 27 1 -1
BITMAP
000059BBBBBB80639000
0008A322222222C2D000
001C1BCCCCCCCB559000
004986155555558C2000
00245218888887510000
00000000000000000000
52341500000002432514
C58A3D00000004984D3A
C58A3D00000004984D3A
C58A3D00000004984D3A
C58A3D00000004984D3A
C58A3D00000004984D3A
C58A3D00000004984D3A
C58A3D00000004984D3A
C58A3D00000004984D3A
C58A3D00000004984D3A
C58A3D00000004984D3A
C58A3D00000004994D3A
D3A85C100000077B3D49
C2C4A6A000002D3C4A76
77A5B58B4126D4A5A4C2
1D2D3C639BB72A85B5A0
0795C39D867AD55C2C20
00984D7257644AB3C400
0009A37CDBCDA44C5000
00005D9522237CB20000
00000049BCCA72000000
ENDCHAR
STARTCHAR utilde
ENCODING 361
SWIDTH 795 0
DWIDTH 19 0
BBX 18 24 1 -1
BITMAP
0017ABBBBBB5092700
00C7322222214C4900
0584DCCCCCCCA29500
084C225555556AA000
052603888888740000
000000000000000000
B5792B00000B2965A1
C58A3D00000C2B76C1
C58A3D00000C2B76C1
C58A3D00000C2B76C1
C58A3D00000C2B76C1
C58A3D00000C2B76C1
C58A3D00000C2B76C1
C58A3D00000C2B76C1
C58A3D00000C2B76C1
C58A3D00000D2A76C1
C3985C20002C4994C0
B2D3B4C424C4B4C2C0
67969929B938959670
1C3C48C867C84C2C10
04C3C8357537C3B500
006C37CCBCC73C6000
0003CA42224AC40000
0000049BCB94000000
ENDCHAR
STARTCHAR Umacron
ENCODING 362
SWIDTH 905 0
DWIDTH 22 0
BBX 20 21 1 -1
BITMAP
52341500000002432514
C58A3D00000004984D3A
C58A3D00000004984D3A
C58A3D00000004984D3A
C58A3D00000004984D3A
C58A3D00000004984D3A
C58A3D00000004984D3A
C58A3D00000004984D3A
C58A3D00000004984D3A
C58A3D00000004984D3A
C58A3D00000004984D3A
C58A3D00000004994D3A
D3A85C100000077B3D49
C2C4A6A000002D3C4A76
77A5B58B4126D4A5A4C2
1D2D3C639BB72A85B5A0
0795C39D867AD55C2C20
00984D7257644AB3C400
0009A37CDBCDA44C5000
00005D9522237CB20000
00000049BCCA72000000
ENDCHAR
STARTCHAR umacron
ENCODING 363
SWIDTH 795 0
DWIDTH 19 0
BBX 18 18 1 -1
BITMAP
B5792B00000B2965A1
C58A3D00000C2B76C1
C58A3D00000C2B76C1
C58A3D00000C2B76C1
C58A3D00000C2B76C1
C58A3D00000C2B76C1
C58A3D00000C2B76C1
C58A3D00000C2B76C1
C58A3D00000C2B76C1
C58A3D00000D2A76C1
C3985C20002C4994C0
B2D3B4C424C4B4C2C0
67969929B938959670
1C3C48C867C84C2C10
04C3C8357537C3B500
006C37CCBCC73C6000
0003CA42224AC40000
0000049BCB94000000
ENDCHAR
STARTCHAR Ubreve
ENCODING 364
SWIDTH 905 0
DWIDTH 22 0
BBX 20 26 1 -1
BITMAP
00000074500853000000
000000688AA5B1000000
00000007A78B30000000
00000000021000000000
00000000000000000000
52341500000002432514
C58A3D00000004984D3A
C58A3D00000004984D3A
C58A3D00000004984D3A
C58A3D00000004984D3A
C58A3D00000004984D3A
C58A3D00000004984D3A
C58A3D00000004984D3A
C58A3D00000004984D3A
C58A3D00000004984D3A
C58A3D00000004984D3A
C58A3D00000004994D3A
D3A85C100000077B3D49
C2C4A6A000002D3C4A76
77A5B58B4126D4A5A4C2
1D2D3C639BB72A85B5A0
0795C39D867AD55C2C20
00984D7257644AB3C400
0009A37CDBCDA44C5000
00005D9522237CB20000
00000049BCCA72000000
ENDCHAR
STARTCHAR ubreve
ENCODING 365
SWIDTH 795 0
DWIDTH 19 0
BBX 18 23 1 -1
BITMAP
000008710177000000
00000A59AA5A000000
000001997991000000
000000012100000000
000000000000000000
B5792B00000B2965A1
C58A3D00000C2B76C1
C58A3D00000C2B76C1
C58A3D00000C2B76C1
C58A3D00000C2B76C1
C58A3D00000C2B76C1
C58A3D00000C2B76C1
C58A3D00000C2B76C1
C58A3D00000C2B76C1
C58A3D00000D2A76C1
C3985C20002C4994C0
B2D3B4C424C4B4C2C0
67969929B938959670
1C3C48C867C84C2C10
04C3C8357537C3B500
006C37CCBCC73C6000
0003CA42224AC40000
0000049BCB94000000
ENDCHAR
STARTCHAR Uring
ENCODING 366
SWIDTH 905 0
DWIDTH 22 0
BBX 20 29 1 -1
BITMAP
000000008AA500000000
0000000A576850000000
00000038B367B0000000
00000056A01AA0000000
0000002A89A5A0000000
00000006956B20000000
00000000265100000000
00000000000000000000
52341500000002432514
C58A3D00000004984D3A
C58A3D00000004984D3A
C58A3D00000004984D3A
C58A3D00000004984D3A
C58A3D00000004984D3A
C58A3D00000004984D3A
C58A3D00000004984D3A
C58A3D00000004984D3A
C58A3D00000004984D3A
C58A3D00000004984D3A
C58A3D00000004994D3A
D3A85C100000077B3D49
C2C4A6A000002D3C4A76
77A5B58B4126D4A5A4C2
1D2D3C639BB72A85B5A0
0795C39D867AD55C2C20
00984D7257644AB3C400
0009A37CDBCDA44C5000
00005D9522237CB20000
00000049BCCA72000000
ENDCHAR
STARTCHAR uring
ENCODING 367
SWIDTH 795 0
DWIDTH 19 0
BBX 18 26 1 -1
BITMAP
00000029A920000000
000002B585B2000000
0000085A2A58000000
00000966056A000000
0000066A8B66000000
0000009757A0000000
000000036400000000
000000000000000000
B5792B00000B2965A1
C58A3D00000C2B76C1
C58A3D00000C2B76C1
C58A3D00000C2B76C1
C58A3D00000C2B76C1
C58A3D00000C2B76C1
C58A3D00000C2B76C1
C58A3D00000C2B76C1
C58A3D00000C2B76C1
C58A3D00000D2A76C1
C3985C20002C4994C0
B2D3B4C424C4B4C2C0
67969929B938959670
1C3C48C867C84C2C10
04C3C8357537C3B500
006C37CCBCC73C6000
0003CA42224AC40000
0000049BCB94000000
ENDCHAR
STARTCHAR Uhungarumlaut
ENCODING 368
SWIDTH 905 0
DWIDTH 22 0
BBX 22 28 1 -1
BITMAP
0000000000560000001740
000000006C92500017D724
0000006C827D7118D739C5
00006D828D7118D639C500
0003728D6000563AC50000
00001B60000002B4000000
0000000000000000000000
5234150000000243251400
C58A3D00000004984D3A00
C58A3D00000004984D3A00
C58A3D00000004984D3A00
C58A3D00000004984D3A00
C58A3D00000004984D3A00
C58A3D00000004984D3A00
C58A3D00000004984D3A00
C58A3D00000004984D3A00
C58A3D00000004984D3A00
C58A3D00000004984D3A00
C58A3D00000004994D3A00
D3A85C100000077B3D4900
C2C4A6A000002D3C4A7600
77A5B58B4126D4A5A4C200
1D2D3C639BB72A85B5A000
0795C39D867AD55C2C2000
00984D7257644AB3C40000
0009A37CDBCDA44C500000
00005D9522237CB2000000
00000049BCCA7200000000
ENDCHAR
STARTCHAR uhungarumlaut
ENCODING 369
SWIDTH 795 0
DWIDTH 19 0
BBX 21 26 1 -1
BITMAP
0000000017300000028100
00000018D7340002AC5420
000018D639C503AC44BB30
0029C63AC503AB44CA3000
00653AB4000845CA300000
0003B40000006A20000000
0000000000000000000000
0000000000000000000000
B5792B00000B2965A10000
C58A3D00000C2B76C10000
C58A3D00000C2B76C10000
C58A3D00000C2B76C10000
C58A3D00000C2B76C10000
C58A3D00000C2B76C10000
C58A3D00000C2B76C10000
C58A3D00000C2B76C10000
C58A3D00000C2B76C10000
C58A3D00000D2A76C10000
C3985C20002C4994C00000
B2D3B4C424C4B4C2C00000
67969929B9389596700000
1C3C48C867C84C2C100000
04C3C8357537C3B5000000
006C37CCBCC73C60000000
0003CA42224AC400000000
0000049BCB940000000000
ENDCHAR
STARTCHAR Uogonek
ENCODING 370
SWIDTH 905 0
DWIDTH 22 0
BBX 20 28 1 -8
BITMAP
52341500000002432514
C58A3D00000004984D3A
C58A3D00000004984D3A
C58A3D00000004984D3A
C58A3D00000004984D3A
C58A3D00000004984D3A
C58A3D00000004984D3A
C58A3D00000004984D3A
C58A3D00000004984D3A
C58A3D00000004984D3A
C58A3D00000004984D3A
C58A3D00000004994D3A
D3A85C100000077B3D49
C2C4A6A000002D3C4A76
77A5B58B4126D4A5A4C2
1D2D3C639BB72A85B5A0
0795C39D867AD55C2C20
00984D7257644AB3C400
0009A37CDBCDA44C5000
00005D9522237CB20000
0000004AFFFA72000000
0000002D521000000000
000000856D5000000000
000000A2D00000000000
000000B2C35000000000
000000B2C58000000000
000000B2C58000000000
00000082946000000000
ENDCHAR
STARTCHAR uogonek
ENCODING 371
SWIDTH 794 0
DWIDTH 19 0
BBX 19 25 0 -8
BITMAP
1A5692B00000B2965A10
1C57A3D00000D2A76C10
1C57A3D00000D2A76C10
1C57A3D00000D2A76C10
1C57A3D00000D2A76C10
1C57A3D00000D2A76C10
1C57A3D00000D2A76C10
1C57A3D00000D2A76C10
1C57A3D00000D2A76C10
1C57A3D00000D3A75C10
0C3985C20002C5894C00
0C2C4B4C424C4B4C2C00
077969829B9289697700
01C3C48C768C84C2C100
005C3C8357538C3C5000
0006C37CCBCC73C60000
00004CA42224AC400000
0000004EFFB940000000
0000008A320000000000
000001C1CB0000000000
000003A7700000000000
00000398580000000000
000003985D0000000000
000003985D0000000000
000002764A0000000000
ENDCHAR
STARTCHAR Ycircumflex
ENCODING 374
SWIDTH 789 0
DWIDTH 19 0
BBX 19 27 0 0
BITMAP
00000001C2A000000000
00000006C88500000000
0000000C2D3B00000000
0000003B395B20000000
00000095C4B580000000
000000C2A0B2B0000000
00000000000000000000
32514320000032515230
3A76B3B00000B3B76B20
0A3C58940004894C4900
03985C3B000B3B67A200
00B3C589403985C3A000
004985C3B0A3C58A3000
000B3B5795A75B3B0000
0005894C2A3C48940000
0000C3B67A76B3B00000
000057A494C498400000
00000C38B67A3C000000
000006694C3A75000000
000000CB57A3C0000000
00000086B3C670000000
00000075C2B660000000
00000075C2B660000000
00000075C2B660000000
00000075C2B660000000
00000075C2B660000000
00000075C2B660000000
ENDCHAR
STARTCHAR ycircumflex
ENCODING 375
SWIDTH 733 0
DWIDTH 18 0
BBX 18 25 0 0
BITMAP
000000087740000000
0000001CD3B0000000
0000007794C2000000
000000C25A67000000
000004A76C2C000000
0000084B1669300000
000000000000000000
000000000000000000
5693A470000A3965A1
0C4A86B2005894C490
066A3C4A00B3B66B20
00C3A77A44994C4A00
0067A4C39B3B57A300
000C3B684985C3A000
00067949A3C5893000
0000C2C3A76B3B0000
0000677A4C49940000
00000C2B66B3B00000
000006E4C498500000
000000D4994D000000
000000D4894D000000
000000D4894D000000
000000D4894D000000
000000D4894D000000
000000D4894D000000
ENDCHAR
STARTCHAR Ydieresis
ENCODING 376
SWIDTH 789 0
DWIDTH 19 0
BBX 19 25 0 0
BITMAP
00013314000422310000
0004984D001C57A30000
0004984D001C57A30000
00012214000312310000
00000000000000000000
32514320000032515230
3A76B3B00000B3B76B20
0A3C58940004894C4900
03985C3B000B3B67A200
00B3C589403985C3A000
004985C3B0A3C58A3000
000B3B5795A75B3B0000
0005894C2A3C48940000
0000C3B67A76B3B00000
000057A494C498400000
00000C38B67A3C000000
000006694C3A75000000
000000CB57A3C0000000
00000086B3C670000000
00000075C2B660000000
00000075C2B660000000
00000075C2B660000000
00000075C2B660000000
00000075C2B660000000
00000075C2B660000000
ENDCHAR
STARTCHAR Zacute
ENCODING 377
SWIDTH 854 0
DWIDTH 21 0
BBX 20 27 0 0
BITMAP
00000000000000174000
00000000000017D72400
000000000018D729C500
0000000018D639C50000
00000000563AC5000000
0000000002B400000000
00000000000000000000
06666666666666666663
077777777777777778F6
1BBBBBBBBBBBBBA26C42
022222222222222B93B6
1CCCCCCCCCCB35C46C42
055555555401A93B93B6
18888888725C46C46C42
000000001AA3B93B93B5
00000005C56C46C47C30
000001AA3A93B93B8100
00005C55C46C46C30000
001AA3A93B93B9100000
05C55C56D46C40000000
1A3AA3B93B9100000000
05C56D56C42BDDDDDDD7
1A3AA3B9233333333332
05D56C41899999999995
1A3B9388888888888884
06C40455555555555552
1FDDDDDDDDDDDDDDDDD7
ENDCHAR
STARTCHAR zacute
ENCODING 378
SWIDTH 714 0
DWIDTH 17 0
BBX 17 25 0 0
BITMAP
000000000000048000
000000000004BA3510
0000000004CA36C920
00000005CA36C92000
0000001836D8100000
000000009810000000
000000000000000000
000000000000000000
0DDDDDDDD4B2B1B230
033333331B59687750
0AAAAAAA7B4C3C2B00
07777774D2C3B4B300
055555597786959000
0000003C3D2D2C1000
000000C3B4A6950000
00000796A4B3B00000
00002D2D2D3C200000
0000B5968878000000
0005B4C3C2C1000000
001D2C3B4B40000000
0097786A5A33333310
03C2D2D2D399999920
0C4B5A697788888820
595A4B3C1555555510
42D2D3C4CDDDDDDD30
ENDCHAR
STARTCHAR Zdotaccent
ENCODING 379
SWIDTH 854 0
DWIDTH 21 0
BBX 20 26 0 0
BITMAP
00000000566620000000
00000000677720000000
000000009BBB40000000
00000000222210000000
00000000BCCC40000000
00000000000000000000
06666666666666666663
077777777777777778F6
1BBBBBBBBBBBBBA26C42
022222222222222B93B6
1CCCCCCCCCCB35C46C42
055555555401A93B93B6
18888888725C46C46C42
000000001AA3B93B93B5
00000005C56C46C47C30
000001AA3A93B93B8100
00005C55C46C46C30000
001AA3A93B93B9100000
05C55C56D46C40000000
1A3AA3B93B9100000000
05C56D56C42BDDDDDDD7
1A3AA3B9233333333332
05D56C41899999999995
1A3B9388888888888884
06C40455555555555552
1FDDDDDDDDDDDDDDDDD7
ENDCHAR
STARTCHAR zdotaccent
ENCODING 380
SWIDTH 714 0
DWIDTH 17 0
BBX 17 24 0 0
BITMAP
000000366650000000
000000377750000000
0000005BBB90000000
000000122220000000
0000005CCCA0000000
000000000000000000
000000000000000000
0DDDDDDDD4B2B1B230
033333331B59687750
0AAAAAAA7B4C3C2B00
07777774D2C3B4B300
055555597786959000
0000003C3D2D2C1000
000000C3B4A6950000
00000796A4B3B00000
00002D2D2D3C200000
0000B5968878000000
0005B4C3C2C1000000
001D2C3B4B40000000
0097786A5A33333310
03C2D2D2D399999920
0C4B5A697788888820
595A4B3C1555555510
42D2D3C4CDDDDDDD30
ENDCHAR
STARTCHAR Zcaron
ENCODING 381
SWIDTH 854 0
DWIDTH 21 0
BBX 20 27 0 0
BITMAP
00000037551A28000000
0000000D2C6885000000
0000000864C3D0000000
00000002C2B580000000
00000000BB5B20000000
000000005D2B00000000
00000000000000000000
06666666666666666663
077777777777777778F6
1BBBBBBBBBBBBBA26C42
022222222222222B93B6
1CCCCCCCCCCB35C46C42
055555555401A93B93B6
18888888725C46C46C42
000000001AA3B93B93B5
00000005C56C46C47C30
000001AA3A93B93B8100
00005C55C46C46C30000
001AA3A93B93B9100000
05C55C56D46C40000000
1A3AA3B93B9100000000
05C56D56C42BDDDDDDD7
1A3AA3B9233333333332
05D56C41899999999995
1A3B9388888888888884
06C40455555555555552
1FDDDDDDDDDDDDDDDDD7
ENDCHAR
STARTCHAR zcaron
ENCODING 382
SWIDTH 714 0
DWIDTH 17 0
BBX 17 25 0 0
BITMAP
0000092A0749200000
0000077A4D2C000000
000001C36986000000
000000A4B3D1000000
0000004BC490000000
0000000C6A30000000
000000000000000000
000000000000000000
0DDDDDDDD4B2B1B230
033333331B59687750
0AAAAAAA7B4C3C2B00
07777774D2C3B4B300
055555597786959000
0000003C3D2D2C1000
000000C3B4A6950000
00000796A4B3B00000
00002D2D2D3C200000
0000B5968878000000
0005B4C3C2C1000000
001D2C3B4B40000000
0097786A5A33333310
03C2D2D2D399999920
0C4B5A697788888820
595A4B3C1555555510
42D2D3C4CDDDDDDD30
ENDCHAR
STARTCHAR florin
ENCODING 402
SWIDTH 388 0
DWIDTH 9 0
BBX 9 23 0 -2
BITMAP
0000002420
00005CB940
0006B26840
001D2C7420
0058958D50
0076B2C000
0075C2B000
1885C2B630
1585C2B420
2C85C2BA50
0275C2B210
2B85C2B950
0075C2B000
0075C2B000
0075C2B000
0075C2B000
0075C2B000
0075C2B000
18D3D3A000
1528876000
2DD83C1000
0237C30000
2A96100000
ENDCHAR
STARTCHAR uni01C4
ENCODING 452
SWIDTH 1740 0
DWIDTH 42 0
BBX 40 27 1 0
BITMAP
000000000000000000000000000A29082A000000
00000000000000000000000000095C3C4A000000
0000000000000000000000000003B477A4000000
0000000000000000000000000000C2C2C0000000
00000000000000000000000000006BA670000000
00000000000000000000000000001E4B10000000
0000000000000000000000000000000000000000
6666666666653000000005666666666666666665
D77777777778AD700000057777777777777777DB
D3BBBBBBBBBA738B100008BBBBBBBBBBBBB53C72
D4A2222222237D74C1000222222222222227C38A
D498DCCCCCCDA3A85A0009CCCCCCCCCC63C73C72
D498445555544C3B5A500455555555107C38C38A
D4984D88888AB3D3D3C006888888843C83C73C72
D4984D0000007877A4C20000000007C38C38C38A
D4984D0000000D2C588500000002C83C73C74C60
D4984D0000000A3D3A770000007C37C38C38B200
D4984D000000094D2B6700002B83C73C74C70000
D4984D0000000B3D49760007C37C38C38B200000
D4984D0000002D3A77A402B83C83C74C70000000
D4984D000001B5A4C2D00947C38C38B200000000
D4984CDDDDDC56A5A69002B83C83C718DDDDDDDA
D49873333334AA3D2C200937C38C233333333333
D4959999999844D3A60003C83C70699999999998
D4C888888889CA3A90000948C378888888888887
D1555555555426D6000003C70355555555555554
EDDDDDDDDDDDC71000000CEDDDDDDDDDDDDDDDDA
ENDCHAR
STARTCHAR uni01C5
ENCODING 453
SWIDTH 1601 0
DWIDTH 38 0
BBX 37 25 1 0
BITMAP
00000000000000000000000005583385500000
00000000000000000000000002B5895C200000
00000000000000000000000000B35D3B000000
00000000000000000000000000586895000000
000000000000000000000000000DC2D0000000
6666666666653000000000000008B580000000
D77777777778AD700000000000000000000000
D3BBBBBBBBBA738B1000000000000000000000
D4A2222222237D74C10009DDDDDDD6A3A48530
D498DCCCCCCDA3A85A000233333326A5B3C390
D498445555544C3B5A5007AAAAAA6D2D2C3B20
D4984D88888AB3D3D3C005777775A687786700
D4984D0000007877A4C204555556C3C2D2C000
D4984D0000000D2C58850000001D3C3B5A4000
D4984D0000000A3D3A7700000088695A4A0000
D4984D000000094D2B67000003D2D2D2C20000
D4984D0000000B3D497600000C4A5978700000
D4984D0000002D3A77A400006A4B3C3C000000
D4984D000001B5A4C2D00001D2D2C3B3000000
D4984CDDDDDC56A5A690000A68779690000000
D49873333334AA3D2C20004C3C2D2D33333320
D4959999999844D3A60001D3C4B5A679999950
D4C888888889CA3A9000088695B4B588888850
D1555555555426D600000D2D2D2C3455555530
EDDDDDDDDDDDC710000004A697889DDDDDDD70
ENDCHAR
STARTCHAR Scommaaccent
ENCODING 536
SWIDTH 682 0
DWIDTH 16 0
BBX 16 31 0 -10
BITMAP
0000001332100000
00017CCA9ACC8200
002C825887525B91
01C48C85558BB467
0969839CDCA63A30
0D3B4D523237B000
3A76B3BBABC70000
4994D2B000000000
3A75B2CAA9730000
1D4A5B33346CB200
0A4B65BDDDB55D10
02D2BA64433A85A0
005D53788AC3B4C2
0002ADB9973C3A76
000000244A6B2D58
00001521196B3D48
000337ABB83D3A77
0025CA7669D3B4C3
02AA4357753A85A0
3C549DCBBCB55C10
019C8422225BA100
000159BCCB830000
0000013223000000
000002B76B100000
000002B76B100000
000002B76B100000
000000176B100000
0000005C2C000000
000001835A000000
0000019BB1000000
0000014200000000
ENDCHAR
STARTCHAR scommaaccent
ENCODING 537
SWIDTH 683 0
DWIDTH 16 0
BBX 16 28 0 -10
BITMAP
0000002443200000
0003ADA989BD9300
007C447998634BA1
06A3CA64447AC557
0D2C37CDDDB73930
3A76A7100026A000
4984C10000000000
2B595C9988630000
0C3B8234456AD500
03D36BDDDDB72B60
003CA6433227C2C2
0000379AAAC84A67
00000000000B3D49
00067200003D2C49
00936BDCDDB49795
274BB642236C84C0
08C5369AA9627C20
0029DB8778BD7100
0000024665200000
0000003223100000
000001C67B200000
000001C67B200000
000001C67B200000
000000167B200000
0000005C3C100000
000001844B000000
0000019BC2000000
0000004200000000
ENDCHAR
STARTCHAR uni021A
ENCODING 538
SWIDTH 591 0
DWIDTH 14 0
BBX 14 29 0 -9
BITMAP
26666666666662
27777777777772
3BBBBBBBBBBBB4
12222222222221
3CCCFDEEDFCCC5
0000D3985D0000
0000D3985D0000
0000D3985D0000
0000D3985D0000
0000D3985D0000
0000D3985D0000
0000D3985D0000
0000D3985D0000
0000D3985D0000
0000D3985D0000
0000D3985D0000
0000D3985D0000
0000D3985D0000
0000D3985D0000
0000D3985D0000
00000322310000
00001C67A20000
00001C67A20000
00001C67A20000
00000167A20000
000005C3C10000
00001844B00000
000009BC200000
00000420000000
ENDCHAR
STARTCHAR uni021B
ENCODING 539
SWIDTH 588 0
DWIDTH 14 0
BBX 14 26 0 -9
BITMAP
4DDDDDDDDDDDD5
13333333333331
3AAAAAAAAAAAA4
28888888888883
25558677685552
0000D4984D0000
0000D4984D0000
0000D4984D0000
0000D4984D0000
0000D4984D0000
0000D4984D0000
0000D4984D0000
0000D4984D0000
0000D4984D0000
0000D4984D0000
0000D4984D0000
0000D4984D0000
00000322310000
00001C67A20000
00001C67A20000
00001C67A20000
00000167A20000
000005C3C10000
00001844B00000
000009BC200000
00000420000000
ENDCHAR
STARTCHAR uni0237
ENCODING 567
SWIDTH 393 0
DWIDTH 9 0
BBX 9 20 0 -3
BITMAP
0074B29650
0085C2B760
0085C2B760
0085C2B760
0085C2B760
0085C2B760
0085C2B760
0085C2B760
0085C2B760
0085C2B760
0085C2B760
0085C2B760
00A3D39850
3AA4A67A30
344D3C2D00
5DB3A68600
126C65B000
5B728B1000
269D700000
3640000000
ENDCHAR
STARTCHAR circumflex
ENCODING 710
SWIDTH 376 0
DWIDTH 9 0
BBX 7 6 1 18
BITMAP
00C3A100
05C97600
0B2D2C00
2B386B30
85B4C590
C2B0A2C0
ENDCHAR
STARTCHAR caron
ENCODING 711
SWIDTH 362 0
DWIDTH 9 0
BBX 8 6 0 18
BITMAP
19470A29
0B2D4A77
0684A4C1
01D1D3A0
009B7940
003E2C00
ENDCHAR
STARTCHAR breve
ENCODING 728
SWIDTH 360 0
DWIDTH 9 0
BBX 8 4 0 18
BITMAP
26800358
0B5AA968
02A97A80
00012000
ENDCHAR
STARTCHAR dotaccent
ENCODING 729
SWIDTH 255 0
DWIDTH 6 0
BBX 5 5 1 15
BITMAP
666610
777710
BBBB20
222200
CCCC20
ENDCHAR
STARTCHAR ring
ENCODING 730
SWIDTH 330 0
DWIDTH 8 0
BBX 8 7 0 18
BITMAP
006AA600
08677780
1AA449A0
28B00A91
0B6AA6B0
04A55A30
00155100
ENDCHAR
STARTCHAR ogonek
ENCODING 731
SWIDTH 250 0
DWIDTH 6 0
BBX 6 8 0 -7
BITMAP
005AC1
07A320
0D1BC1
2B6800
2A7671
2A76C1
2A76C1
285491
ENDCHAR
STARTCHAR tilde
ENCODING 732
SWIDTH 665 0
DWIDTH 16 0
BBX 16 5 0 13
BITMAP
0049ABBBBBA04572
05C422222221A4C1
0C1ADCCCCCCC72C0
1C59055555557C40
1533078888876100
ENDCHAR
STARTCHAR hungarumlaut
ENCODING 733
SWIDTH 837 0
DWIDTH 20 0
BBX 19 6 1 17
BITMAP
00000038100000048000
00003AC4420005CA3510
003AB44CA205C936D810
3BB45CA205C937D81000
835C92002827D8100000
0792000000A710000000
ENDCHAR
STARTCHAR uni0307
ENCODING 775
SWIDTH 260 0
DWIDTH 6 0
BBX 5 5 1 9
BITMAP
788820
555510
CCCC30
222210
BBBB30
ENDCHAR
STARTCHAR uni030F
ENCODING 783
SWIDTH 554 0
DWIDTH 13 0
BBX 13 9 0 17
BITMAP
29470047650000
0C2D000D3B0000
068950095B2000
01D3B003B58000
0095C200C3D000
003B6800689500
000C2D001D3B00
00067940095C20
00013120012220
ENDCHAR
STARTCHAR uni0311
ENCODING 785
SWIDTH 375 0
DWIDTH 9 0
BBX 7 4 1 18
BITMAP
028A8200
5A565A50
B78487B0
22000220
ENDCHAR
STARTCHAR uni0326
ENCODING 806
SWIDTH 274 0
DWIDTH 7 0
BBX 5 9 1 -10
BITMAP
413220
D2A760
D2A760
D2A760
13A760
4A6940
752D10
7AD400
320000
ENDCHAR
STARTCHAR Omega
ENCODING 937
SWIDTH 92 0
DWIDTH 2 0
BBX 1 1 0 0
BITMAP
00
ENDCHAR
STARTCHAR uni00B5.dup2
ENCODING 956
SWIDTH 802 0
DWIDTH 19 0
BBX 18 20 1 -3
BITMAP
B2975B0000083B3874
D3A85C0000093D4984
D3A85C0000093D4984
D3A85C0000093D4984
D3A85C0000093D4984
D3A85C0000093D4984
D3A85C0000093D4984
D3A85C0000093D4984
D3A85C0000093D4984
D3A85C00000A3D4994
D3A85C00001D2C67A3
D3A85C3213B787A4C1
D3A85C4ABA45C3C3A0
D3A85C5767BA3C3B30
D3A85C367636C49800
D3A85C7BBCD82A9000
D3A85C233238D60000
D3A85C6CDCA5100000
D3A85C000000000000
715436000000000000
ENDCHAR
STARTCHAR pi
ENCODING 960
SWIDTH 92 0
DWIDTH 2 0
BBX 1 1 0 0
BITMAP
00
ENDCHAR
STARTCHAR endash
ENCODING 8211
SWIDTH 473 0
DWIDTH 11 0
BBX 10 5 1 7
BITMAP
BCCCCCCCC4
2222222221
ABBBBBBBB4
6777777772
6666666662
ENDCHAR
STARTCHAR emdash
ENCODING 8212
SWIDTH 615 0
DWIDTH 15 0
BBX 13 5 1 7
BITMAP
BCCCCCCCCCCC90
22222222222220
ABBBBBBBBBBB80
67777777777750
66666666666640
ENDCHAR
STARTCHAR quoteleft
ENCODING 8216
SWIDTH 254 0
DWIDTH 6 0
BBX 6 9 0 11
BITMAP
000351
02CA71
0B45A1
0C3C30
1C6720
1C67B2
1C67B2
1C67B2
021120
ENDCHAR
STARTCHAR quoteright
ENCODING 8217
SWIDTH 251 0
DWIDTH 6 0
BBX 5 9 1 11
BITMAP
523410
C58A30
C58A30
C57A30
067A20
6D3C10
725B00
ACA100
210000
ENDCHAR
STARTCHAR quotesinglbase
ENCODING 8218
SWIDTH 252 0
DWIDTH 6 0
BBX 6 9 0 -4
BITMAP
031220
1C67B2
1C67B2
1C67B2
0267B2
04C3C1
1943C0
18AC20
053000
ENDCHAR
STARTCHAR quotedblleft
ENCODING 8220
SWIDTH 535 0
DWIDTH 13 0
BBX 12 9 0 11
BITMAP
000351000145
02CA71005D96
0B45A101D179
0C3C30049692
1C6720058932
1C67B2058A3D
1C67B2058A3D
1C67B2058A3D
021120011212
ENDCHAR
STARTCHAR quotedblright
ENCODING 8221
SWIDTH 532 0
DWIDTH 13 0
BBX 11 9 1 11
BITMAP
523410234250
C58A304894D0
C58A304894D0
C57A304894D0
067A2000A3D0
6D3C1027C1C0
725B00261970
ACA1003BD800
210000120000
ENDCHAR
STARTCHAR quotedblbase
ENCODING 8222
SWIDTH 533 0
DWIDTH 13 0
BBX 12 9 0 -4
BITMAP
031220012213
1C67B2058A3D
1C67B2058A3D
1C67B2058A3D
0267B2011A3D
04C3C1015D1C
1943C0039378
18AC20028BA1
053000024200
ENDCHAR
STARTCHAR dagger
ENCODING 8224
SWIDTH 636 0
DWIDTH 15 0
BBX 15 20 0 0
BITMAP
0000143251500000
00003A85C2B00000
00003A85C2B00000
00003A85C2B00000
27779A85C2D77740
16667A85C2C66630
3CCCCA85C2ECCC70
12225A85C2B22210
3BBBCA85C2EBBB60
00003A85C2B00000
00003A85C2B00000
00003A85C2B00000
00003A85C2B00000
00003A85C2B00000
00003A85C2B00000
00003A85C2B00000
00003A85C2B00000
00003A85C2B00000
00003A85C2B00000
00003A85C2B00000
ENDCHAR
STARTCHAR daggerdbl
ENCODING 8225
SWIDTH 648 0
DWIDTH 16 0
BBX 15 20 0 0
BITMAP
0000052341600000
00000C58A3D00000
00000C58A3D00000
00000C58A3D00000
1BBBBC58A3EBBB80
02223C58A3D22220
1CCCDC58A3ECCC90
15555C58A3D55540
18888C58A3E88860
00000C58A3D00000
00000C58A3D00000
00000C58A3D00000
1CCCDC58A3ECCC90
02223C58A3D22220
1BBBBC58A3EBBB80
17777C58A3E77750
16666C58A3D66640
00000C58A3D00000
00000C58A3D00000
00000C58A3D00000
ENDCHAR
STARTCHAR bullet
ENCODING 8226
SWIDTH 501 0
DWIDTH 12 0
BBX 12 11 0 3
BITMAP
000169971000
004D7447C600
03C29CD92B40
0B3C6005C2C0
1C49000086B2
2B6600005893
1C58000076B2
0C2C4003C2D0
04B2BCCB3A60
006C5225C700
00028BB83000
ENDCHAR
STARTCHAR ellipsis
ENCODING 8230
SWIDTH 676 0
DWIDTH 16 0
BBX 16 5 0 0
BITMAP
0333313333133331
0999929999299992
0888818888288882
0555515555145551
1DDDD2DDDD3CDDD3
ENDCHAR
STARTCHAR perthousand
ENCODING 8240
SWIDTH 447 0
DWIDTH 11 0
BBX 11 23 0 -3
BITMAP
000001423410
000005894C10
0000094D2C00
00000C2C5800
00002C589400
00005894C100
000094D2C000
0000C2C58000
0002C5894000
0005894C1000
00094D2B0000
000C2C580000
002C58940000
005894C10000
0094D2B00000
00C2C5800000
02C589400000
05894C100000
094C2B000000
0C2C58000000
2C5894000000
5894C1000000
223140000000
ENDCHAR
STARTCHAR guilsinglleft
ENCODING 8249
SWIDTH 465 0
DWIDTH 11 0
BBX 11 12 0 3
BITMAP
000000001720
0000004AC710
00017CA44A30
04AC627CA400
1934AC726C30
07CA44AC7100
1727CA661000
1AC75627CA10
1BC627D94410
0028D934AC20
000004AC6210
000000027D20
ENDCHAR
STARTCHAR guilsinglright
ENCODING 8250
SWIDTH 465 0
DWIDTH 11 0
BBX 10 12 1 3
BITMAP
8200000000
6BB5000000
B538D82000
39D825BB50
C726CB5383
16CB539D81
01559D8353
9D83566CB2
538D935BC2
BB538D9300
35BC610000
D830000000
ENDCHAR
STARTCHAR fraction
ENCODING 8260
SWIDTH 447 0
DWIDTH 11 0
BBX 11 23 0 -3
BITMAP
000001423410
000005894C10
0000094D2C00
00000C2C5800
00002C589400
00005894C100
000094D2C000
0000C2C58000
0002C5894000
0005894C1000
00094D2B0000
000C2C580000
002C58940000
005894C10000
0094D2B00000
00C2C5800000
02C589400000
05894C100000
094C2B000000
0C2C58000000
2C5894000000
5894C1000000
223140000000
ENDCHAR
STARTCHAR uni2074
ENCODING 8308
SWIDTH 528 0
DWIDTH 13 0
BBX 12 17 0 3
BITMAP
000024233200
0000A4B3C200
0002C3B5A000
00095B4C3000
002D3C4B0000
0086A5B40000
01D3C3C06150
08796A50D2A0
1D2D2D00D2A0
299999889998
144444444444
3DDDDDDDDDDC
133333333333
2AAAAAAAAAAA
00000000B290
00000000D2A0
000000002020
ENDCHAR
STARTCHAR Euro
ENCODING 8364
SWIDTH 781 0
DWIDTH 19 0
BBX 19 22 0 -1
BITMAP
00000000000233200000
000000004ADB9ABDB710
0000002BA43688653600
000004D46CA65569C700
00003C3BA27BCCB84100
0001C3C65C7322248000
00077886B29CABCC5000
000D3C3C3C5000001000
004985B3C30000000000
2685C2C4A66666100000
2693C498666666100000
00A3D499400000000000
5D94C3A78DDDDD100000
0067A3D3C00000000000
002B5887880000000000
000C3C3C39B412364000
0004B4C3D639BBA62000
0000A77B39D8668BC000
00000C65D72566534300
000001AA37CCBBCD9400
00000005CA5222248C10
00000000048BCCB95100
ENDCHAR
STARTCHAR trademark
ENCODING 8482
SWIDTH 1503 0
DWIDTH 36 0
BBX 35 15 0 5
BITMAP
266666666666620515150000000000516060
277777777777730D87786000000004B596F0
3BBBBBBBBBBBB40DC2D2C00000000C3C2DD0
122222222222210D5968870000005A6877C0
3CCCCEDEEDCCC50D0C3D2D100000C3C2D1C0
00001C57A300000D26A697700006968874C0
00001C57A300000D39B3C2D1000D2D2D75C0
00001C57A300000D3A3B59680068779685C0
00001C57A300000D3A3B4C3C21D2C2C385C0
00001C57A300000D3A76C4A69778696985C0
00001C57A300000D3A75A5B3C52C3C3A85C0
00001C57A300000D3A752C3B5A85A43A85C0
00001C57A300000D3A75095A4C53B03A85C0
00001C57A300000D3A7502D3C4AB303A85C0
00001C57A200000C2A75008694BA003975C0
ENDCHAR
STARTCHAR partialdiff
ENCODING 8706
SWIDTH 108 0
DWIDTH 3 0
BBX 1 1 0 0
BITMAP
00
ENDCHAR
STARTCHAR uni2206
ENCODING 8710
SWIDTH 108 0
DWIDTH 3 0
BBX 1 1 0 0
BITMAP
00
ENDCHAR
STARTCHAR product
ENCODING 8719
SWIDTH 521 0
DWIDTH 13 0
BBX 12 17 0 0
BITMAP
0002D2B39000
0008C7A4C100
000D2C4A6700
00593A4C2D00
00B3D4A77A40
02C592D2C4A0
086B3B77A4C1
0D2C491C4A77
4A67940B2D2C
1D3B581D3B68
095C3D5795C2
03B68862D3B0
00C2D3B58950
006895C53D00
001D3B685800
00095C3DC200
0003A689B000
ENDCHAR
STARTCHAR summation
ENCODING 8721
SWIDTH 108 0
DWIDTH 3 0
BBX 1 1 0 0
BITMAP
00
ENDCHAR
STARTCHAR minus
ENCODING 8722
SWIDTH 555 0
DWIDTH 13 0
BBX 12 5 1 8
BITMAP
AAAAAAAAAAA3
333333333331
CDDDDDDDDDD4
444444444441
888888888883
ENDCHAR
STARTCHAR radical
ENCODING 8730
SWIDTH 108 0
DWIDTH 3 0
BBX 1 1 0 0
BITMAP
00
ENDCHAR
STARTCHAR infinity
ENCODING 8734
SWIDTH 108 0
DWIDTH 3 0
BBX 1 1 0 0
BITMAP
00
ENDCHAR
STARTCHAR integral
ENCODING 8747
SWIDTH 362 0
DWIDTH 9 0
BBX 9 23 0 -2
BITMAP
0000003410
00008DA910
000A727810
004A4C6410
0094C2BD20
00B2C58000
00C2C67000
00C2C67000
00C2C67000
00C2C67000
00C2C67000
00C2C67000
00C2C67000
00C2C67000
00C2C67000
00C2C67000
00C2C67000
00C2B67000
49C3A75000
242B4B2000
6DC56A0000
124AB10000
5A94000000
ENDCHAR
STARTCHAR approxequal
ENCODING 8776
SWIDTH 665 0
DWIDTH 16 0
BBX 16 11 0 7
BITMAP
0049ABBBBBA04572
05C422222221A4C1
0C1ADCCCCCCC72C0
1C59055555557C40
1533078888876100
0000000000000000
0049ABBBBBA04572
05C422222221A4C1
0C1ADCCCCCCC72C0
1C59055555557C40
1533078888876100
ENDCHAR
STARTCHAR notequal
ENCODING 8800
SWIDTH 473 0
DWIDTH 11 0
BBX 11 23 0 -3
BITMAP
000001423410
000005894C10
0000094D2C00
00000C2C5800
00002C589400
0555BDEAF620
0777FBF9F720
09AAFCFFFA30
0234E8BB7310
0CDFFFFFDD40
00094D2B0000
000C2C580000
09BFEFFD9930
039BD8F44410
0CFFFFFDDD40
03F6F9B44410
0AFEFFD99930
05894C100000
094C2B000000
0C2C58000000
2C5894000000
5894C1000000
223140000000
ENDCHAR
STARTCHAR lessequal
ENCODING 8804
SWIDTH 108 0
DWIDTH 3 0
BBX 1 1 0 0
BITMAP
00
ENDCHAR
STARTCHAR greaterequal
ENCODING 8805
SWIDTH 108 0
DWIDTH 3 0
BBX 1 1 0 0
BITMAP
00
ENDCHAR
STARTCHAR lozenge
ENCODING 9674
SWIDTH 521 0
DWIDTH 13 0
BBX 12 17 0 0
BITMAP
0002D2B39000
0008C7A4C100
000D2C4A6700
00593A4C2D00
00B3D4A77A40
02C592D2C4A0
086B3B77A4C1
0D2C491C4A77
4A67940B2D2C
1D3B581D3B68
095C3D5795C2
03B68862D3B0
00C2D3B58950
006895C53D00
001D3B685800
00095C3DC200
0003A689B000
ENDCHAR
STARTCHAR uniF8FF
ENCODING 63743
SWIDTH 108 0
DWIDTH 3 0
BBX 1 1 0 0
BITMAP
00
ENDCHAR
STARTCHAR uniFB01
ENCODING 64257
SWIDTH 962 0
DWIDTH 23 0
BBX 21 17 1 0
BITMAP
B3874BDDDDDDD30B3874B0
D3A85C333333310D3A85C0
D3A85CAAAAAAA20D3A85C0
D3A85C888888820D3A85C0
D3A85C555555510D3A85C0
D3A85C000000000D3A85C0
D3A85C111111100D3A85C0
D3A85CCCCCCC800D3A85C0
D3A85C666666400D3A85C0
D3A85C777777400D3A85C0
D3A85CBBBBBB700D3A85C0
D3A85C222222100D3A85C0
D3A85C000000000D3A85C0
D3A85C000000000D3A85C0
D3A85C000000000D3A85C0
D3A85C000000000D3A85C0
D3A85C000000000D3A85C0
ENDCHAR
STARTCHAR uniFB02
ENCODING 64258
SWIDTH 1208 0
DWIDTH 29 0
BBX 28 17 1 0
BITMAP
B3874BDDDDDDD30B3874B0000000
D3A85C333333310D3A85C0000000
D3A85CAAAAAAA20D3A85C0000000
D3A85C888888820D3A85C0000000
D3A85C555555510D3A85C0000000
D3A85C000000000D3A85C0000000
D3A85C111111100D3A85C0000000
D3A85CCCCCCC800D3A85C0000000
D3A85C666666400D3A85C0000000
D3A85C777777400D3A85C0000000
D3A85CBBBBBB700D3A85C0000000
D3A85C222222100D3A85C0000000
D3A85C000000000D3A85C3333331
D3A85C000000000D3A85C9999992
D3A85C000000000D3A85C8888882
D3A85C000000000D3A85C5555551
D3A85C000000000D3A85CDDDDDD3
ENDCHAR
STARTCHAR .notdef
ENCODING -1
SWIDTH 108 0
DWIDTH 3 0
BBX 1 1 0 0
BITMAP
00
ENDCHAR
ENDFONT
